<mxfile host="Electron" agent="Mozilla/5.0 (Windows NT 10.0; Win64; x64) AppleWebKit/537.36 (KHTML, like Gecko) draw.io/27.0.9 Chrome/134.0.6998.205 Electron/35.4.0 Safari/537.36" version="27.0.9">
  <diagram name="PÃ¡gina-1" id="GLsSwN_wIx7bp4Nu328G">
    <mxGraphModel dx="1615" dy="1720" grid="1" gridSize="10" guides="1" tooltips="1" connect="1" arrows="1" fold="1" page="1" pageScale="1" pageWidth="827" pageHeight="1169" math="0" shadow="0">
      <root>
        <mxCell id="0" />
        <mxCell id="1" parent="0" />
        <mxCell id="voNVv0d4LPMG87MhzOCo-1" value="" style="shape=image;imageAspect=0;aspect=fixed;verticalLabelPosition=bottom;verticalAlign=top;image=data:image/png,iVBORw0KGgoAAAANSUhEUgAAAtwAAAEVCAYAAADTpjKIAAAAAXNSR0IArs4c6QAAAARnQU1BAACxjwv8YQUAAAAJcEhZcwAADsMAAA7DAcdvqGQAAP+lSURBVHhe7J13WFTX1sbfKRRBEGtEooDiGI1GUa7BXojhM7HGKF6MijVcEyxBjSWxoIZrcomJKQaNLRYiN8ZrBVsoIk2UjmAAKdKFGaRImXPW98dQhykgYEyyf8/D8+g5Z++99lrvXnvPmX3OCIiIwGAwGAwGg8FgMNoFofIBBoPBYDAYDAaD0XawBTeDwWAwGAwGg9GOsAU3g8FgMBgMBoPRjrAFN4PBYDAYDAaD0Y6wBTeDwWAwGAwGg9GOsAU3g8FgMBgMBoPRjrAFN4PBYDAYDAaD0Y6wBTeDwWAwGAwGg9GO/EELbh4lqbFIlvHKJ14M+BKkxiajzryydERGZ6JC6bK/PZwUD2Ifokz5+B+JcuxaCV+SithkGdqouufPc4lRBbJi7yPvWZ3UivHFF6chIigEcbnPUvr5UpYeiejM52tna/VbkRWL+88cWEY9L/icx2jl3KEc3zKkR0ajPYZ7a8e0RiqyEHs/79nrbm15ZVTMDX/mnKRywc0XhOHwx4vx7rsOcPjncmz0OIZjew7gZqXylS2Hy/wNHk4jYfmqAw4mypVP/8FwyPzNA04jLfGqw0EozOORdnARRo1egeO5rQxyVSou/vsjrHM7gTsFPMBlITIyG5zydS88HNJ/88Ci4ZZ4bdkppL8QHVAVu1bAZeI3DyeMtHwVDgcT0drqnj/PI0Y8ZJEn8ZGdFawm7kZQlfL55vCs44vDQ++NcN57ESHnP4G9ZAjeO/FQ+aIXBz4NBxeNwugVx9Gkm5W3sHX0AIxf74t85XPPSiv1y8sicfIjO1hZTcTuZwsso4YXe85jtHbuUBVfPu0gFo0ajRXHc9tu8dnKMa0RXobIkx/BzsoKE3cHocUjvrXlVdJ4bvgr5KSmC+6yIHwydREuW3yEw7+cgdfBDRgj/Qmb3K8hpw0mbVHvyXBZMQFdX8hflBeh92QXrJjQFfXmCWGx8ieEBB/C4p5N3dV8eBScP4nf5LrIOOOCcUPH4J8rNuJspgFEype+8IhgPvlDLBnXGXhhwqgqdq1A1BuTXVZgQldqdhf5gruISGmDQdImPI8YCWFi7Yh1MyWt8PmzjS8+7zRc18XjH+td4LLXGz9tsIWRvA3uCLQXQgus/CkEwYcWQ7mbVXcv4BrmYs+n/4cezXeBZp5Bvw0RmljDcd1MSJ49sIwaXuw5j9HauUNVfIUWK/FTSDAOLe6pYpH1jLRyTGtEaAJrx3WYKXnGultbXiWN54a/Qk5qooWKmz/iSKYtFi8Zik4AhEYDMNPNC/+Z1RUC5YufEZGJCYzbqrI2RwQTE+PGfTU0h/XQ3tBveOxZsHbEJ1v+jbP3YnB9ryPGTfsYrtNMlK/6kyCCoZFhUwH9oaiIXWsQmcCk2UItQ9jX23DsQZved2glzyNGQhgbGbbO588wvqpCbyCozBDG+gCEXWH36QkcWPKK8mUvFIbm1hjaW7mXHDLSX8bG0zsxrpPSqdbSIv02RWhsBMNnL85owIs95zFaO3c0ja8hzK2Hoslwby2tHNMaERrDqDUDvrXlVaE0N/zZc1KTuVigqwtx0SV4fPYbcmtv1glfwtsLZsBM6VZseXYsbvsH4m56STO+NpGjKDkcAYGRyHyqfA4AypEdexv+gXeRXtKwNh6ylDAE3IpCRnEhsnMa7kZVVwaAvBAPwvxw0/8OUmXNuOsoL0JyeAACIzPR1LwKZMUkNPgqWJNNAMqzEXvbH4F301FvlhDdTXWR/XsheL2ekAwfgWGv9IRRowjIUfggDH43/XEnVdZ4q0l5BmITC8BVZCM6PBFFSl3ic6Jw3dcHPr63kCjjAS4bd6/6wMfnKkIfltddV5YRi6RCHqjKQ3xwMBLylRaILfCbQFCjfJKj4H4oQuNzm+zDlRc+QJjfTfjfSUXj6jT7sEXa0hg7dfFQj7woGeEBgYhUJVRV/uELELp/Md7zCEda1DX4+sWhoK4dDtLUCNwKDEVivvLXYJp90AhehpSwANyKykBxYTYaX6q+De0xKkdGbCIKuApkR4cjsYGwmhsDYW0bDVAfd1Uojy9NOq1ERvhVXAtNQTH3GAk3fHA1OBkltQU5KVIjbiEwNBHK7i7PiEViAYeK7GiEJxbVjK9yZMYo9p9zslREBEcio9a3VXlICA5CdLaSqlVpoAFV+YkI8fdHWLK08RiuyEJMQtOvmLu+PgY9M+40iR1QhozYJCjcEI/g4AQoD1dVaNRvC+IKoaDpAkRD33lZCsICbiEqoxiF2TkanxtQHQsNY1WT/tWVUdJ2QkocAn194OPjAx/fICQV8wBKkHz7Knx8fBGUJFMUa6M+Pvuc1wA+B1HXfeHj44tbiTLw4JB99yp8fHxwNfQh6jJ7WQZikwrBowp58cEITshX2nKgYW5RgzqdlGfGKPbQcjKkRgQjsn7AIC8hGEHR2Y1yDF/yEPGpJeA5KZJDAxGW3Ny5TZ1/NORNDbFTiba5Q60N0BrfiqwYJCjtH1ObG7TYrXlMtzC2atsSQkUqb0qLy5chKyYIgSH3kV9ZhbzUNJQ0V9fKc4OqnAQNOUCttv4Ymiy49Sa7wHWCEMG7/w/W41bi28AsVAHoPHUGJurVXMTnwHfXCrh6BiDmzhm4jpVg/NYbKFTWYy3lsTi40B7LD0chK/kitrh44kGDjvM5vti1whWeATG4c8YVYyXjsfWGInnE7HeCy+lMyCsScGSBLd79MQ1yjWUALvUkFtvOwdfRj5Eb7A57yVjsDKkPoTLlsQex0H45DkdlIfniFrh4PqgRLQ9ppBc2vmmFfuN3IrACgAabAB45vruwwtUTATF3cMZ1LCTjt+JGQR7Cj6/FJCsJprp74fBKe7ztuBBvDxuCWZ7Jira4VJxcbIs5X0fjcW4w3O0lGLszBOV8PkKPrMEkKwmm7PgBe98di9GjRmLJicJGfRB26YOX837CypkrcDhBDoi6oHePJOxfMAMfeWejuiAcx9dOgpVkKty9DmOl/dtwXPg2hg2ZBc9kRW9b6jcAAOXhsstoWI+2w9ghFhg482tElAIAh9STi2E752tEP85FsLs9JGN3QlGdBh+2UFvqYwf18VBXGcoRe3Ah7JcfRlRWMi5ucYFnA6Gq8w8vy0Zhh87oyPOoLJNBVlyu6IssFF85OWCTdywyki7Addwg2Lv51SzGNfhAmaoY7HdywelMOSoSjmCB7bv4Ma3mSo1t1KAyRjzyQ49gzSQrSKbswA9738XY0aMwcskJFLYwBo3RFHdlmo4vXqtOCVVlxZCVVQNUjbJiGWRPKsDxgCz0Kzg5bIJ3bAaSLrhi3CB7uPkVQJ4fiiNrJsFKMgU7ftiLd8eOxqiRTjhw4yRc35Cg/4Qd8D67HQvmO2HpnFEYaOsK34gTWDVtNpa8Pxe2A8dhe00H1GlA0Z0C+O9ZBKf/3EB6fgy+mSGBjct55MiliPTaiDet+mH8zsD6xYja2PEoCD+OtZOsIJnqDq/DK2H/tiMWvj0MQ2Z5oma4qkCzfls6tpTR1PeqmP1wcjmNTHkFEo4sgO27P6JWog3hVcZiCU4UahiravWvroxcpbZt1/yGisTvsWz6TOy5Z4JehkIABnipYzj2eURA3MWgTfoItGbOU0LYBX1ezsNPK2dixeEEyCFCl949kLR/AWZ85I3s6oJnn1uU26pFjU4KHkfgpOsbkPSfgB3eZ7F9wXw4LZ2DUQNt4eobgROrpmH2kvcx13Ygxm0PQTmXicBvlmOk+SA4fnMKO98cjtenvIFRAyWY7HYbxRrmNvX+UZ83NcVOFZrnDi0x0hBfXhoJr41vwqrfeOxULBrU5wZem91axnQLY6u5Le20tHx5/DE4v70Qe6/GIzHwS8y3tsSg2QeRyGvRNdd0blCNmhxQkKtWW38opIrSePL6aBK9rCcggbATvTJ7J11Krag5yVGe1wKatCmUKmv+n75vAunqWNO2yOpG1Sgoo6ANr1HfJedJWnOk9NIyMtN5hTaEVBJxeeS1YBJtClXURlw67ZugSzrW2yiyLJjWDx5GH4c+VZzKPUW7v4mnak1lquV0/7PXyWDEToqtJqLqcNo8WJ+GbYskVdZRWRBteK0vLTlfZx1dWmZGOq9soJBKIiKOcr6zIz3jeXSmjIgq1dhERFyeFy2YtInqzdpHE3R1yHpbJFXLU+iLMbpkbLOGzqdWEpGMflnQg/TGfkEpciL5/c/odYMRtFNhNIVvHkz6w7ZRZHVN/ybqUocha+havpTib/hSdCFX14Va5Am7aaT+AFp/u8aAytu0fkAHGvXv30lORPKUL2iMrjHZrDlPChN+oQU99GjsFykkpxb6rcZGXbMZtD+8kORUSrGH5pKFjh7ZuMVQtfw+ffa6AY3YGUuK6jbTYP1hCo2o9WELtaUldhrj0bCeGsqCNtBrfZdQfXWXaJmZDr2yIYQqtfiHy/6W7PTNaPmV2nEipSvvS2jg2gBS9JKoLMiVBuqa0vyfc4lT64OmVAavp8HDPibFpRzlntpN38RXa29DW4yIo/R9E0m3wxBacy2fpPE3yDe6gHJaEgMienJ0Oul3dqRfnhKRprirRGl8adWpgrKfZpK+iQN515Qh6RV6XzKQ1gbUeYKCXAeSrul8+jmXIy59H03U7UBD1lyjfGk83fCNpkKOo+xv7UjPwJY2B+SQnIgq731Kw3Q60aiPr9GjaiKqjqRPh+lRXxc/qtCoAY5yTjuQlf13lM4REVVT3BcTqEuvxXSulIi4HPrOTo+M550hhcnaYienlC/GkK6xDa05n0oKNyygHnpj6YuUWi80RrN+Wzi2iIieHKXp+p3JURFYDX2vpOD1g2nYx6GKvnC5dGr3NxSvplpVsSjIUT9Wy9ToX/P4VqXtQuKqY2nXPzqQ2ZLzJFOUouyjH9AGn5I27GMr5jxV9ckTaPdIfRqw/nZN7Crp9voB1GHUv+l3RWJ/9rmlCZp1wmV/S3Z6BmS7OYByFAOGPh2mQ51GfUzXFAOGIj8dRnp9Xcivoma+HKBDppO3k++jaqKyBDo024xEuiNoR3S16rmtIEe9f9StCTTGTgVa5g7NMdISXyLicr4jOz1jmnemjEhjbtBst+Yx3dLYam6L6Akdna5PnR1/qctJjWlh+ZLfaO1ga9pwuzZJV1Lw+ldIb/BmCq9uhq5VzA2Nc5KWOV6VtlSsm54nTe5wAwAMB2G+x29IuPdffDrTFNnnd2DWmHfwfYIcQDn8z/ki68EleLi7w919L049tccOt0UY0UG5IgClvjhwLBVDJk5C7W5lfUsLmNZuTyn3xznfLDy45AF3d3e47z2Fp/Y74LZoBDqIzSAxT8eXM8Zj8WdnEa/jgK0fDoJYUxmIIHE+jsBTLrDI9MeRvUcRKuVR+bSi6d0DAKW+B3AsdQgmTqqzDpYWpg0eZBTCyKhj/dcY6mwCUO5/Dr5ZD3DJwx3u7u7Ye+op7He4YdGIDoCoIzoaimA0zB72lroADCHp3xvCYhmKCBBJnHE88BRcLDLhf2QvjoZKwVc+RQUPQNgBHXSFMLaxw7juJhhkZ4/XuqgOnSZEHTvCUGSEYfb2UJggQf/eQhTLikAt9FstItN/wG54F4hgiMFLPfDRWAFiA2/hsUAC5+OBOOVigUz/I9h7NBRSvhJPK3gNPmyZtrTFTmM8mlAK3wPHkDpkIuqrs4RFnVBb6J+iizj0cyashlrX7T8zeN0BsySPcem0D2RqfdAUsZkE5ulfYsb4xfjsbDx0HLbiw0Fi7W3UHFMbI16IDh10ITS2gd247jAZZAf71/QR2IIYNEGkIe4qURpfWnWqmqKLh/BzphWGWtd5Aq87zILk8SWc9pFB2KEDdIXGsLEbh+4mg2Bn/xq6CIXoaGgAga4lhtv0hAiArsQK5mKg9/AxMBMDEFvAvJcAxVKpljEihY+XL/SsbWoeihTj1fX+KMw6hlmGAIRGMOrYoJdaYydCx46GEBkNg729JRRu6I/ewmLIilR5QZt+Wza2mqKp72KYScyR/uUMjF/8Gc7G68Bh64cYpErMgMpY6AeqH6vq9K95fKvSdhcIxYOwzPkNlJ/zhHcWD3AP4BX2EuZN7th2fWzNnNegmmbTmrmlCZp1IuxoCAOBLiyH26CnYsDASjFgMEYxYGBh3guCYimkVDN36YvQffRM2JmJAYOBcNq5AsMoFgEBeeBVzW36ger9ozZvaopdU7TNHRpjpC2+AIRGRqgf7ppygya7tY3plsZWU1vNoWXliy//gJMlr+PNEQY1R0To1Klj020Vamk6NyijMQeo0tYzrJvakiatcykRiKz5Ptpo0Bzs/DUSd0+8B8vHV/HZvusAX4KCwqfQGzgLGzZvxubav01rMWNA0+zDZSbidxkgEjdpCgDAlxSg8KkeBs7aUF/X5s3YtHYGBuj2wbIT1/GDgxEC9szD8AGjseZcBqo1lREDQvFTRO1fAecj2Ri61BmTTYVqJmoOmYm/QwYR1JgH1OyDrQu6ULVNHHiUFBTiqd5AzNrQwC+bN2HtjAEQQ6C0v0kAkUgAEK+wTSjG06j9WOF8BNlDl8J5simEDY3WpLrm0rAfACAQQWGCoqHm+00Nwu7oa2kCASdHNYQQP43C/hXOOJI9FEudJ8O0tkPqfNgibWmLnbZ4KMFlIlEh1KaDooaW+IfLy8Cjch5VVQ2+CxNbwNxMiCqZFE+gxgcNK6lB2GcZTlz/AQ5GAdgzbzgGjF6Dcxmc9jZUZcFGMUJTYbUoBqrQEHc1NBpfigMaddoUDnkZj1DOV6GxK8xhJqyCTPoEfNOeAg33uNcdEELQKKoCCIWoe3uBWg1whch/XAFZkVSNJgSN2mpO7JRtE4hEEICg0g3a9NvquGroO4Tos+wErv/gAKOAPZg3fABGrzmHDFVirqFxzzSPVV2V+q/WWEbRI1URF8J0njPmGPnB83AcysJ/RsrgBbDWrTnbBn1s1ZzXvFAo0cq5pSHadKI8NiGAUND4RUiChgNGBeJ+r6K/IVBdWako1yQFafCPmjUBpzF2ymibOzTbYJWjOb5ATQ6r7ZeW3KDWbm1jGi2Mraa2mknzy3PITklDqVgXOqqGYTNpMjc0QnPeEKOptv5omsRRnvxfHPYtaPCJRR9W893gPEqEJ1IZIDRGL1MDJHofxk1pfTku1QeXY5puaBN06YYu4grE3Y1C45d2EXgeEBr3gqlBIrwP30R9dRxSfS4jpjITcY96w2n/TSTGX8SW1zJwwGUPftPTUEZeiivrZmJL4Vx8u8sRI3rUZjBVshCgS7cuEFfE4W6U0ivFiFf5qQ2captuVAph3MsUBoneONzYMfC5HKN6b24DSq+sw8wthZj77S44juhRtyBUZbVaRGKIVEzIRCpmhSa0xG/qKEfB46foM2w4Xiq/gnUzt6Bw7rfY5TgCjapT58PqlmhLW+xaGA9BF3TrIkZF3F00rY5vsX9EvfqjnzGH+Ii79fvp+CpUVgnx8lBrmJIaH6h4sx2XGYdHvZ2w/2Yi4i9uwWsZB+Cy5wbk2tpoMrrROEaqzrdwfDehVEPc2w0RevXvB2MuHhF36/cT8lWVqBK+jKHWpk0T3TOhQQOil9DHrAPyfM7galHt9TwKfTxxKqnp+NOqj5YarE2/rY2rpr6DQ2bcI/R22o+bifG4uOU1ZBxwwR5VYlaJ5rFaqVL/v0FPQxmNPer4JpydJIg/+iXcvIoxYX7fmjubbdPHVs15Kg0XQSxS8YGTSOUHdGVaNLe0WieqIWowm1aXo4LvgYGDe6l8Ja5G/6hZE9yo1BQ7ZbTNHZptiDXWHN8maMwNxert1jamWxpbjfpuDi0pL4BJ507AowiEPlSn0tbpWlveeHa1th9N0zpJcWXPBpxOrJ+4uKxghD3siZnz7QAYYsoSR1imecJh4gK4/eiNs8fdsfzjYBj2rQ1APcLu07FwWjekHl6HLZcyUIVKpN+LQz4nRVZ6LooFU7DE0RJpng6YuMANP3qfxXH35fg42BB9BZnw/twT98oBfYu3sOXTubAw0IN+Rw1lhMVISc1DaUYSHpZWIDPgIkJyOJQX5yAqLE7ZOnSfvhDTuqXi8LotuJRRBVSm415cPjhpFtJzi1EOgOd4UO0CnFNjkwAwnLIEjpZp8HSYiAVuP8L77HG4L/8YwYZ9IeY5cHICX3vXQaErEM+D53kUp6QirzQDSQ9LUZEZgIshOeDKi5ETFYa4UoWm5dWaJSTqYYaeulkIvXYPefn3cfnAMdwulKMg8yEel1SA5zjIiW8gcAKBwPM8eL4lfquHyoshq0kGFbGHcTLl//DpmlEQF6cgNa8UGUkPUVqRiYCLIcjhylGcE4WwmCQ1PmyJtrTHTqApHkq1Qdgd0xdOQ7fUw1i35RIU1d1DXD4HaVY6cqW5Gv0j1NeHHp4gJ7sIBWFBiNGZhtXOQyA9uw9HkhRvn+Bzr8M/cwxWrxoHPQ06UobL9MbnnvdQDn1YvLUFn861gIGePgSdtLRRU15djBQ39QiQVzdITi2JgQKO4xQTFQ/wmuIeV6pcFFAeX4BmndYcqaqqBlVVobLmQKdpq+E8RIqz+45A4Qoeudf9kTlmNVaNU3iCIIfyEOJ4XunDNSnaq5sDFP/meQ7QOEYyMXXJPPTOPYH331mL771/xSmPD+DkLcZoKxEAHhxPdRMltMaOB8fJQXyDD9CKhAFe1ayuTb/FghbHFRwHrsbvmvseg0zvz+GpEDPe2vIp5loYQE+VmGtQjoWm3ClQo/+OGsooeqSs7VrEsF62EuMKT+MsTce0rjWH26iPrZrzVIVC1ANmPXWRFXoN9/Lycf/yARy7XQh5QSYePi5BRWvnlkZoGf8cD15pYUkAqMEdbVIMmEYPrxekp0HRFI/sCxcQM9gZqybXbKZSntsMNfhH3ZqANMVOef7SPneUa7DBylRLfBWLBvBU66dO6nND31L1dt/J0zKmS1sWW436jgPAQZHK1dxsbFF5IXr83zuY2CEM/16wCgeuhuPub8dw9Lecel1o07WKuaFRTtKSN8RQoa0/GuVN3RXXttKc91bQP6dPpRlzHGj+3Bk0efxb9OHRaCqpu6qMEk660GSrzqSna0x9xqykY3G1u9qbwknD6TsnWzLvbEIWNtPpwx3LyNZyFDl+cpRCcjiisgQ66TKZrDrrka5xHxqz8hjFlSke+tsyuh8Ne8OJNu5wo00rV5L7zVziiNSXIY6yzq2mkT2NqHO/8bT8gB/95GROJn2n0echisdkGsORNPw7crI1p84mFmQz/UPascyWLEc50idHQygl7iJtn9qLRGILmrXnMiU90WATEZUlnCSXyVbUWU+XjPuMoZXH4qiMZBRzdgvZ9RCRjmQ+eVyJp6RbR2j1aBMSGljT8kNBlJl5jlaP7ElGnfvR+OUHyO8nJzI36UvT/u1LAV6b6Q1TEYnM7GmrVwQ9Vrvv/wkF7Z5CfYyNycx6Ln3ud4U2jOhPExbvoJN+gXR2ix31EOmQZL4HXYlPoltHVtNoEyEZWC+nQ0GZLfQbUdnvF2j3exPoH+NnktMHq2nFql10MaXmcQsui86tHkk9jTpTv/HL6YDfT+RkbkJ9p31OIfmafNgSbWmOnUJaquKhBk5K4d85ka15ZzKxsKHpH+6gZbaWNMrxEzoakqXZP/JkOvpPCXXuKqFZHqGKsVKdRhe2zqAR1hNp/op/0dKFzvRlQJ6in5q0rUTl7S00ut8wesNpI+1w20QrV7rTzdyaKzW1oTFGHBXe86LNb5iSSGRG9lu9KKJOWM2PwdPES7TNvieJROY0a895ipNpiLsKGZUmKI2vvBgtOk2n1Jvf0+qxXUko7EGTNnjSf0MekZyIqtMu0NYZI8h64nxa8a+ltND5SwrI44grvEdem98gU5GIzOy3klfEY+KIqDThAm2fakYicV+as/cixaZH0a+7ZlAfkZj6znan/0U/pAjvbfSWmYjElrPJ3ecBPdSkASqjhFMuNFnSnYw6mZGNowfdyueIqJQSLm6nqb1EJLaYRXsuJyk6ryF2spiztMWuB4l0JDTf4wrFJ92iI6tHk4nQgKyXH6KgLBVK0ajfnBbFlZ4m0qVt9tRTJCLzWXvofJxMg/7z6faW0dRv2BvktHEHuW1aSSvdb1KtRBuiLhakNndq1r/qMpq0XYuUfl02jdyiGz5dpmnuaH4fqTVznhqeBO2mKX2MydjMmuZ+7kdXNoyg/hMW046TfhT432ecWz4PqXlwVBk1OilNoAvbp5KZSEx95+yli7HpFPXrLprRR0TivrPJ/X/R9DDCm7a9ZUYisSXNdveh5LJI+nSoLpnazqPlH6yjjz54j2Y7fEIX0+VEXCHdUze3qfOP2rypKXaqeql97lBrg7b4psTRxe1TqZdITBaz9tDlpAoNuUGL3VrGNJfVkthqaiuXEi9tI/ueIhKZz6I95+OUCz9DeTllX9tO0wd2p47GFjRpnTf5bLehDrUPTWrU9R1KV157yZRz0hMidTlAk7b+QATU8KMpg8FgMBgMRlsgj8I2m1E4Pz0Yd3dZN/1mkfE3gkPCblvYnJmCgMjP8I+/oRiabilhMBgMBoPBaDNUblJgMP5WsAU3g8FgMBiMtkdehKInHIoLpVD+HVXG3w05Hj8uhrxUhicv0Lbq5wnbUsJgMBgMBqNtqUzG9WP/RWBaMeRiE1hMnIcldn1rHtZm/L3gkHX7BE5fTUJhtQ46950Mh6UTYaHqNTV/YdiCm8FgMBgMBoPBaEfYlhIGg8FgMBgMBqMdadaCmy9JRWyyjD32oIKy9EhEZzb4tTgAFVmxuJ/3InurDOmR0VAyu+3gS5AamwzZi+wCBoPBYDAYjOeE5gU3l4nfPJww0vJVOBxMVPEDAn8VKnFr62gMGL8evvktWCXyaTi4aBRGrziOXB7gZZE4+ZEdrKwmYnfQi/uICJ92EItGjcaK47lt/CGKQ+ZvHnAaaYlXHQ4i8a8rGAaDwWAwGIxmo3nBLeqNyS4rMKErqfzxznaHL8DdiJRm/sxnK6i6iwvXgLl7PsX/9dDskkYILbDypxAEH1qMnkJAaGINx3UzIWmPbfFt6AuhxUr8FBKMQ4t7ahFASxGh92QXrJjQtcEv9f1NacN4MRgMBoPB+HOjfb0lMoGJcdOfr30elIV9jW3HHrT7nXUuIx0vbzyNneM6KZ/SiqG5NYb2rvmJWgBCYyMYtoO72tYXhjC3HooGZrchIpiYGKMdXPCnom3jxWAwGAwG48+MaMeOHTuUDwKAvCgZEeFxyBcI8OC/RxFr6YR/TXkZtW9xKc+ORfjdJBQIuqCniZ76BZa8EA/uhCEq+TFg0hOd9YUAn4OoG7cR+SAZuVw39O6mg5y71xEU/TtSC8Xo9XInyEK/wfL33BCsMwCDu8hR3ckcPQwFADhIU+8hIjYDTzv0QDfDhu+VKUdmTDIqundHh+JU3LuXBnkXU3TSBVCVh4SwKGSLeqCnUeOfOCKBIXTKM/HoaQf06GYIEQC+6D5uBUQg4fdkJKfkge/+MrrplyL5tj/C4pORx3dDn276QEUWYh6Uo3v3jgofVEfj5y+uQu8dV8wZVN+OOn/xshSEh8XjsdAEOmVSkJGR0muTeBSo9UU5smPDcTepAIIuPWGiV1trGTJiH0LevRvE+fEIi3kMPdPuMGzw8aoiKwYPyruje8cGkSvPRmz4XSQVCNClpwnqq8tA7EM5uncTIz8+DDGP9WDa3bDxpzV5EZIjwhGXL4DgwX9xNNYSTv+agpdrw8NJkXovArEZT9GhRzc0CpsqWmOLMlX5SAy/g7hsOTqZdkEHaNNfZ+jUlm2xHRripWosaKIsCzHhUUgt64AenUqRkUno9PQ+btyOxIPkXHDdeqObTg7uXg9C9O+pKBT3wsud6yxXq7mS1Lv4vbIHenTU0j6DwWAwGIw2QcWMW47Ygwthv/wworKScXGLCzwfNPhinM+B764VcPUMQMydM3AdK8H4rTdQqGIzMJd6Eott5+Dr6MfIDXaHvWQsdoaUA8Iu6PNyHn5aORMrDidADhG69O6BpP0LMOMjb2RXy5Bd2AGdO/LgK8sgkxWjXA5AFoqvnBywyTsWGUkX4DpuEOzd/FDA8yiKOAnXNyToP2EHvM9ux4L5Tlg6ZxQG2rrCN+IEVk2bjSXvz4XtwHHYHlJeY6EMoV85wWGTN2IzknDBdRwG2bvBr4CH0LAr9BK/x7LpM7Hnngl6GQoBGOCljuHY5xEBsUklIr024k2rfhi/MxBqnz/U4K+qmP1wcjmNTHkFEo4sgO27PyJN+ZYor9oXfI4vdq1whWdADO6cccVYyXhsvVGAvPDjWDvJCpKp7vA6vBL2bzti4dvDMGSWJ5I5gJdGwmvjm7DqNx47A2ut5pHjuwsrXD0REHMHZ1zHQjJ+K24U5CH8+FpMspJgqrsXDq+0x9uOC/H2sCGY5Zlct12iPPYgFtovx+GoLCRf3AIXzweNtlLIQr+Ck8MmeMdmIOmCK8YNsoebX4Ga/eOts6UxPAr892CR039wIz0fMd/MgMTGBefzTDTrj1OUfSY71MRL7VhQSTnijznj7YV7cTU+EYFfzoe15SDMPpgIvksfvJz3E1bOXIHDCXJA1AW9eyRh/4IZ+Mg7W+EHDZpDVQA+edMWIxd6KjfKYDAYDAajvSAlyoI20Gt9l9B5ac2B0ku0zEyHXtkQQpXEUZ7XApq0KZQqiYiIo/R9E0hXx5q2RVY3qodITvc/e50MRuyk2Goiqg6nzYP1adi2SKomIpIn0O6R+jRg/e2auirp9voB1GHUv+l3ORFx2fStnT6ZLb9CFUREJKUr70to4NoAelrTQlmQKw3UNaX5P+cSRxxlf2tHega2tDkgh+REVHnvUxqm04lGfXyNHlUTUXUkfTpMj/q6+FEFEUmvvE+SgWspoL5Cch2oS6bzf6ZcjoiqY2nXPzqQ2ZLzJCMiIo6yj35AG3xKFNdzOfSdnR4ZzztDZTVV0JOjNF2/Mzn+8pRIo7/KKHj9YBr2caiiP1wundr9DcUru5FU+ILLI68Fk2hTqKJW4tJp3wRd0rHeRpHVckr5YgzpGtvQmvOpVElEsl8WUA+9sfRFilxxec53ZKdnTPPOKKzm8rxowaRNVF/dPpqgq0PW2yKpWp5CX4zRJWObNXQ+tZKIZPTLgh6kN/YLSpErfLbhtb60pF4wdGmZGem8soFCKolIeoXelwyktfVOpiDXgaRrOp9+zuVqjtXTKluU4HJOk4OVPX2XrminOu4LmtClFy0+V6pVf62yQzle2saCEiW/raXB1hvodq2oKoNp/St6NHhzOFUTkTxhN43UH0Drb9cYV3mb1g/oQKP+/TvJNWqumohKKfa/++iH37LqG2QwGAwGg9GuKN3hLoXvgWNIHTIRk0xqDulbwsK0biMJ/M/5IuvBJXi4u8PdfS9OPbXHDrdFGNGhQTUAABEkzscReMoFFpn+OLL3KEKlPCqfVqi5s6mFoos49HMmrIZao3brscHrDpgleYxLp30ggxAdDQ0g0LXEcJueEAHQlVjBXAz0Hj4GZmIAYguY9xKgWCoFoQgXD/2MTKuhsK6vEA6zJHh86TR8ZADEg7DM+Q2Un/OEdxYPcA/gFfYS5k3uqLheaASjhlsymqDJX2KYScyR/uUMjF/8Gc7G68Bh64dosAtFPeX+OOebhQeXPODu7g73vafw1H4H3BaNQAeI0LGjIURGw2BvbwldAIaS/ugtLIasSPEko9DICI12kvifg2/WA1zycIe7uzv2nnoK+x1uWDSiAyDqiI6GIhgNs4e9pS4AQ0j694awWIYiAkp9D+BY6hBMrBcMLC1M67YeFV08hJ8zrTC03sl43WEWJI8v4bSPrOZYPa2xRRmpjxd89axh01Mhc/Gr6+FfmIVjswyVL21CW9rRsrFQjMs/nETJ629ihEHNIVEndGr29g9NmgMAQwx+dy3en9RLuSCDwWAwGIx2ovEszmUi8XcZIBKr2msC8CUoKHwKvYGzsGHzZmyu/du0FjMGNF0pCsVPEbV/BZyPZGPoUmdMNhU+89tOuLwMPCrnUVXVYPOG2ALmZkJUyaR4wgMCgdLiVyCEoFGLAgiFULxBg8tDxqNy8FVVDbaDiGFhbgZhlQzSJzwAIUznOWOOkR88D8ehLPxnpAxeAOu6TdaCpm02RKO/dNFn2Qlc/8EBRgF7MG/4AIxecw4ZqvdGNIIvKUDhUz0MnLWhvs7Nm7Fp7QwMEDf1g0AkggAEvtYVAgHqL+FRUlCIp3oDMWtDAxs3b8LaGQMgRsNrAUAAkUgAEA8Ch8zE3yGDCGKVguGQl/EI5XwVGofNHGbCKsikT5QWnK2xRRkOhfmPUSErgrTpSS20pR0Kmj0WuGykpJVCrKuj/rkITWjUXNMxymAwGAwGo/1pvEwSdEG3LmJUxN1FVGWjMyCeB4TG6GVqgETvw7gprT/Hpfrgcozy5uNSXFk3E1sK5+LbXY4Y0aN2sq9dZoggFgFUtwqsPU0q9+OKevVHP2MO8RF3Ubfzla9CZZUQLw+1hqnKBZ8GRL3Qv58xuPgI3K2vEFWVVRC+PBTWtRV2fBPOThLEH/0Sbl7FmDC/b93dW61o9FclMuMeobfTftxMjMfFLa8h44AL9txQcrwKhMa9YGqQCO/DN1FfLYdUn8toEgatCGHcyxQGid443NhI+FyO0fKWDQG6dOsCcUUc7jYVDHiI0Kt/Pxhz8YiodzL4qkpUCV/GUGtTJQG2xhZlRHipjxk65PngzNWiuqN8oQ88TyWB06i/trQDzRgLDRCYoHMn4FFEKB6qGggAIBJD1PADVA1EnBbNtdxyBoPBYDAYrUdpvdMd0xdOQ7fUw1i35RIyqoDK9HuIy+cgzUpHbrEAU5Y4wjLNEw4TF8DtR2+cPe6O5R8Hw7Cv0t0zvhgpqXkozUjCw9IKZAZcREgOh/LiHESFxQGiHjDrqYus0Gu4l5eP+5cP4NjtQsgLMvHwcQkqhPrQ1wOe5GSjqCAMQemTsdp5CKRn9+FIkuJHZfjc6/DPHIPVq8ZBDwDH8zULvVoIADV4J7Ti3zzPAeiEaaudMUR6FvuOJKFKUSGu+2dizOpVGKdXW0YM62UrMa7wNM7SdEzrWnscAHhwPCk+jNTCceBA4HkegKEGfwmQ6f05PO+VA/oWeGvLp5hrYQA9fRX3NZV9kTIGSxwtkebpgIkL3PCj91kcd1+Oj4MN0VfMg+PkIL7BgoxI4ZdaO3kOPBFq/2s4ZQkcLdPg6TARC9x+hPfZ43Bf/jGCDftCzHPg5AS+wd1bRXU8eF6I7tMXYlq3VBxetwWXFILBvbh8cNIspOcWQ2faajgPkeLsviNQhI1H7nV/ZI5ZjVX1Tq7j2W1RqghAp6lLMK93Lk68/w7Wfu+NX0954AMnb4hHW0GkRX+i1tihHK+oXM1joSHCHvi/dyaiQ9i/sWDVAVwNv4vfjh3Fbzn1q29RDzP01M1C6LV7yMu/j8sHjuF2oRwFmQ/xuESkQXNigMvA2fXvwumbiEbNMhgMBoPBaEeUN3UTJ6Xw75zI1rwzmVjY0PQPd9AyW0sa5fgJHQ3JIaIySjjpQpOtOpOerjH1GbOSjsXVPTLYsCLKOreaRvY0os79xtPyA370k5M5mfSdRp+HKB5BfBK0m6b0MSZjM2ua+7kfXdkwgvpPWEw7Tt6hx5ycko/+kySdu5JklgeFlhBRdRpd2DqDRlhPpPkr/kVLFzrTlwF5xBFRacIF2j7VjETivjRn70WKTY+iX3fNoD4iMfWd7U7/i35IEd7b6C0zEYktZ5O7TzJVUjWlXdhKM0ZY08T5K+hfSxeS85cBlNfkWT4p/bpsGrlFN3zErZQSLm6nqb1EJLaYRXsuJxE9TaRL2+ypp0hE5rP20Pm4Jxr8VUm3t4ymfsPeIKeNO8ht00pa6X5T8bBmE1T4oiyBTrpMJqvOeqRr3IfGrDxGcWVEspiztMWuB4l0JDTf4wrFJ92iI6tHk4nQgKyXH6Kg3+Po4vap1EskJotZe+hykuKxvrKEk+Qy2Yo66+mScZ8xtPJYHJWRjGLObiG7HiLSkcwnjyvxlHTrCK0ebUJCA2tafiiIsjiOpOHfkZOtOXU2sSCb6R/SjmW2ZDnKkT45GkI5HFF12gXaOmMEWU+cTyv+tZQWOn9JAU2dXMez26JcE1FZwilymSyh7kadyMzGkTxu5VPtZZr11xo7lOOlfSw0Qp5N17ZPp4HdO5KxxSRa5+1D22061D00SfSEgnZPoT7GxmRmPZc+97tCG0b0pwmLd9DJO481aI6Iqu/QzpFdydzpl8ZtMhgMBoPBaDcERH/73wRkMF5suATstrXBmSkBiPzsH2A7sRkMBoPB+HPR0p3PDAaDwWAwGAwGowWwBTeD8aIjf4zHxXKUyp48wwObDAaDwWAw/mjYgpvBeJHhsnDbKwzGcz7C/G4ROOGfpnwFg8FgMBiMFxy2h5vBYDAYDAaDwWhH2B1uBoPBYDAYDAajHWELbgaDwWAwGAwGox1hC24Gg8FgMBgMBqMdYQtuBoPBYDAYDAajHWELbgaDwWAwGAwGox1hC24Gg8FgMBgMBqMdYQtuBoPBYDAYDAajHWELbgaDwWAwGAwGox1hC24Gg8FgMBgMBqMdYQtuBoPBYDAYDAajHWELbgaDwWAwGAwGox1hC24Gg8FgMBgMBqMdYQtuBoPBYDAYDAajHWELbgaDwWAwGAwGox1hC24Gg8FgMBgMBqMdYQtuBoPBYDAYDAajHWELbgaDwWAwGAwGox1hC24Gg8FgMBgMBqMdYQtuBoPBYDAYDAajHWELbgaDwWAwGAwGox1hC24Gg8FgMBgMBqMdYQvuVsOjJDUWyTJe+cQLQ1l6JKIzK5QPtw18CVJjk9E+3a9AVux95NXVXYb0yGi0V1deZPiSVMQmy9AubmYw1NKa/NaaslCM95hEFDxrcbW0V73tTFk6IqMz8TdMfwzGX4K/1IKbzwnFma/X4p0JYzF23HSs+s9J3Ernas5WIvm3I9i9/P8wzm4BPjl0E8mVShW0EC7zN3g4jYTlqw44mChXPv1iwKfh4KJRGL3iOHLbdILhkPmbB5xGWuJVh4No2+7zkEWexEd2VrCauBtBVTVH0w5i0ajRWHE89++z8OQy8ZuHE0ZavgqHg4loUzczGBpoTX5rTVmAR37oYbhMsMKANz9HaM34bz3tVe/zgEfawUUYNXoFjrdtImcwGM+Jv9SCW2hqC4cPV2LE03CE5UuwYPV7GGcuqjmrB6vJS7F+dm+U93XElhV2sNJTqqCFiHpPhsuKCehKpHxKDTwK7kYgpfYzwPNAaIGVP4Ug+NBi9GzTaIvQe7ILVkzoimZ3v9kIYWLtiHUzJY3qFlqsxE8hwTi0uGfbCJcvwN2IFDzPcLQYUW9MdlmBCV0Jz+zmP0M/GW0CX3AXEW2UYFqe3+ppTVlAiB62Tlg7rZ/yiVbSXvU+D4SwWPkTQoIPYXHbJnIGg/Gc+OuNXEE3dO0sgMDIBCYqeifs1Bkvd+sKsfKJZ0RkYgJjgfJRNZSF4ettx/CgpTd8WomhuTWG9tZXPtwGiGBiYozmdr9lCGFsZKhUtyHMrYeirbpSFvY1th178OLfNRaZwKTZImvKn6afjFZShrCvt+FYGyaYFuU3JVpTFhDBqMn4bwvaq97ngKE5rIf2RhulPwaD8ZxRsSR9DlSkwf/YF9ixYy+O/JaKcuXzz5UyZMQmoZAHqvLiERycgHyt85UcRcnhCAiMROZT5XMAUI7s2NvwD7yL9BLF1398QSj2L34PHuFpiLrmC7+4grptEeXZsbjtH4i76SWNt0qUZyA2sQBcRTaiwxNRxAEoz0TM/Tzw4CBLjUBwZAbKai6vyktAcFA0spU3+VVkISahwTaMsgzEJhWCRxXy4oMRnJCvtBiTo/BBGPxu+uNOqqzpnVF5EZLDAxAYmQmV3eekSI24hcDQROQ352vbqnwkhvjDPywZ0gaNCQVNp8WKrBgkKH+lWp6N2Nv+CLybjhp3K1DbTx4Fofux+D0PhKdF4ZqvH+IabOhUG49G8Ch5GI/UEh6cNBmhgWFIlimM53OicN3XBz6+t5Ao4wEuG3ev+sDH5ypCHzZWu6a25EXJCA8IRKRqkWksq0BTP5tqVEFzxoO6skB5RiwSCzhUZEcjPLGoqXZqUROzsoxYJCkaR3xwMBKaNg60wMfNra+W8swY3M/jAU6G1IhgRGbUjS7kJQQjKDpbxR5aDtLUCNwKDEViE8GXIzNG8RwCJ0tFRHAk6qvMQ0JwEKKbDFj1sVXbH74AofsX4z2PcKRFXYOvX1yDPcqa7FOF5vwmL3yAML+b8L+TihrJNzyrsWxLbBE0GP9VuXG43UItAlXITwyBv38YkhsklmbVKy/EgzA/3PS/g1SlTvKyFIQF3EJURjEKs3Pq8m/d+aL7CPT1gY+PD3x8g5BUzAMoQfLtq/Dx8UVQkkxxoYY2VI+jCmTFJDTeGqihDm121qFqnlGcUONbHrKUMATcikJGcSGycxrXrE67jfqUkIK4QF+Fj3x8EZRUDB5ASfJtXPXxgW9QUs1zQRrmIl6GlLAA3IrKQHFhNpTMYDBeOJ7/grssHJ/Zj4Dd0o3YuXMTlk2xwRS3YJQqX9fu8CgIP461k6wgmeoOr8MrYf+2Ixa+PQxDZnkiuclEUkN5LA4utMfyw1HISr6ILS6eeNDgWj7HF7tWuMIzIAZ3zrhirGQ8tt4oQFF2ITp07gier0SZTIbicjnA58B31wq4egYg5s4ZuI6VYPzWGyiU5yP0yBpMspJgyo4fsPfdsRht+w/M/tcqvCHpjwk7vHF2+wLMd1qKOaMGwtbVFxEnVmHa7CV4f64tBo7bjpByALwUkV4b8aZVP4zfGYgKvgDhx9dikpUEU929cHilPd52XIi3hw3BLM9kRTLjUnFysS3mfB2Nx7nBcLeXYOzOkLoPReWxB7HQfjkOR2Uh+eIWuHg+aJQEZaFfwclhE7xjM5B0wRXjBtnDza/+w0VjeBT478Eip//gRno+Yr6ZAYmNC87nNL2al0bCa+ObsOo3HjsDaxcoPHJ8d2GFqycCYu7gjOtYSMZvxY2CPM395GXILuyAzh158JVlkMmKUS6H+ngomcNlBuKb5SNhPsgR35zaiTeHv44pb4zCQMlkuN0uhrBLH7yc9xNWzlyBwwlyQNQFvXskYf+CGfjIO1vhL41tlSP24ELYLz+MqKxkXNziAs/GItNQtgFq+qlOo3nNGA+qyxZCnh+KI2smwUoyBTt+2It3x47GqJFLcKJQySY1MbuWFIrjayfBSjIV7l6HsdL+bTgufBvDhsyCp4rBqM3H1QXhLaqPL4rASdc3IOk/ATu8z2L7gvlwWjoHowbawtU3AidWTcPsJe9jru1AjNtePx4gC8VXTg7Y5B2LjKQLcB03CPZufijgeRRFnITrGxL0n7AD3me3Y8F8JyydMwoDbV3hG3ECq6bNxpL358J24DhsD6mpUU1sC/I094eXZaOwQ2d05HlUlskgKy5XfLhUa1993xuhMb9xSD25GLZzvkb041wEu9tDMnanItdoLfsMtgAAqvDw53WYt8AZK2daY8jsQ3Vb8tRpkQfAF/hjzyIn/OdGOvJjvsEMiQ1czuc0yEPq6+VST2Kx7Rx8Hf0YucHusJeMxc6aTlbF7IeTy2lkyiuQcGQBbN/9EWlKi3WhYVfoJX6PZdNnYs89E/QyFAIwwEsdw7HPIwLiLgZq2+BVjiMn/ODnhY1vWqHf+J2oTX/q6miuneBVzDOjRmLJiUINvq1CzH4nuJzOhLwiAUcW2OLdH9MUWlOn3VwVfbJdg98qEvH9sumYueceTHoZQgjA4KWOCN/ngQhxFxiQhrmoKgb7nVxwOlOOioQjWGD7Ln5s0kEG4wWDnisc5f44jYwEIKD+T2D4Jn3/iFO++Nng8ujAm7qkM8KN4qqVTxJV3tpAMzaFUCUREckp5YsxpGtsQ2vOp1IlEcl+WUA99MbSFyly5aJEVEZBG16jvkvOk7TmSOmlZWSm8wptCKkk4vLIa8Ek2hSqqJ24dNo3QZd0rLdRZDVH2d/akb7ZcrpSQUTEUZ7XApq0KbTGFo7S900gXR1r2hZZrSg7UZc6DFlD1/KlFH/Dl6ILHtG3dnpkYLuZAnLkRFRJ9z4dRjqdRtHH1x5RNRFVR35Kw/T6kotfRY0NOfSdnR4ZzztDZURE8hT6YowuGdusofOplUQko18W9CC9sV9QipxIfv8zet1gBO2MrSaiagrfPJj0h22jyGoiKguiDa/1pSXn63pPl5aZkc4rGyikkoikV+h9yUBaG/C05nwZBbkOJF3T+fRzbtP4cjmnycHKnr5LV5yrjvuCJnTpRYvPlRIR0ZOj00m/syP9UlMdl/Md2ekZ07wzZYr/53nRgkmbqN7d+2iCrg5Zb4ukai39JC6bvrXTJ7PlV0jhKS3xUKIyeD0N0DGlydt96VE1UVnCIZptJiLdETsouppInrCbRuoPoPW3a4yrvE3rB3SgUf/+neRa2ioL2kCv9V1C9W6+RMvMdOiVDSFUqaVsE5T7qVGjWsaDxrIK/0/U7UBD1lyjfGk83fCNpkKlsGuKWUXKFzRG15hs1pwnRch+oQU99GjsFymkajRq9jGRvIX1cdnfkp2eAdluDiDF8LpHnw7ToU6jPqZrjxTjIfLTYaTX14UUw0tKV96X0MC1AVSn+CBXGqhrSvN/ziWOFGNez8CWNgfkkKLKT2mYTica9fE1UlQZSZ8O06O+Ln5UoSW22vrDZX9LdvpmtFyRYJphnzJa8pv8Pn32ugGN2BmryDXhm2mw/rAa3Wkp22JbiPJ/sCd9o1G0NSCfOCIq+d9iMtWfQF+mcZq1WJlDpx2syP67dEW91XH0xYQu1GvxOSrVVi/J6f5nr5PBiJ2kSIHhtHmwPg3bFknVVEnB6wfTsI9DFX3gcunU7m8oXsWwo+pY2vWPDmS25DzJiIiIo+yjH9AGnxItbagbRxzlfGdHesbzSJH+NNXRAjtVzjM56n1bFkzrBw+jj0MVUeRyT9Hub+KpWot2VfepmmJ3/YM6mC2h8wonEZd9lD7Y4EMlpHkuqgxeT4OHfUwKMzjKPbWbvlHZQQbjxeE53+HmkZOeiQql52ioMhNpj9ro06lQUPOVoZqHzHgOENV2W4SOHQ0hMhoGe3tL6AIwlPRHb2ExZEUqSpf64sCxVAyZOAkmNYf0LS1gWvtcZrk/zvlm4cElD7i7u8N97yk8td8Bt0Uj0KFBNTUXw/+cL7IeXIKHuzvc3ffi1FN77HBbhBEdAAg7oIOuEMY2dhjX3QSD7OzxWjdjGBoIoGs5HDY9RQB0IbEyhxi9MXyMGcQAxBbm6CUohlRaY7/QCEYdG2zNEHVER0MRjIbZw95SF4AhJP17Q1gsQxEBIokzjgeegotFJvyP7MXRUCn4yqeo4IFS3wM4ljoEEyfV9R6WFqao7X7RxUP4OdMKQ61rdxka4HWHWZA8voTTPjVfozZA6uMFXz1r2NQ8BCR+dT38C7NwbJah8qUAAKGRERp2pdz/HHyzHuCShzvc3d2x99RT2O9ww6IRHbT2syla4qGEsEMH6Iu6Y/RMO5iJAYOBTti5YhgoNgAB9e8xVIOmtkrhe+AYUodMRL2bLWFRLzINZRs0oQ6NGtUyHjSWVfhEV2gMG7tx6G4yCHb2r6GLUobRFDNRx44wFBlhmL09FCGToH9vIYplRarHshZaWp+woyEMBLqwHG4DxfCSwMpcDPQejjFmYgBiWJj3gqBYCikBKLqIQz9nwmqodd2+WoPXHTBL8hiXTvtABiE6GhpAoGuJ4TY9oajSCooqx0BRpQXMewlQLJWCtMS2pf3Rbp8S2vKbSALn44E45WKBTP8j2Hs0FFK+Ek8VyUFz2ZbaUovBK3h9ZHcIAej36YMekEEq5TVrUeoDL189WNvUPFwtfhXr/QuRdWwW6jKLunohgsT5OAJPucAi0x9H9h5FqJRH5dMK8BDDTGKO9C9nYPziz3A2XgcOWz/EIFUPBIkHYZnzGyg/5wnvLB7gHsAr7CXMm9xRSxvqxpEQRkYdG+w911RHC+xUNc/oB6r3rdgMEvN0fDljPBZ/dhbxOg7Y+uEgiLVoV3WfxBi0zBlvlJ+Dp3cWeHB44BWGl+ZNRkdonovEZhKYp3+JGeMX47Oz8dBx2IoPVXaQwXhxeM4LbjGsRo5Aj9okXIOw2wi8PkC38cFnpgMM9IWg8jKUqVj38CWlgKFR3SKx4X4+ABCIRBCAwKuYwbjMRPwuA0Ri1W7jSwpQ+FQPA2dtwObNm+v+Nq2dgQHKuYAvQUHhU+gNnIUNDa7dvGktZtRe3GQLswDK25oFQoHie4L6AxA2+rBR+wGk4f8b/BcCiEQCgHhFGaEYT6P2Y4XzEWQPXQrnyaYQEhSvAUz8HTKIoLr7HPIyHqGcr0JVgy2pYgtzmAmrIJM+UdpWwqEw/zEqZEWKxUtzEDS0nUdJQSGe6g3ErA0N/Ld5E9bOGACxtn4q05x4aESMfq/2hyGqUVmpsoV6NLVllYNEhchUD05NZZthpzaNahoP2spClWQboSVmAkHj8gIRFCHT4k91tLQ+5eshQNPhJUTtq3O4vAw8KudR1VjwMDcTokomxRO+qT8hEELxBV/dAdRVqS22yvZp6U9z7GuItvwGCCF+GoX9K5xxJHsoljpPhqkiOWgt21JbVCISQgQO8mrNWrQqzsfjChmKmptYGtQLAELxU0TtXwHnI9kYutQZk02FNRETos+yE7j+gwOMAvZg3vABGL3mHDKa7lACIITpPGfMMfKD5+E4lIX/jJTBC2BdM82pb0OBqnEkUIq/+jpaYmfTxjT5doBuHyw7cR0/OBghYM88DB8wGmvOZYDTpt2mzQAAhKbz4DzHCH6ehxFXFo6fUwZjQb2T1MxFgLDPMpy4/gMcjAKwZ95wDBi9BufUdpDBeDFQnR3bkY5v7cYPa0aiq1gAQABR5xH44Id/Y1btbZFWowvLvr0hyHqApCYbwzmkxTxClwF96hbcLUHQpRu6iCsQdzcKjV/hTeB5QGjcC6YGifA+fBPSunMcUn0uI0b5Br7QGL1MDZDofRg36y8Gl+qDy00ufn6UXlmHmVsKMffbXXAc0aPubS4EAbp06wJxRRzuRim9wJx48BChV/9+MObiEXG3/qE1vqoSVcKXMdTaVElsIrzUxwwd8nxw5mpR/fWFPvA8laT+Ybs6hDDuZQqDRG8cbuxA+FyOafkbOZ4pHgRqsFCoLq8A32MgBvcSASIxRCo+uBFxmtuKNUa3LmJUxN1FUzfzmsuqtbOeFmlUidaUVdDGMdPk4+eAqFd/9DPmEB9xt35PN1+FyiohXh5qDdOWZtdWxlaZltqnLb+h9ArWzdyCwrnfYpfjCPSoTw5ay7bUFm1o0mJ81z4w65AHnzNXUZdZ+EL4eJ5CklZplOLKupnYUjgX3+5yxIiGnQSHzLhH6O20HzcT43Fxy2vIOOCCPTfU/KBDxzfh7CRB/NEv4eZVjAnz+9bMO5raaC6a6mihnUpo8m1MZSbiHvWG0/6bSIy/iC2vZeCAyx7cqH5W7XbEm85OkMQfxZduXiieMB99ayZn9XMRwGXG4VFvJ+y/mYj4i1vwWsYBuOy5oaQ9BuPFooVprg0QmmKaRzBSkkLh5xeCpNQw7J9p1oaG6MJ22fsYI7yB/Z/dRF5dgq1Ctp87Nt4cDKc3a79Y5MFxchDfYNImUiwg+aa3XITdp2PhtG5IPbwOWy5loAqVSL8Xh3xOiqz0XBQLpmCJoyXSPB0wcYEbfvQ+i+Puy/FxsCH6ioXQ19cDnuQgu6gAYUEpGLPEEZZpnnCYuABuP3rj7HF3LP84GIZ9a1ILAfLqhsmKA8/XLLxqIYXNdamaCAQefF2/eXA81ZfhOXByAt/gTq+iy4o+F6ekIq80A0kPS1GRGYCLITngyouRE3UHeZMXYlq3VBxetwWXMqqAynTci8sHJ81Cem4xdKathvMQKc7uO4KkKkXbudf9kTlmNVaNa/rS805Tl2Be71yceP8drP3eG7+e8sAHTt4Qj7aCCADHcTWxqCnAc+CpZvIHYDhlCRwt0+DpMBEL3H6E99njcF/+MYIN+0KssZ8AhPpQhCMbRQVhCIoRYIq2eCjDFyA9reZTHZ+NCxdiMNh5FSbrA6IeZuipm4XQa/eQl38flw8cw+1COQoyH+JxiUh9W1ammL5wGrqlHsa6LZegcPM9xOVzkGalI7e4hXYq9zNljAaNahkPhpr0XXM55GgkWSU0xUzIcZAT3+COLYFA4Hle5UO3mn1cAb6F9YHjwdcuLmtQDK/6hRARATyv+EDYaRpWOw+B9Ow+HFEIHnzudfhnjsHqVeOgB4BTDNgG7ZHCjvoBC0WVHABDjbHV1h+hvj708AQ52UUoCAtCjI52+xqiLb9Jc1OQmleKjKSHKK3IRMDFEORw5SjOicKdvMkayxa30BagRnNNvpFqhha7TsWSeb2Re+J9vLP2e3j/egoeHzjBWzwaViIt9fLFSEnNQ2lGEh6WViAz4CJCcjiUF+cgKiwGmd6fw/NeOaBvgbe2fIq5FgbQ01d17xYAxLBethLjCk/jLE3HtK41hzW2EQeoGUc8x4NqtaSxjhbaqTzPaPKtIBPen3tCUfVb2PLpXFgY6EFfoFm7imaa9gkAxNbLsHJcIU6fJUyvd5KGuSgMMUne+NzzHsqhD4u3tuDTuRYw0NOHADwKr++Ewz93w6/Bwp/BeCFQ3tT914Cjx7e/pZVvDKWBw8aQ3ZtTyG7COHpj4Wd0LaP+wQpZzFnaYteDRDoSmu9xheKTbtGR1aPJRGhA1ssPUVBW00d5OGk4fedkS+adTcjCZjp9uGMZ2VqOIsdPjlJIDkdUlkAnXSaTVWc90jXuQ2NWHqM4xTN+JE8+Sv+UdKauklnkEVpCRGWUcNKFJlt1Jj1dY+ozZiUdiysj4grpntdmesNURCIze9rqFUGPuVJKuLCdppqJSNx3Du29GEvpUb/Srhl9SCTuS7Pd/0fRDyPIe9tbZCYSk+Vsd/JJLqKEi9tpai8RiS1m0Z7LERRzdgvZ9RCRjmQ+eVyJp6RbR2j1aBMSGljT8kNBlJl5jlaP7ElGnfvR+OUHyO8nJzI36UvTPg8hGXEkDf+OnGzNqbOJBdlM/5B2LLMly1GO9MnREMrhiKrTLtDWGSPIeuJ8WvGvpbTQ+UsKyGvqx1rKEk6Ry2QJdTfqRGY2juRxS/Eg09PES7TNvieJROY0a895istJoIvbp1IvkZgsZu2hy0mKB8PKEk6Sy2Qr6qynS8Z9xtDKY3FURjKt/czi5JR89J8k6dyVJLM8KLSE1MdDBdWRn9JQXVOynbecPlj3EX3w3mxy+OQipdc9jfeEgnZPoT7GxmRmPZc+97tCG0b0pwmLd9DJO481t8VJKfw7J7I170wmFjY0/cMdtMzWkkY5fkJHQ3I0l22Cin6q0WizxoOaslzhPfLa/AaZikRkZr+VvCIeq3wQjtTFTBZDZ7fYUQ+RDknme9CV+CS6dWQ1jTYRkoH1cjoUlKVcjWYf+wW2rL7SBLqwfSqZicTUd85euhibTlG/7qIZfUQk7jub3P8XTQ8jvGnbW2YkElvSbHcfSq4kouo0urB1Bo2wnkjzV/yLli50pi8D8ogjotKEC7R9qhmJxH1pzt6LFJseRb/umkF9RGLqO9ud/hf9kCK8t9FbZiISW84md59kqlQX2+b4R55MR/8poc5dJTTLI5RKSLN9qtCY37Iy6dzqkdTTqDP1G7+cDvj9RE7mJtR32ucUItNSVpEcmm2LLPq/9PEkhRYdvrhEcYmBdHjNGDIRGdKI949QaK56LRIpNH7KZTJJuhtRJzMbcvS4Rflcc+qtpqxzq2lkTyPq3G88LT/gRz85mZNJ32n0eUg+3d4ymvoNe4OcNu4gt00raaX7TVLxPHgDpPTrsmnkFt3wgT5ObRv/9g1QOY5KEy7S9qm9SCS2oFl7LlNShfo6mm2nynmm5pw631bepi2j+9GwN5xo4w432rRyJbnfrH3oVbV2m5MbpL8uo2lu0dTIS1nq56L821todL9h9IbTRtrhtolWrnSnm7mKh16Tv5tKL/WcRj+kqno0msH44xBQw9s3DAajWcijtsFm1HlMD76LXdYq7iwzGAwGg8Fg1NB2OzkYjL8jKvcmMBgMBoPBYNTDFtwMxjMgLyrCE64YhVLNv5bHYDAYDAaDwbaUMBgtpDL5Oo79NxBpxXKITSwwcd4S2PVtq9daMhgMBoPB+KvBFtwMBoPBYDAYDEY7wraUMBgMBoPBYDAY7QhbcDMYDAaDwWAwGO0IW3AzGAwGg8FgMBjtCFtw/4HwJamITZa125vlKrJicT+vvvay9EhEZ1Y0uuavSnv7ts2pyELs/bw/j72MFx9OigexD1GmfPw5ozwW/8g89Ee23dYo5/dmwRcjLSIIIXG5+Gt4oam+/rTwJUiNTYbsD+hIEy2VpSMyOvMvo5EXhb/Wgrs8CdcP78RS+7EYM2Ysxr8xDXMcHDDnnTlY8P7H+I9XKLJfhLe4cZn4zcMJIy1fhcPBRKj4tdtWwcsicfIjO1hZTcTuoJoO82k4uGgURq84jtw/YEA/N9rZt20OL0PkyY9gZ2WFibuD8CLI889LOZKuH8bOpfYYO2YMxo5/A9PmOMBhzjuYs+B9fPwfL4TWJgA+H3d+/hwfzp6EseNnY6e/0u9AV6XC/9hnWD51AqZ/8B+cDEpF1u2f8G/nGRg/diwmvLMWX58JQRbXuNiLAYf03zywaLglXlt2Cul/lI2qxuIfmYc0tV15C1tHD8D49b7IVz73gqEyv9fB4cG3szBg+CIcT2mc/biH3tjovBcXQ87jE3sJhrx3Ag//KG1ooOrO9/jySjN+l12VvtqJquDtGDdgLNZeym2HhT2HzN884DTSEq86HERie3ZECdVa4pF2cBFGjV6B400GCqNVKP/05J+fMjq/uAeJOr1LXiU1h55mUfDRNTS2hw6ZDF9FZ9NegJ98rQyijyR69MqGEKpUPtcGcBlf0yS9zuT4y9O6Y6Vp9ygqo/7/rYOj/Ig7lPwCuLIJ7ezbNofLoK8n6VFnx1+oraLzd6bs/GLqIepE79YnAMoKPkprxvYgHZPhtOpsGtXKtjrlMM0yFZHYbA4db/JT0GX0v6WjaV1gvYqqo7fTcB0dGr698c9Qv3hU0G8fWJCezS6KV+7W80TFWGzbPNQy1LVdeXs92YzaSoEy5TPPES6fIu4k12lTE6ryu+LEQ/rqzcG05JdHjX8+nculn2b3orcOFhIRR49vuNF7zkfofnMae65I6ezCXmRs9w09bI5tKvTV9lRS6Mf/oNc3+VOR8qk2o5KCPpKQ3isbKKT9OqISlVoqTaN7URltNB+9wGuF58xf6w43AEAMk05GEAhEENX2Tr8XRjl9Bd+Ln+CV3z2x1OlrJPzRn+xFJjAxFigfbTOExkYwVKre0NwaQ3vrNz74rJSF4ettx/DgOX4abzbt7Ns2R2gMI+VgMZ4ZsUknGAkEENUnAPQa5YSvfC/ik1d+h+dSJ3xdkwDEfV7HiP4voUvx/7B6wR6ElTasSYROJi/B2Kg+TQoMDdEBAhiZmLzgXw+KYGhk+MfbqGIstmkeaiGq2+aQkf4yNp7eiXGdlE49R8rCvsa2Yw+adadWVX4HABQnQDTnJL6dY9Y49lWhuBFUBkNjfQBCdLX7FCcOLMErooYX/fHw6V44dq0Y5YGHcTSmGZ5Qoa82h3uEh71c4bV7Ajorn2szRDAxMUY790QlKrVkaA7rob2hPFKeiRd5rfCc+WPycUUa/I99gR079uLIb6koVz7fThiOdMUOx5dReusrfH2jYavlyI69Df/Au0gvad5XKFX5iQjx90dYshSN1u7yQjwI88NN/ztIlTVd1cuLkhEeEIjIzKfKp7SWVU0V8hND4O8fhmRpgzJCQdPBW5GFmATlr8TU9b0MGbFJKOSBqrx4BAcnIL9mwPAFodi/+D14hKch6pov/OIK6uosz47Fbf9A3E0v0f7VGy9DSlgAbkVloLgwGzmNNpuqs0s9Gn2rwTZeloKwgFuIyihGYXZO4z2v5dmIve2PwLvpaGyGHIUPwuB30x93UmWNNaAOtfEVQqAcrPJMxNzPAw8OstQIBEdm1NlVlZeA4KBoZCttsJMXPkCY303430mFKvmo1awG35RlxCJJIQLEBwcjoVYEtajtE1CeEYvEAg4V2dEITyxq0mY9PGQpYQi4FYWM4kJk55SBz4nCdV8f+PjeQqKMB7hs3L3qAx+fqwh9+IwZw3AkXHc44uXSW/jq6xt1eUfQdTa++G4eTCJ2470155DTPLm1GK2+BMBJUxFxKxChiflNtheVZ8Yo9llyMqRGBCMyo04RyEsIRlB0dqM9l4JaUZEcBfdDERqvvG+3HBmxiSjgKpAdHY7EovoIqdNDc9E4FpvkoWezQ5Oe1Z5r0raCrq+PQc+MO0jMV/a6+jyoCr4wHv6+PvDx8YHP1TCklQNAOdLCrsLHxxf+8YXKRQDwKAjdj8XveSA8LQrXfP0QV1CXUVXnQVX5HQD0hmHCq1JENMhXlRnhuHotFCnFHB4n3IDP1WAkl9QW4CBNjcCtwNBn7Lum8i1FjugjF9Ft5y68aRCHnzz91D5/oFFfGnTT0jEEAHKZHJZDuiH9nnJebZq3Woy8CMnhAQiMzITKnnBSpEbcQmBoIpq4V+P8qYoWrBVQgayYBKWtV2q0qEEnz7RWaGG/nm3+/mN4/gvusnB8Zj8Cdks3YufOTVg2xQZT3ILR6MZSu2GIsVNGoxPlIMgvDgDA5/hi1wpXeAbE4M4ZV4yVjMfWG4VNEnIdfAH89yyC039uID0/Bt/MkMDG5TxyeIBLPYnFtnPwdfRj5Aa7w14yFjtDaqf1csQeXAj75YcRlZWMi1tc4PmgXvSay6qGL/DHnkVO+M+NdOTHfIMZEhu4nM9pajsvRaTXRrxp1Q/jdwbWJRTVfS9AXvhxrJ1kBclUd3gdXgn7tx2x8O1hGDLLE8kcD1l2ITp07gier0SZTIbicjnA58B31wq4egYg5s4ZuI6VYPzWGyhsYkwNVTHY7+SC05lyVCQcwQLbd/FjmmKUqrZLQ0y0+FaTbVUx++HkchqZ8gokHFkA23d/hMIMHjm+u7DC1RMBMXdwxnUsJOO34kYhD3CpOLnYFnO+jsbj3GC420swdmeIxg+OzY4vX4SIk654Q9IfE3Z44+z2BZjvtBRzRg2ErasvIk6swrTZS/D+XFsMHLcdiio4pJ5cDNs5XyP6cS6C3e0hGbuz5pxmzarzTUFeOI6vnQQryVS4ex3GSvu34bjwbQwbMgueyQrfqusTnx+KI2smwUoyBTt+2It3x47GqJFLcELVWgNViNnvBJfTmZBXJODIAlu8+2Ma+C598HLeT1g5cwUOJ8gBURf07pGE/Qtm4CPv7CYLrOZiOHYKRnci5AT5Ia5uAhOi1zxPnN5sjfzjK7BofxwqGxdrFXyBdl8CMoR+5QSHTd6IzUjCBddxGGTvBr8CHnxRBE66vgFJ/wnY4X0W2xfMh9PSORg10BauvhE4sWoaZi95H3NtB2LcdiUdUh4uu4yG9Wg7jB1igYEzv0ZEKY/80CNYM8kKkik78MPedzF29CiMXHIChWr0oHYcN0HDWGySh57RDo16VnNOrtx2DbJQfOXkgE3eschIugDXcYNg7+aHAp5HgcY82KDLDRB26Iiy659i3jRHHEjrge76AKCPrqLb2L3lEspMOioXAXgZsgs7oHNHHnxlGWSyYihSakvyoPp8RVVlKJaVoRqE6rJiyGRPUMHxre+72vJKpjWX0ms4GDIEy52WYPmM7nj0yw8412RDvQZ9QUM+e/wsY0hTXlWdt5p8HtFAeexBLLRfjsNRWUi+uAUung8a5TVZ6FdwctgE79gMJF1wxbhB9nDzq1mwapg/VdHstQJ4SCO9sPFNK/QbvxOBNQNFtRbbYa3Qwn490/z9R6K8x6R94Sj3x2lkJAAB9X8Cwzfp+0eNdpy1gkoKWN2PxCYO5F2mfI6oMnAt9RcLyXTZJSIuj7wWTKJNoTWbprh02jdBl3Sst1Gkyg2aHOWcdiAr++8onSMiqqa4LyZQl16L6VypnO5/9joZjNhJsdVEVB1Omwfr07BtkVRNRGVBG+i1vkvovLSmqtJLtMxMp2bvmeayKuFy6LSDFdl/l67Yq1cdR19M6EK9Fp+jUiKiJ0dpun6DfVlcDn1np0fG885QGZGWvssp5YsxpGtsQ2vOp1IlEcl+WUA99MbSFylyIuIo+1s70jdbTlcqiIg4yvNaQJM2hdbso+Mofd8E0tWxpm2qHUmVwetp8LCPKfQpKXRxajd9E1+txS6lSmrQ7FtNtpVR8PrBNOzjUMVeNS6XTu3+hhRmeNGCSZuo3ox9NEFXh6y3RVLF/c/odYMRtFMRLArfPJj0h6m3j7TG9wkdna5fv4eby6Zv7fTIwHYzBeTIiaiS7n06jHQ6jaKPrz2iaiKqjvyUhun1JRe/CiL5ffrsdQMasTNWcS58Mw3WH1bje02a1eSbapKnfEFjdI3JZs15SlWIgBb00KOxX6SQXEufuPR9NFG3Aw1Zc43ypfF0wzeaClUN8cpgWj94GH2sEAJxuado9zfxVE1E8oTdNFJ/AK2/XROEytu0fkAHGvXv3zXuc60MWE39xCbkoDoB0Nr+YhKaLqNLTxXjZvdsF7peQUTyVDr+7ssk7jCE1l4vJI4qyO+j2bS9QWDlyZ/TGB1dmrCvZtw1E82+JJJeeZ8kA9dSQO2mybIgch2oS6bzf6ZcjojL/pbs9AzIdnMAKSRxjz4dpkOdRn1M1x4pdBj56TDS6+tCfhVUp0tdsxm0P7yQ5FRKsYfmkoWOHtm4xVA1cZS+byLpdhhCa67lkzT+BvlGF1COBj00B81jkZrmoRbbUalRz+rPqWpbSlfel9DAtQF1e1XLglxpoK4pzf85lzjSlgfVUBZAayV6NHBDMFUQKfLb8YU0/4cM9ZrhsulbO30yW35FUUZbHlTK75ryVTURUdlPNFO/4Zhobd+1lW8pHGUfmUfTvkgkORFVBK4jidiAxns0Huua9aU5n7V4DGnKqxryVrMoC6INr/WlJfUdoUvLzEindg+39Aq9LxlIa+sTAgW5DiRd0/n0cy6nfv5URUvXCsRRznd2pGc8j86UadOiNp20bK3Qon5R5TPN3+pqex485zvcPHLSM1Gh9GPyVJmJtEfqP8W0JVRainISwsikM1Duj3O+WXhwyQPu7u5w33sKT+13wG3RCHRQLggAkMLHyxd61jboKQQAMV5d74/CrGOYZSiCxPk4Ak+5wCLTH0f2HkWolEfl0wrwKIXvgWNIHTIRk0xqqtK3hIVp7QY6TWXVIPWBl68erG16Kr6mEL+K9f6FyDo2C4bK1wKA0AhGHRt8caSx7yJ07GgIkdEw2NtbQheAoaQ/eguLIStSCp6iMvif80XWg0vwcHeHu/tenHpqjx1uizBCtSMhNpPAPP1LzBi/GJ+djYeOw1Z8OEisxS5VaPOtJtvEMJOYI/3LGRi/+DOcjdeBw9YPoTDjHHyzHuCShzvc3d2x99RT2O9ww6IRHSCSOON44Cm4WGTC/8heHA2Vgq98igq1wWphfIUdYWgggK7lcNj0FAHQhcTKHGL0xvAxZhADEFuYo5egGFIpASIJnI8H4pSLBTL9j2Dv0VBI+Uo8reC1aFaTbwBRx44wFBlhmL09LBUiQP/eQhTLikBa+iTs0AG6QmPY2I1Dd5NBsLN/DV1UZRuxGSTm6fhyxngs/uws4nUcsPXDQRArX9dWUClKywlCIxN0VrZHZIlFh05h/aCH+NZpOY6nqrmN+Qxo9mURLh76GZlWQ2Fdu2nS4HU4zJLg8aXT8JEBwo6GMBDownK4DRSSkMDKXAz0Ho4xZmIAYliY94KgWAppgyEqMv0H7IZ3gQiGGLzUAx+NFSA28BYe80J06KALobEN7MZ1h8kgO9i/po9ADXrQjraxqCIPoaV2aNKzpnMq2i66iEM/Z8JqqHXdXlWD1x0wS/IYl077QNbiPFiDwRi4fDgWWce/xNk8HuDS4X1ZB7Pn9m7+V8otzIOa8pVKWtt3reVbCHcfx7wFmLuwP0QA9EYtw6LhHEKO/IiIum+itOlLcz5r8RjSlFdbmbdKfQ/gWOoQTKzvCCwtTFHbk6KLh/BzphWG1icEvO4wC5LHl3DaR6Z+/lRFS9cKEMLIqGP9NhONWtSikyZojlGL+oVnm7//SNT1pJ0Qw2rkCPQQRTd6nZaw2wi8PkC34YXthBzJEZHIp86YO2oI+JJIFD7Vg+2sDdg8ohmu4AqR/7gCsiIpVElJKH6KqP0rsK/LO1i3yhnZ/zuKU1C8vijxdxnwslhtwlVbVg1cYT4eV8hQ1HB21Yigfk8nAL6kQGPfC5Q2FQtEIghA4FU1x5egoPAp9GxnYcPmEc0SlbDPMpy4LsL2jW7YM+809tmswsH/fomZOprtaoI232qzrf8JXBdtx0a3PZh3eh9sVh3Ef7+cCZ2CQjzVs8WsDZvR1IwSPI3ajxX7uuCddavgnP0/HNUUrBbHV9BkT7dAKFB8H1R/AEJQzSEhxE+jsH/FPnR5Zx1WOWfjf7UGadKsNt8UKO3tE4ggEgBUIwJtfWq6L1AFwj5YduI6RNs3wm3PPJzeZ4NVB/+LL2f3Ub6yTZAnRyAyn9B57igM0QWafAdsMh67ft6H+xP+hTX/3I0dw5XOPysCDb7k8pDxqBx8lypUADACaiZ/MwirZJA+4YFuyvssBWgqCSFATaJcj7A7+lqaQPBQjmoAIuUIadODNrSNRaBJHqo91ghNdnAPsFednjVpHWjSNpeXgUflPLpU1XsdYguYmwlRJZPiCQ8YtiQP1iFC30XrMPc/c/HlD7F4Z/YF+L00Hye7KF+nHm35uTE8SjTmq6a0tu/NKa/yA7Yaym8dwqUSIQZvX4XgmmN8j37Q8T2Jg1e34vXpRtr1pUk3AFDa0jGkIa9qyFvan0PlkJn4O2R4GWKVHeGQl/EI5XwXNHavOcyEVZBJnwBq5s/ZfZq23vK1guL5j1pfadNi264Vmt8vQIg+y55l/v7jUBnu9qTjW7vxw5qR6CoWABBA1HkEPvjh35hV+0GvHeELr+KrY9EQDV6GD982gtC4F0wNEuF9+Cbq3/rJIdXnMlQ+IC16CX3MOiDP5wyuFtUe5FHo44lTScW4sm4mthTOxbe7HDGiR22UCRB0QbcuYlTE3UWU0uZQ4nkAperLqkH0Uh+YdciDz5mrqDelED6ep5DUjBtzLe67JoTG6GVqgETvw7jZ4PWpXKoPLqupjMuMw6PeTth/MxHxF7fgtYwDcNlzA9UttUubbzXaVonMuEfo7bQfNxPjcXHLa8g44II9N6ph3MsUBoneONy4EHwux0B2ZR1mbinE3G93wXFEj7qkoT5aLY9viyi9gnUzt6Bw7rfY5TgCjarXpNnfDTX4RpWzG9JGfeIyEfeoN5z230Ri/EVseS0DB1z24EYlAJEYIhWJm6gZAlcFX4irXx1DtGgwln34du081gSx1VIcObEafeO+wNZTj1rao5Yj6oX+/YzBxUfgbt0GbB5VlVUQvjwU1qZtlabLUfD4KfoMG46XVFWpcaxo00MzxmJz0WRHfFf1ek7upv6ciqQo6tUf/Yw5xEfcrd/3zlehskqIl4dao1Vu72SPte+/hvuH/g237+7h1fcmwUD5Gg20LD8LNearJpe3Qd9bW74RfAHO/3gf9t/9BM8ffsAPNX8HT+zGnO55+PXQfxX787XpS5NumjpNO5ryqqa8pRUBunTrAnFFHO427Qh4iNCrfz8Yc/GIqE8I4KsqUSV8GUOtTUFq5k9Vzf+Z1grq1gWq+gVwzzR/t9TktqQlw6JtEJpimkcwUpJC4ecXgqTUMOyfqfQKo1ZBqKpSfpwXkOf4Yc/85ThR8QY+O/YpRukDMJyCJY6WSPN0wMQFbvjR+yyOuy/Hx8GG6KvyU1EnTF0yD71zT+D9d9bie+9fccrjAzh5izG6bylSUvNQmpGEh6UVyAy4iJAcDuXFOYi6k4fpC6ehW+phrNtyCRlVQGX6PcTlc5BmpSNXmqu+bJji4c4mdJqKJfN6I/fE+3hn7ffw/vUUPD5wgrd4NKxEADgOHAh83UTHg+OpfuLT2HceHCcH8Q0WO0SKZMDzAITQ19cDnuQgu6gAYUEpGLPEEZZpnnCYuABuP3rj7HF3LP84GIaqHQku0xufe95DOfRh8dYWfDrXAgZ6+hBotEu5FsVdO42+LRZgilrbBMj0/hye98oBfQu8teVTzLUwgJ6+AIZTlsDRMg2eDhOxwO1HeJ89DvflHyPY0AJlKanIK81A0sNSVGQG4GJIDrjyYuREhSFO1dO/fLGW+HLgOMWkoYgOB55XWqSQIgZ1iz8iEHjwHMAXpyA1rxQZSQ9RWpGJgIshyOHKUZwThbA4kXrNWhlr8I0YPMdBTnzdHW2AQDWa4rX2CSDIUa0tu3GZ8P7cE4oQvIUtn86FhYEe9AWAqIcZeupmIfTaPeTl38flA8dwu1COgsyHeFyi/C6BeqiqqskbPiDPgd+e+Vh+ogJvfHYMn46q/aq2ClXllahstKoWostkd/z8nzfRqbKq8YK7shKVIMirq2uOl+PON4sx7Z9uuKrh9SYafYlOmLbaGUOkZ7HvSJLCdj4X1/0zMWb1KozTA8Dx4EFoKol664gI4PlGD15ReTFkNbNVRexhnEz5P3y6ZhQU3ycSIK9uMAEZatRD+Z1vsHjaP+F2NaeuRCO0jsXypnkIaKEdXTXouYuGc6KmbXeahtXOQyA9uw9HkhSK4XOvwz9zDFavGgc9aMuDmhBj0Iq1mFb9X3wVPwrvabvNJtSHIqVmo6ggDEEpYzTnQaX8rj5f9VXcEKiqQjVVoaqyjfrejPKF13fC4Z+74aflN2zk8Qdx6MlMLBmi5COTt7BkTh+UXvsenjFVzdCXplwvbvEY0phXY5LU5K3m5AMhuk9fiGndUnF43RZcUnQE9+LywUmzkJ5bDJ1pq+E8RIqz+45A4V4eudf9kTlmNVaN01M/fyo3hWdZKwA8x4OoZj7SOCdr0UkL1wot6he4Z5i/a8bDH4Xypu4/NWWJdOPITpphLiaBjimNmPFPWrJ8GTk5TKMJoyeRw4aDFJSttGW+LIFOukwmq856pGvch8asPEZxKp61qqeMEk650GRJdzLqZEY2jh50K58jIo6yzq2mkT2NqHO/8bT8gB/95GROJn2n0echMiJOSuHfOZGteWcysbCh6R/uoGW2ljTK8RM6GpKluaw6yhLolMtkknQ3ok5mNuTocYvyOSJ6mkiXttlTT5GIzGftofNxOZRwcTtN7SUiscUs2nM5qa68qr7LYs7SFrseJNKR0HyPKxSfdIuOrB5NJkIDsl5+iIKyOJInH6V/SjpTV8ks8ggtUfjlpAtNtupMerrG1GfMSjqmwZGVt7fQ6H7D6A2njbTDbROtXOlON3NrHrVRY5daNPo2R4NtlXR7y2jqN+wNctq4g9w2raSV7jep3oyT5DLZijrr6ZJxnzG08lgclRERl3WOVo/sSUad+9H45QfI7ycnMjfpS9M+DyHV0dKkjVxKvLSN7HuKSGQ+i/acD6eEC9tpqpmIxH3n0N6LsZQe9SvtmtGHROK+NNv9fxT9MIK8t71FZiIxWc52J58HD+nc6pHU06gz9Ru/nA74/URO5ibUd9rnpJCPOs3WnFPlG1kMnd1iRz1EOiSZ70FX4pPo1pHVNNpESAbWy+lQUKbaPv3bN4C8Nr9BpiIRmdlvJa+Ix+ofoqq8TVtG96NhbzjRxh1utGnlSnK/WfvQ1RMK2j2F+hgbk5n1XPrc7wptGNGfJizeQSfvPFauiYjKKPHGEdo5w5zEAh0yHTGD/rlkOS1zcqBpE0bTJIcNdDAou+6hGXnGbTr9n4X0qqE5Td9+mK4nKYmMyyefdQtoT2Q1EcnpUbAXfblkKBkKhGRkvZj2nrhNj6qy6OjsnmTSrQeNcYttXL4Wrb7MIqJqSruwlWaMsKaJ81fQv5YuJOcvAyiPI6LSBLqwfSqZicTUd85euhibTlG/7qIZfUQk7jub3P8XTQ8jvGnbW2YkElvSbHcfSq4kKvv9Au1+bwL9Y/xMcvpgNa1YtYsupjwlIo4K73nR5jdMSSQyI/utXhTxWIseiKOso7Opp0k36jHGTamDDdA4FlOU8tD9Z7Cj5pwmPas8V6o6B1an0YWtM2iE9USav+JftHShM30ZkEccNS8PaqaCAtaOoOkHs9Trvw45JR/9J0k6dyXJLA9SpFQ1ebBJfn9CpCFfVafepO9Xj6WuQiH1mLSBPP8bQo/kbdB3DeWJ5JT83VR6qec0+qHJD0rVwlHOre9p2YhO1OHVBfT5uZgG+ZOjosgztGWKKYkgoI6D/0mfXUyiSo360pDrn2UMPc1Sn1fz1eQtrhn5gIiIOJKGf0dOtubU2cSCbKZ/SDuW2ZLlKEf65GgI5XBE1WkXaOuMEWQ9cT6t+NdSWuj8JQXkKbyrcf5URbPXCk+oNOEibZ/ai0RiC5q15zIlVajXYnN00pK1Qsv69Wzz9x+JgBp+vGMwGAxGi6kK2oJVd5fjxzV9lU/9tagKwpZVd/HZj2uUzzCU4TPwg9MedP/aE3Pa7xdTGC8gf5t8wGgRbbeTg8FgMP6G8IXBOHipK95b9BefXPlCBB+8hK7vLVI+w2gAV1oEaQWP0uADuG76Ht5mi+2/FX+bfMBoMewON4PBYDwrvBTRfvHoNGYsLNrkd5BfVHhIo/0Q32kMxv61O9o65DFws/0Hdj3ohJesZuO7KwcwU/GOQsbfgb9NPmA8C2zBzWAwGAxGmyBH+tUfcCquG95cNA823dlim8FgKGALbgaDwWAwGAwGox1hH78ZDAaDwWAwGIx25G+x4OZLUhGbLKv7Ge2y9EhEZ6p6jy+P4rQIBIXEIVfV6T+KsnRERmfiRTLpz456Dbxo8ChJjUWyrE69SI+Mxp/CdAaDwWAwGMBffsHNZeI3DyeMtHwVDgcTFT+swKfh4KJRGL3iOHIbvpeeewjvjc7YezEE5z+xh2TIezjxsBk/w9Tu8Eg7uAijRq/A8UYGM8Cn4+DcARg6/yASm/zSiQbUaeB5UnkLW0cPwPj1vshXYwOX+Rs8nEbC8lUHHExU/CwIn3YQi0aNxorjuXUfIBkMBoPBYLzY/PX3cFfdhusQO1yZ6Y/oz22hW3N3M1k4EEN71z5GzCPvxLsY/vNUxF5eAZPCm9iz9he8vPVbLHlFpFThH0BZOiKThRg4tDfYg8/18Nk/YMaUW3C88hMczVsWp6YaeL5UBW/AmPV6+NJnN8Z1Uj5bT9VtVwyxu4KZ/tH43Fa35g53MoQDh+IPMp3BYDAYDEYL+Wvf4QYAkQlMjBv/MKihubXSQqsKoTeCUGZoDH0Awq52+PTEgRdjsQ0AhuawZovtJpTH83j7mGeLF9tQqYHnCYeM9Jex8fROjYttABCZmKCxfA1hbs0W2wwGg8Fg/Jn4yy645UXJCA8IRGTmU+VTQEUWYhJqvpKvzED41WsITSkG9zgBN3yuIji5pO7S8uxY3PYPxN30kkZf4ZdnxCKxgENFdjTCE4tQt/mkPBuxt/0ReDcdJQ0LlGUgNqkQPKqQFx+M4IR8xRaXhlTlIzHEH/5hyZA22s1SgayYhEbbH+SFDxDmdxP+d1IhU9r5UpYRi6RCHqjKQ3xwMBLym7TUAB4lD+ORWsKDkyYjNDAMycoVAuCkqYi4FYjQxHwo795Q6wsAfE4Urvv6wMf3FhJlPMBl4+5VH/j4XEXow/K665prc8P6Hv3DGf8a/uTZ6muogTqqkJ8YAn//MCQ3DgAADtLUCNwKDEVivrIHVKGpLqDr62PQM+OOmrrkKEoOR0BgJFTLNwYJynthKnIQdzsAQVHpKFa114STIjXiFgJDE6GySQaDwWAwGO3GX3DBXY7Ygwthv/wworKScXGLCzwf1Cx4eCkivTbiTat+GL8zUPEQIlWhrFiGsmqAqstQLJPhSQUHns+B764VcPUMQMydM3AdK8H4rTdQkBuKI2smwUoyBTt+2It3x47GqJFLcKKQR47vLqxw9URAzB2ccR0LyfituFGQh/DjazHJSoKp7l44vNIebzsuxNvDhmCWZ3LN4pRHgf8eLHL6D26k5yPmmxmQ2LjgfI4c0kgvbHzTCv3G70RgBQBwSD25GLZzvkb041wEu9tDMnYnQsoBviAcx9dOgpVkKty9DmOl/dtwXPg2hg2ZBc/kpos+LjMQ3ywfCfNBjvjm1E68Ofx1THljFAZKJsPtdnHNVTKEfuUEh03eiM1IwgXXcRhk7wa/Ah58vjpf1Lch7NIHL+f9hJUzV+BwghwQdUHvHknYv2AGPvLORnULbW51fao0AIAv8MeeRU74z4105Md8gxkSG7icz1EsyGWh+MrJAZu8Y5GRdAGu4wbB3s0PBaoWtq2tqzwWBxfaY/nhKGQlX8QWF0/UyzcSXhvfhFW/8dipEAMAoDjkc8yavh2h1XoovvwBbAf+A5PefBtzdvuhHIAs9Cs4OWyCd2wGki64Ytwge7j5FbA94AwGg8FgPC/oL0ZZ0AZ6re8SOi+tOVB6iZaZ6dArG0KokoiIy6Hv7PTIeN4ZKqsvRT/N1CcTB++aYxzleS2gSZtCFWWIo/R9E0hXx5q2RVYTl76PJup2oCFrrlG+NJ5u+EZTQY4XLZi0iUIVBYhL30cTdHXIelskVctT6IsxumRss4bOp1YSkYx+WdCD9MZ+QSlyIi7nNDlY2dN36RwREVXHfUETuvSixedKiYijnO/sSM94Hp0pIyL5ffrsdQMasTOWqomoOnwzDdYfRtsiq4mISJ7yBY3RNSabNedJ0dQvtKCHHo39IoXktd1tQGXwehqgY0qTt/vSo2qisoRDNNtMRLojdlB0NZH0yvskGbiWAp7WFCgLIteBumQ6/2fK5RT9VPZFoaIbdcgTdtNI/QG0/naNcypv0/oBHWjUv38n+TPY3Or6lDXA5dBpByuy/y6dOCKi6jj6YkIX6rX4HJWSlK68L6GBawOo3gWuNFDXlOb/nKu4viGtqquMgja8Rn2XnKd6+S4jM51XaENIjRJzviM7PWOad6ZGvdWxtOsfHclmV7yib9X36JPX9Kjfan+FdqVX6H3JQFpbH0AKch1Iuqbz6efcJtYzGAwGg8FoB/5id7hL4XvgGFKHTMQkk5pD+pawMG2wx1doBKOOjfd0N6Uc/ud8kfXgEjzc3eHuvhenntpjh9sijOgACDt0gK7QGDZ249DdZBDs7F+DfuA5+GY9wCUPd7i7u2Pvqaew3+GGRSM6AKKO6GgogtEwe9hb6gIwhKR/bwiLZSgiQOrjBV89a9jU/ASw+NX18C/MwrFZhgCEMDLqiDqLRRI4Hw/EKRcLZPofwd6joZDylXhaobhfKerYEYYiIwyzt4eiKQn69xaiWFYEVU/HCjt0gL6oO0bPtIOZGDAY6ISdK4aBYgMQkPcYFw/9jEyrobCu3TNs8DocZknw+NJp+MhU+6JLC1XVUpu1obU+ZQ1IfeDlqwdrm56Kr3zEr2K9fyGyjs2CYdFFHPo5E1ZDrev20Bu87oBZkse4dNoHsvpaFLSmrlJfHDiWiiETJ6FevhZoLF8jNJKvPA2pmVUQCmoOii1h2RvITkvDUwBFFw/h50wrDK0PIF53mAXJ40s47dPEegaDwWAwGO1AC5dGLzhcJhJ/lwEisYaOCSCoXZyogy9BQeFT6A2chQ2bN2Nz7d+mtZgxQAwA9QtgRQGUFBTiqd5AzNrQ4PrNm7B2xgCIIUDjJgUQiQQA8SBwKMx/jApZEaRqVpcCgaBBe0KIn0Zh/wpnHMkeiqXOk2EqbFCw0bUABCIomlJTeRPE6PdqfxiiGpXluch4VA6+qqrBO8DFsDA3g7BKBukTxSJfize102qbldBaX2MNcIX5eFwhQ5GKAHB5GXhUzqOqqsGLr8UWMDcTokomRY0L6mhNXdL0RCjkq169EChpSfd1THvzJSTdvIqHHIDK+0hM7wy76RPQERzyMh6hnK9C4ybNYSasgkz6hG0rYTAYDAbjOaBhZv8TIuiCbl3EqIi7i6jKxqeIb8HSQmiMXqYGSPQ+jJvS+sNcqg8ux6h6mE8I416mMEj0xuHGBeBzOabpw5GNEOGlPmbokOeDM1eL6o7yhT7wPJXU6AFEAEDpFaybuQWFc7/FLscR6KFY/+OZbgXXQaAG7qkurwDfYyAG9+6N/v2MwcVH4G7d84g8qiqrIHx5KKxNmykfkRgiEJTXz0RNetc82rg+0Ut9YNYhDz5nrqIuAnwhfDxPIfml/uhnzCE+4i7qXVCFyiohXh5qDWUXtKauXt26oYu4AnF3o9BYvgS18hV2x6x9B+CkdxNf7doHj8/OocNGH5xYbgERROjVvx+MuXhE1AcQfFUlqoQvY6i16V8sATAYDAaD8WLy15pvhd0xfeE0dEs9jHVbLiGjCqhMv4e4fA7SrHTkFpcD4MHxpLQAr0JVNaGqqrLmjp8hpixxhGWaJxwmLoDbj944e9wdyz8OhmFfxQqXIEd1g5W04ZQlcLRMg6fDRCxw+xHeZ4/DffnHCDbsCzHPgZMTeOLr1sVEig8BPA90mroE83rn4sT772Dt99749ZQHPnDyhni0FUQAeI4HEQ8eAF+cgtS8UmQkPURpRSYCLoYghytHcU4UwuJKwXMc5MQ3uJtLIBB4XlFeJXwB0tNKa/6djQsXYjDYeRUm63fCtNXOGCI9i31HkhRvJ+Fzcd0/E2NWr8I4PUURZV8oI+phhp66WQi9dg95+fdx+cAx3C6UoyDzIR6XVLTY5tbXp6SBTlOxZF5v5J54H++s/R7ev56CxwdO8BaPhlWXaVjtPATSs/twJEnxeg8+9zr8M8dg9apxqHFBPa2oq0P36Vg4rRtSD6/DlksZqEIl0u/FIZ+TIis9Fwr5cuCp4QJciiubtyNz9lfYs8kF63Z+jp0Lh9VtSek0bTWch0hxdt8RKJrkkXvdH5ljVmPVOD2AL8T1nQ74524/NPioyGAwGAwGoy1R3tT9p4eTUvh3TmRr3plMLGxo+oc7aJmtJY1y/ISOhqRQwsXtNLWXiMQWs2jP5SSi6lS6+f1qGttVSMIek2iD538p5JGciMoo4aQLTbbqTHq6xtRnzEo6FldGXOE98tr8BpmKRGRmv5W8Ih7XPThXlnCSXCZbUWc9XTLuM4ZWHoujMpJRzNktZNdDRDqS+eRxJZ6Sbh2h1aNNSGhgTcsPBVEWR1SWcIpcJkuou1EnMrNxJI9b+cQRUWnCRdo+tReJxBY0a89lSirPonOrR1JPo87Ub/xyOuD3EzmZm1DfaZ9TSHoMnd1iRz1EOiSZ70FX4pPo1pHVNNpESAbWy+lQUJaSs4iqIz+lobqmZDtvOX2w7iP64L3Z5PDJRUqve1qxmtIubKUZI6xp4vwV9K+lC8n5ywDK40ijLxrzhIJ2T6E+xsZkZj2XPve7QhtG9KcJi3fQSb/AFtvcuvp+b6oBIqKyBDrlMpkk3Y2ok5kNOXrcovzazlSn0YWtM2iE9USav+JftHShM30ZkKemr62ri5OG03dOtmTe2YQsbKbThzuWka3lKHL85CiFpMTRxe1TqZdITBaz9tDlpAoiLotOv2dOegIQICCBUIf0jXtQ/wnOdOK+4kHL6rQLtHXGCLKeOJ9W/GspLXT+kgLyalqUJ9N3U1+intN+oFRVT6gyGAwGg8FoNX/9X5pkaEQetQ02o85jevBd7LKu3Z/C+NPAZ+GCmydK3nGCNf8Y0uJSlJdKkR19BsdzVsDnmylN78IzGAwGg8F4rvy1tpQwnh1VezcYLzg8sk64YG10X/zfa30xaNhIjJkwGVPenoO59jb4x6t9wT5CMRgMBoPxx8MW3H9z5EVFeMIVo1DKfn7wz4jYpCc6/LYGr09+D2u2umHP7u3Y+P5C/OvXvli5vB9a/qP3DAaDwWAw2hq2peRvTGXydRz7byDSiuUQm1hg4rwlsOurq3wZ4wWnMisMly74Iza7HKLO5hg+ZSb+b0hXtthmMBgMBuMFgS24GQwGg8FgMBiMdoRtKWEwGAwGg8FgMNoRtuBmMBgMBoPBYDDaEbbg/gPhS1IRmyxjLwhpY8rSIxGd2eC3zBnPiTKkR0aDuf6vQWvzk/ZxyKMkNRbJsmdtQTNq2+eLkRYRhJC4XFQ8N80+r3aUqMhC7P28Z45hQ/jiNEQEhSAutxWdKEtHTGJBm9ijEr4EqbHJeHZJtTxOanWmkpbX3+a0q/4rkBV7H3kt8n8b5IE21Hl78tdacJcn4frhnVhqPxZjxozF+DemYY6DA+a8MwcL3v8Y//EKRfaL8DIOLhO/eThhpOWrcDiYqOWn3xktgk/DwUWjMHrFceS+6KPvLwafdhCLRo3GiuO5L3zia3f4dBycOwBD5x9E4ouQc1pCW+QnLeOQy/wNHk4jYfmqAw4mPlMLmlHTPvfQGxud9+JiyHl8Yi/B4FkrMde2/TWrfmxU4tbW0Rgwfj1889vQAl6GyJMfwc7KChN3Byl+JfiZ4fDQeyOc915EyPlPYC8ZgvdOPFS+SDN8PkIPu2CC1QC8+XloK+1RBYfM3zzgNNISrzocxLNKSn2c1KBGZ+pocf1tTPvpn4cs8iQ+srOC1cTdCGpmgFudB9pU588B5V/C+fNTRucX9yBRp3fJq6Tm0NMsCj66hsb20CGT4avobNoL8JN6lUH0kUSPXtkQQorfA2S0FaVp9ygq46ny4T8cLj+C7iS3lfY4yo+4Q21WXZtQSmn3oqhZrufyKeJOMr1Q5rchXNYBenuQI516EXLNs9AG+UnbOKwM+ogkeq/QhpBnbaEhTcdDk/a5XPppdi9662AhEXH0+IYbved8gG7caaZmW4WasVF5m9bbjKKtgTKlE20Al0FfT9Kjzo6/kHKzLYHL/Ylm93qLFG57TDfc3iPnI/eVL9OOPJk+H6NHLy250Cp71FNJQR9JSO+VDfTsklITJw000ZlGWl5/m9Hu+uco4+tJpNfZkX5pQX2tzgNtpPPnwV/rDjcAQAyTTkYQCEQQ1fZOvxdGOX0F34uf4JXfPbHU6WskcErFnjciE5gYC5SPMtoAQ3NrDO2tr3z4D6YMYV9vw7EHz/ApXhVlYfh62zG0VXVtgyHMrYeiOa4vC/sa2449eLa7p38CyuN5vH3ME47mf9KXM7ZBftI2DkUmJmhlE/WoGA9N2q8KxY2gMhga6wMQoqvdpzhxwBl2Ns3TbOtQPTa4jHS8vPE0do7r1PhEWyA0hpFh6x1cFXoDQWWGULitK+w+PYEDS15Rvkw7IqM2sUc9IpiYGKN1LaiOkyaa6EwjLa+/zWh3/QthbGTYYv+3Og+0kc6fB3/MgrsiDf7HvsCOHXtx5LdUlCufbycMR7pih+PLKL31Fb6+0bDVcmTH3oZ/4F2klzTni5Uq5CeGwN8/DMlSpZW7vBAPwvxw0/8OUmVNV/XyomSEBwQiMvOp8imtZZtQnoHYxAJwFdmIDk9EUV0Rdf3hIUsJQ8CtKGQUFyI7p6zBOXVlgPKMWCQWcKjIjkZ4QgriAn3h4+MDHx9fBCUVgwdQknwbV3184BuUVLN/To7CB2Hwu+mPO6kyNKM3GmzQZLcKKrIQk9DgK7LyTMTczwMPDrLUCARHZqC2hqq8BAQHRSO74R42vgQP41NRwnOQJociMCwZTcPBQZoagVuBoUjMV/4iqxwZsYko4CqQHR2OxMe5CN2/GO95hCMt6hp8/eJQUGOcvPABwvxuwv9OqlIbZciITUIhD1TlxSM4OAH5NYsJviAU+xe/B4/wNERd84VfXP2eyPLsWNz2D8Td9BLtXxG2WD8AUIGcuNsICIpCerHyOaAiKwYJDb5b5WUpCAu4haiMYhRm56AMPApC92Pxex4IT4vCNV8/xBXwTX1Wa4yGMdFIl4lF6jXGy5ASFoBbURkoLsxGThmPnKjr8PXxge+tRMh4gMu+i6s+PvC5GoqHWhJSWUYskhSBQXxwMBJqAsPnROG6rw98fG/h0T+c8a/hT3D3qg98fK4itEGl5ZkxuJ/HA5wMqRHBiMyoUyPyEoIRFJ2NJlsqy7MRe9sfgXfT0SgkamMIcNJURNwKRGhifrO/atWYn1qqL+VxCACQoyg5HAGBkVDdhDrtPcN4aNB+ZUY4rl4LRUoxh8cJN+BzNRjJJYryypoFAFTlIzHEH/5hyWic4rXkNbXl1LTT9XWM6ZmBOypipE5nzUcIgYp1iPqco0wlMsKv4lpoCoq5x0i44YOrwcmocZtmLaj0g6CBPVXIjbuN4IR8pQ/dWvyrCnkRksMDEBiZCdWSUjN21KAcJ61xUKlz9WsE5frRkrHKFyLev3b+vYqwNEVeKU8LU8y//vEoVNHHluhfa381xEioSnAqedY8oIrW6vz58fwX3GXh+Mx+BOyWbsTOnZuwbIoNprgFo1T5unbBEGOnjEYnykGQXxwAgM/xxa4VrvAMiMGdM64YKxmPrTcKmyaQGvgCf+xZ5IT/3EhHfsw3mCGxgcv5HPAAuNSTWGw7B19HP0ZusDvsJWOxM6R2oi1H7MGFsF9+GFFZybi4xQWeD+pVoLmsEnw+Qo+swSQrCabs+AF73x2L0aNGYsmJQg39qULMfie4nM6EvCIBRxbY4t0f0yDX4AN5fiiOrJkEK8kU7PhhL94dOxqjbNfgt4pEfL9sOmbuuQeTXoYQAjB4qSPC93kgQtwFBpSKk4ttMefraDzODYa7vQRjd4Zo/GClzgZNdjeBlyLSayPetOqH8TsDUcEXIeKkK96Q9MeEHd44u30B5jstxZxRA2Hr6ouIE6swbfYSvD/XFgPHbUdIOYfMwG+wfKQ5Bjl+g1M738Tw16fgjVEDIZnshtvFNe3IQvGVkwM2ecciI+kCXMcNgr2bHwp4HvmhR7BmkhUkU3bgh73vYuzoUfjHwoN42KEzOvI8KstkkBWXQw4OqScXw3bO14h+nItgd3tIxu5ESDmPgvDjWDvJCpKp7vA6vBL2bzti4dvDMGSWJ5I5HrLsQnTo3BE8X4kymQzF5XKAz4HvrhVw9QxAzJ0zcB0rwfitN1Qm32fTD4DiEHw+azq2h1ZDr/gyPrAdiH9MehNvz9mNm1mR8Nr4Jqz6jf9/9s47LKpra+MvM0MXBBOJSBREHIOxEbj2gqLhJsEWoxiIirGEa4IlamyJIhai+dTEFEUjamyRXOO1gi0UEUFRkCYYRYp0hxmkw5yzvj+GMkwFBVvO73l4Hj3n7LLWevfae87scwbrImTLxZqEHfDyOYJsaRVSAj0x6KNfkVEjQa7IEObtWLDV5ZBIxHgYo+yzAbMOolDNmGBV6XLALBwUKRoKoCYBO7x8cCRbiqqUQHgO+gi/ZrDo0PVNFPw2DxPm7kWKFOB36AKLtB3wHP8lgnJVZ2e26DoOLBoFO+F78D+6F/NcP4DH9A/Qv89EBNxjwOvQFW8W/IZ5E+Zir6xSdLFIww7P8fgyKBe1xbE4tGQMhD1GwjfoONZ6ToPXp5Mx2H4QloTE4uB8N0ya9RmmDLLH8LX144VFXsh6zF0SgPCEGzi2ZBiEI1bjUlG+2hgCEkR/7wX3FUFIzErDqSXD0cvVD6H1n/JUojk/tUxfCuOw/nhFInZPd8WcvfHIuXcaq3wC0LQJVdorQkFLx0PZI6X2qaYcJZJy1IJQW14CieQxKkQ3lTQLsCgK24gZXv+HS5mFSPhxPIROPjiZxwKMprymvhwrVh4bmmKkTWdPjrqco3hdPYSa8hJIymsBqkV5iQSSx1VgpJq0oN4PDdQ8wO+Lp8LTex4mOPTBpD33ZYs2jf5VTUXibkx3nYO98Tm4d3oVfALuyi0A1YwdlaKFUpy0xkGNztWtEaQt1IFKeIZoV34R30x1g8fODFh0lN2aNniNj6sbVuFMuRnaqVjVNUf/Wu3Fk8VIiSfKA+rXZMq0VOfPEMU9Jm0LQ/m/upGJDgho/NMxfpd+ecgoXvyEVFP4gu4kMHOnoHLFc0TVEYuoh4BHlrPPEDEFdNRzFK2Irts7xGTS9pF6pOuwhuJqFUsSEZNHR9ztyPXnTGKIiGqT6LuRHajzzBNURlK6s2kgGTmuo8RaIqq9Tit7G1D/NXFUS0Tlkcuor+0sOimuq6vsDM220q3bI6m5rEqYTNrurEeGfRbShUIxJV8KodtFeertKY+ipb370/Jo2S4nJv8wbfgxmWq1+IDJ3E7OeobUZ+EFKhQn06WQ2yRiailx/b/I0GoWnazbesjk7qPPlwVTKRFJ72yigUaOtE5mDF1f2ZsM+qvxKZHmOKjrd9MaGmHy6GcXfTKdeozKiYiYXPrJRZ+MBq2k8DwpEVXTrW/6k277wbT8wkOqJaLauG+ov74t+YRWEVE1RS3tSbqWo2ltyEOqpXJK2TOJrPh65Oh7m2pJTOc+E5L9ovCG/WLlkUvIXs+Spv2eTwwxlLndmfQM+9DCC4UkTr5EIbdFVJv7E7kYWNGcc1WyQtI7tGmgETmuS5T14fpK6m3Qn9bE1RKRlO5/N5T0TJ1o4cl0qiYiyX89yUJ/GH13X0pEDOX+5EIGVnNIVh1DBUc9adSK6Lr9tgxlbh9JeroOdfWpoKX6qZXFvJ3TekqWEhHV0q2v+5J+9wUUVn953s/kom9KU4+V1/mxN/VfHi3zE5NPhzf8SMm19TExIKs550jmDVU+K6RkDWNCtS4brGugOmop9e6/nGTyYSj/8Ab6MVnm45QNA8ig51K6Wtf/6qtLqafhYPr2b/X7rqX3v6OheqbktPAkpcsCQ54W+jTsu/skJSJpygYaYNCTljZWSkt7GtLgb/8mKRExuT+Ri74RDVoZTjI53qJv+utS+8HL6cJD2XiJ+6Y/6dv6UGgVEVNwlDxHraDGkGynkXq65LAmjmpVxVDEkPjcZyS0X0ThjQKlJfZ6ZDntd8pX4SPSmp+eRF8K45DKKXJZX7KddZIam5hNVrp1ezc15YDalo4HVe0TUflvNMHAjNzlJoammiVi8o6Qu50r/Zwpc1Rt0nc0skNnmnmiTGNe01ROVTvaYqRNZ83jMe0bZ9C4t1VjzlFP+W8TyKBhPtWsBc1+KKRdrgZkMng1hRcyRFRK/5tpSQYjt1EG8wTzRnkkLetrS7MaRUtnZluRbt0ebo1jR74eORTjpDUOijrTuEZQrl+bDlRTTuGLhKRvv4yi6vTO5B+g6dN2UZbaMs3TvzZ7tcXo8b5xZKBxD/fT5AH5euRpHZ0/C1R8FmpLWORlZqNK4bctqTobGQ9V3rNsdaisDBXEg4mZOVARhhMhObh7Ziv8/f3hv/kwKl194TfDEYaKBQFAHIyjIfpwcOok+2pA8DaWhomQs38ijMGH0PsAIg77wCY7DIGb9yFazKK6sgosyhCycz/S+zhjlFldXQbdYGNZv79TU1k18AxhqMeDqZMLhnc0Qy8XV/Q1iFBvj8AKQutMbBs/AjM3HUeyrjtWf9ELAi0+4BkaQo9nCieX4eho1gsurn3RgSdAr9neGFNxAgFBOWDB4O7RGLwxdTTaAeALvXEg4jB8bLIRFrgZ+6LFYKsrUaXOGE19UNdvxTrq4ZnApJ3c90u8djA20oFet3fg1IkPQA9CO2sI0AXvDLWCAIDAxhqddUogFhMAHgwNDcDvOAQTXKwggBHsvdZhbn9CYng4Ch6dxp7fs2HXzwH1296MBrpjovARzhwJhgQ8GBrqgWfqBJfhHWHWywWufTsof5XEF8L7QAQO+9ggOywQm/dFQ8xWo7KKBcBHu3bG4Jv0h6trN+gBMBb2QBdeCSTFqn4YtgJhJ0KQc/cMtvr7w99/Mw5XusLXbwYcVQr5CfQDKTLSs1HD06nboydAt25dgNwMZNR9JcgzMUGj6wWwElojc9t4jJi5CceTdeG++gv0Uhk4VT7riLc0jAnVulSsFxBYCWGduQ3jR8zEpuPJ0HVfjS9Ud6JZ8Nu1gzHfBP1dXdFNFhj06MJDiaQYqiKjCK+dMYx09NDtHSfI5CiEnbUA6PIOhloJAAhgY90ZOiViiAmoCDuBkJy7OLPVH/7+/th8uBKuvn6Y4WioOoYdJDi953dk2/WDQ6NA4T5RiEdnjiBYotAhANCan55EXwrjsCwEO/eno4/zKDQ2YYPGJjTkgBaPBxXtq6GpZgFx8FGE6DvAqZNMTIK3lyJMlIP9E4015jVN5ZTbKdYao6fVmUo05pzmolkL2vwAAEZvDcSAjjwABuja1QKQiCFmWz5vlIXsxP70PnBuFC262ViiUVIaxo4aFPWgNQ6KOtO4RlCsX7sOVGOEoT5fYFjOAWw7LtsqmRl0FrqTpqCLihyoiZba29IYKfFUeaCZtIrO24YWhudpEcBugCMsFJ4j4r3uiIE99ZoebBOkuBcbh0Iyh9PgPmBLiyCq1If9xGVYuXJlw9+KRePRU8WczIgK8ahKgmKx6pTHE1QifsdceAfmot+n3hhtyZMNSiYbqX9LAL5ArcPVltWEwnyi0R69rph98CJ2uZsgfONUvNNzCBaeyEKtpjJ1PlA1bfEsp8J7sglCA/Yiqfw6fr/fG54OdTHkCVAZvwNzvQOR2+9TeI+2BE+DMU/Sb/VfrOpAp8mGLvl9g3VHeDqy71YaD4AHUu9vQXe83cMYqK1GRX4WHlawqKmR22UrsIG1FQ81EjEes1DjMUV4EFTGY8dcbwTm9sOn3qNhKeekpjYAOnw+dEBgVXWSLUWRqBL69hOxTM5/K1cswnhVQq6nJfoR6GGg27t4I+0yzj9gAFTjTmomzF3GYWS7+vrkfc1D19kHcXGXO0zCN2LqOz0xZOEJZKkNnLLPtI0J5RLK8LrOxsGLu+BuEo6NU99BzyELcUJ9J7SjU/+Bo/7/fPB1AFIZGBUolocOlOXIA4gAsCgtEqFS3x4Tl8nFdeUKLBrfU/ahU9EJTAGyHlaAramR2wcugI21FXg1EohlAm2Ktvz0RPpqOg6Z7FTImlDZghbttXA8AErtq6WJZhmICh+hSlIMlSlebV7TUg4K7TQnRoo6aanOVKI55zQLjVrQ0e4HBfg8PsBIUQtN/lUFg+zUvyEBH6ol1Yyxo4omelAxXpXioKBzLWuEFutADXzbGVg8xQBnt+1CYlUyDoW+gWluHRQv005L7W1RjJR52jzQPFpB522EaqvbkHbvb8CuhQPwmkAHgA745o74fNe3mFj/cacNYUXn8f3+2+D3no0vPjABz7QzLI1SEbT3MsQNVzFIDz6LBBU33PlvdIWVYQGCj51Hcf1BVoTggMNIY8pwbvEErBJNwU/rPeBoUa8OAnQ64PUOAlQl3UR8dWN9AEAsC0BD2Rag0Z7qbCQ97AKvHZeRmnwaq/pmYafPRvylr6GMCh800g7ventBmLwP2/yOomTkNNjWfZAqO7cYE1aJMOWn9fBwtGhIbuqseZJ+X1LwY6tDJPftQi0qqlhY2PdGly490N2UQXLszcZ9a2wNqmt4eLOfAyybO6LKzmHxhFUQTfkJ6z0c8YQhl8EzRWdLI6QG7cXlRgeCSQ/GWc1BbILGOEh56DhxO3Z66ePy9+uxfesmnDD8CsEH58BG5Ys4GGQnPUQXrx24nJqM06v6ImunDzY2O3CtMyaY7CQ87OKFHZdTkXx6Ffpm7YTPxkuoBsAX8AFiFWok0FOsx8EXgK9iIUhPVCkPpp0tYZQahL1NA4vgswmqn2Pgd0aP7qZgkmNxs1GgqKmuAe/NfnBQJVBt+akV9KXT4XV0EFQh6WY8mjZBkDWhSXtNCrQhfLzR1QqGBcE4dr4hw4MVBSPgcBpK1OY1zeWUIv8kMWoNWiPnaNQCtcwPCrRs3tBBh9c7QFCVhJvKogX7JGOnFdC8Rmh67dPpoD1cF32Gvnf24Fu/n3Hr7U8wykjxmtanZTFS5pnkgdbQeRuhKaJtA88SblujcD8tGqGh15CWHoMdE6xasSOEmhrl53yleaHYOG0ODlaNwab932CwAQDjsZjl0Q0ZAe5w9vTDr0HHccB/DpZHGcNW1aep9u9h1tQuyD/4GT5c9AuC/jyMrZ97IUgwBHY6JbifXoCyrDQ8KKtCdvhpXMtjUFGSh/gbBRg33Q2vp+/F4lVnkFUDVGfeQlIhA3FOJvLF+erLxsge7lQJAdJaORVqskcnG0FbAnCrAjCweR+rvpkCGyN9GLTTUKbOBwQp5JupR+AwG/OGi3DkOGGc22t1R1mU3E9HQVkW0h6UoSo7HKev5YGpKEFefAySVD0d+yT9VnvzigXDUt0HGQBgwLL1H2zqIAAkd0ebCAQWrPyDG0WZyKjrK5t7CqcSesN7/mgYtHfDAu8+EB/fjsA0mc7Y/IsIyx6KBfOHQ19WISCtbZLUeQYG0Mdj5OUWoygmEvH595FeUIastAcoq8pG+OlryGMqUJIXj5ikx2AYKYiVW7gRySYSlgXAg4GBPvA4D7nFRYiJvI+hszzQLSMA7s6e8Ps1CMcP+GPO8igYqxRyHS3RjwAQn1uJtdmT8P3GFfBZvA5b1k1Hf/kPyiwDlmSJE2CQHbQFAbLA4f1V32CKjRH0DXQAngFk3c9FcVEMIhMqlH3GahhPdWNCnS7lYbKDsCXgFipgAJv3V+GbKTYw0jeADviwsOoEvZxoXLhVgMI7Z7Fz/1WIpEXIfvAIpUqvCZHBMgykxMrd4SIQCCzLggXAt7BCJ70cRF+4hYLCOzi7cz+uiqQoyn6AR6VVAMOCrZtc6pHJsXE2ICKAZcEAMB47Cx7dMhDg7gxPv18RdPwA/OcsR5SxrWyyU4wh2sNtgTf6iI9je2Ca7I0HbD4uhmVj6IL5GC4TaFN4HTXnpxIdjG2xvpqOQ17HcZju9jrS9y7GqjNZqEE1Mm8loZARIyczHyU6mrTHtnA8JKBCKQ8AqKlBLdWgplruWBPNAu3fm4WpXfJx8LMPseiXIPx5eCs+9wqCYIgtyjTktezh6srZybY4NGlHe4y06azixo+Y6fYx/M7nNZiiDAOGkeU+FgBboinnqErMMmpqakE1NZC5zVijFtT7zw58lq3LxQorH1YWx5bNGzx0HDcdbq+nY+/iVTgjEy1uJRWCEecgM78EOtrGjioU9KAtDoo617hG4CvWr10HmhD0motFbrX44/tkDP7EUb1N9TRD/5rt1R4jRia4JvlNnqfLA4q11dM6On8mKG7qfqkpT6VLgetovLWAdHQtyXH8xzRrzmzycnejkUNGkfuy3RSZq7BxvjyFDvmMJjtzfdIz7UpD5+2nJBUPWzZQnkKHfUaTsKMJtbdyIo+tV6iQISJiKOfEAhrQyYTMu4+gOTtD6TcvazKzdaMt1yREjJiu/+xFg6zNyczGicZ94UuzB3WjwR5f075rOZrLKsKI6NbRlTTGkk98K1dafTSWHtU/LKHOnuqrtGpId+o/xou+8vWjFfPmkf/lfNmDHWrKMKJbdHTlGLLk88nKdTUdjX0ku14O8Z+zyc3vdpOHUJicE7RgQCcyMe9OI+bspNDfvMjazJbctlwjFdbIUNMHjf1WooxSTq+l9zrzSWAzkTaejaOUU2vpPSs+CWwn0+bTiZQZ/yetH9+V+AJbmuT/P7r9IJaC1rxPVnwBdZvkT8H3yinum36kZzmIps75nBZ/+Tl9Msmdvj6d2fiwUm0GnVo9nhwdnGna3P/Qp9O9aVt4ATHEkOjWUVo5xpL4fCtyXX2UYusDI71H+z4WkvlrQpq4NZpKmRw6sWAAdTIxp+4j5tDO0N/Iy9qMbN220MWrx2mViwXxdYU0bes5Sk67QoELhpAZz4gc5uyhyByGpPf20cdCc3pNOJG2RpcSUTmlHPKh0XbmpK9nSl2HzqP96oT8JPohhnKOfELW+joEgHR0eKRrYEoWPUaS98E7VF2WQqfXvked+QKymbiRzqY9pqurhlD3/mPI6ytf8lsxj+b5X657EEhK9/Z9TELz10g48Ts6H6nKZ+rH07ch4Vp1WU/11VU0pHt/GuP1Ffn6raB58/zpcv3TSI8jacPYrmRqakUOU7ZQ6Lll5NhjJM30PUQ3GhwihySBjq9yIQu+LgmnbaVzyWl0JXABDTHjkZHDHNoTmUNEjylyw1jqampKVg5TaEvoOVrm2INGzvSlQxFRdGrte2TFF5Dt5M10OjGT4v9cT+O78klgO4n8/3ebHsQG0Zr3rYgv6EaT/IPpXjVRecoh8hltR+b6emTadSjN259E5ZpiSLWUcWo1jXd0IOdpc+k/n04n723hVKDCpAY05qe8lulLaRymERERI75OP3sNImtzM7JxGkdf+M6mQd0Gk8fX++haHqNWe5KElo6HfKX2a9Mv0y8LhtFrPB5ZjFpGAX9co4clipqVPYFWnnKYfEYLqaNJe7Jy8qCtVwqJaUZeU1eOlMZGleYYadVZNuXsm0SdzF4ni6F+TV3fQCWlnllDrp34xLeeSBtPJhFpyDmqphmiWkq//AstGPYa8XgWNGpZAP1x7SFJtWhBtR8kdPuP5TTKgk+6Qnf67kwSpUbspYVDzYhv7EifBUZTbrZm/yrDkPj6z+Q1yJrMzWzIadwX5Dt7EHUb7EFf77tGMkmpGDuK1dSjGKfYWC1x+FtJZ0Qa1giK9WvTQTOoCl9EjuN2U46W65ulf6325mgcA/mpZ2iNayfi861p4saTlPRYsRcynjQPqKY1dP7s0CH5WyscHP94pIhf44TBJ8ch6uZ6OKj9VP1Pg0XOKT8ElH4ILwcWj8QlKKsogzj3No4dyMPc4B8xVssdGQ4OjlakJhKr5t/Epl8XKp7h+EfAImuXFzZ2/AEBk80VT3K8gLTeTg4OjlcMNd+K/SNhcw7CZ9Ft2P67L2x79ceAoSMxeuwHmDzFFU7/elvD130cHBytDitC1O4zeO2TGYpnOF51mDIUi6vAlkVh50VLfPIBt9h+WeAW3BwcTZCiuPgxmBIRxMqPAvxzEZihk+FfWDhwND5ZuBp+Gzdg7VefYfp//oTtvDnorvLBSQ4OjtaHhTgxHqybL5Y4c4utfxZSJGx0hqWFBTq9tQDFMxZjaKv8LDvHs4DbUsLB0UA17l3cjz8iMlAiFcDMxhlTZ7nA9lm8sfJloDoHMWdOISwxFxV8c1i/MxYT/t0Hr3GLbQ4ODo5ngjTzPHYdTsLr787AVKeO3F3Tlwhuwc3BwcHBwcHBwcHRhnAfjjg4ODg4ODg4ODjaEG7BzcHBwcHBwcHBwdGGcAvuV4WqHCTeKXhh3qxRnhmH29lqfj3kBaEqJxF3Cl4Uj3FwcHBwcHC8qnAL7pcdVoK4Q1/Cxc4OzhsiZb9W9bxhM7B7xmAMmXsA+S/gepaVxOHQly6ws3PGhsgXwmMcHBwcHBwcrzDcgvtlh2cGB4/FmCCU+6ny5w3PBvN+u4aoPTPR6YkVxqLoZizuy/3cujbYopuIbUYBnpkDPBZPgJB7XpiDg4ODg4PjGfDEyyGOFwieKUyMdRSPPleMrR3Qr8tTvCC0PAY/rNmPu1LFE+ooR8wPa7C/mQV4piZ4wVzGwcHBwcHB8YrySi64K7ISkVrEoCr3Nq6nFqPhnmdFLhKvhiHiZiZK5bc6sBLcjwnHlfgslIhykVcudw4VyE28irCIm8hsUqgCWYmpKGKqkHv7OlLuJyEiJBjBwcEIDolEWgkLoBT3rp5HcHAIItMksmJSEe7GhOJy2A2kS7TfjVWkIjcRV8MicDOzVG6/Ng862haPbCkeJKejlGUgvheNiJh7aNp8U3tSixtPqm5TRk1hKq6FhSHmnrjRz5DtKU9IyVe4noE4PRZXIqKRWqh+KwdbFI0dMz/B1usZiL8QgtCkooZ6GHE6Yq9EIDq1sHH7DFuE6B0z8cnW68iIv4CQ0CQUsQAghehuDEIvh+FGuqRp/3g60OYyDg4ODg4ODo7W4JVacLOF0QhcOAp2wrHw3bUZHw0bgsEDZuGgiEVeyHrMXRKA8IQbOLZkGIQjVuOSiAVqErDDywdHsqWoSgmE56CP8GuG7C4pmxeC9XOXICA8ATeOLcEw4QisvlSE/OhALBxlB+FYX+za/BGGDRmMQQv/QlXqL5g9bgI23jJDZ2MeACO80e46tm+NhaCDEZj0Q5g5aDJ+uP0I+VH+cBUOw7prFYpmqIbNQ8j6uVgSEI6EG8ewZJgQI1ZfgkhxBawEg+yIHzFngDV6efyIw+vexTsDx2LMYHsIR/vhagmLQhX2DJh1ECJNbbJFCNs4A17/dwmZhQn4cbwQTj4nkScVI+7oV3jXrjtGrItAw2OTkmh87+WOFUGJyEo7hSXDe8HVL7RuYSwPC0muCIbm7cCy1SiXSFBSIQUgQfT3XnBfEYTErDScWjIcvVz9EFrEgpXkQmRojnYsi+pyCSQlFZAy6Tg0cxAm/3Abj/Kj4O8qxLB119BMb3NwcHBwcHBwtB70isFkbidnPUPqs/ACFYqT6VLIbSrKO0qeo1ZQdHXjNSP1dMlhTRyVRy2l3v2XU3QlERFD+Yc30I/JtURMAR31HEUrGgvR9pF6pOuwhuJqGcrc7kx6hn1o4YVCEidfopDbImJqE2n9vwzJatZJksgKUe6+z2lZcCkRSenOpoFk5LiOEmuJqPY6rextQP3XxFFtY/fVwFDBUU8atSKaZL1hKHP7SNLTdaA1cbVE9Jj2jTMgc4//UqViUSIiqqaopT1J13I0rQ15SLVUTil7JpEVX48cfW9TLamyp4jy1LZZTXlH3MnO9WfKZIiIainpu5HUofNMOlFGREwe/eyiT6ZTj1E5ERGJ6dxnQrJfFN7Qv/LIJWSvZ0nTfs8nprGjdTCU+5MLGVjNoXNVsiPic5+R0H4RhTdWQEvs9chy2u+UzxAxuT+Ri4EVzakrIL2ziQYaOdI6mbPp+sreZNB/DcXVO/vxPhpnYE4e/1XtMQ4ODg4ODg6O1uKVusMNADxDQ+jxTOHkMhwdzXrBxbUvDCJOICTnLs5s9Ye/vz82H66Eq68fZjgaQmAlhHXmNowfMRObjidD1301vuglACrCcCIkB3fPbIW/vz/8Nx9Gpasv/GY4whA8GBrqgWfqBJfhHWHWywWufTuAJ+iF2d5jUHEiAEE5LMDcxdGYNzB1dDsAfAi9DyDisA9sssMQuHkfosUsqiurlLZpKFOBsBMhyLl7Blv9/eHvvxmHK13h6zcDjoaK16qCB0NDA/A7DsEEFysIYAR7r3WY25+QGB6OAlaVPQaIUNumGMFHQ6Dv4FT3UKQAby8NgyhnPyYaA+CZwKSd3IaN4tPY83s27Po5oH5Xt9FAd0wUPsKZI8Go22yjgWKc3vM7su36waGxArhPFOLRmSMIVlEBX+iNAxGH4WOTjbDAzdgXLQZbXYkq7c7m4ODg4ODg4GhVXrkFNwCFvbksSotEqNS3x8RlK7FyZf3fCiwa3xN6XWfj4MVdcDcJx8ap76DnkIU4kcWALS2CqFIf9hOXyZVZiRWLxqOnQLkVGTxYTvXGZJNQBOxNQvn133G/tycc9OrOCioRv2MuvANz0e9Tb4y25DXvzSJsKYpEldC3n4hlcn1ZuWIRxss603IE3fF2D2OgthrVBGV7NLVpV4LCR1WQFIvV9F8HOnKbypmCLDysYFFTI/deboENrK14qJGI8VjbIpgpQNbDCrA1NY1bVCCAjbUVeDUSiFVVwBOgMn4H5noHIrffp/AebQme6s5ycHBwcHBwcLQpr+SCuyk8mHa2hFFqEPZeFjceZtIRfDYB1dlJeNjFCzsupyL59Cr0zdoJn42XUGvaGZZGqQjaexmNpRikB59FgqYXYbR7F95eQiTv2wa/oyUYOc0WfABAGc4tnoBVoin4ab0HHC3qF8rNWAXyTNHZ0gipQXvR1IRgnNXYGQWI5O6m16KiioWFfW90lnWwKZraTH4NXa0MURB8DOeL68+wEAUH4HCa8oOg/M490N2UQXLszcY91GwNqmt4eLOfAyy1qZDfGT26m4JJjsXNxgpQU10D3pv94KCigrJzizFhlQhTfloPD0cLtMDbHBwcHBwcHBytivJK5RWAIEWt3DrUeOwseHTLQIC7Mzz9fkXQ8QPwn7McUca20MkOwpaAW6iAAWzeX4VvptjASN8AOsZjMcujGzIC3OHs6Ydfg47jgP8cLI8yhq1A1gqktVBe7grgMHsehouO4DiNg9trdYfZEtxPL0BZVhoelFUhO/w0ruUxqCjJQ3xMEipu/IiZbh/D73yeQn0AYIyxszzQLSMA7s6e8Ps1CMcP+GPO8igY2woAMGAYgFhW4/YUtigTGWV1/849hVMJveE9f3TdNg9FezS1+RremzUVXfIP4rMPF+GXoD9xeOvn8AoSYIgdHwALhiUQW9eb9m5Y4N0H4uPbEZgme7cIm38RYdlDsWD+cOg3tFkPDwYG+sDjPOQWFyEmMhOjF3ijj/g4tgemyd5OwubjYlg2hi6Yj+H6AM/AAPp4jLzcYhTFRODanXQUlGUh7UEZqrLDcfpaHpiKEuTFxyCpDADDgAGBresjK7qIde4fY0Oo3KcLDg4ODg4ODo7WQHFT98sMI7pFR1eOIUs+n6xcV9PR2EcND+SVpxwin9F2ZK6vR6Zdh9K8/UlUTkTVV1fRkO79aYzXV+Trt4LmzfOny/l1pcpT6JDPaLIz1yc90640dN5+SipnSHTrKK0cY0l8vhW5rj5KsY8UH/sT05+z3cjvtvzjkAzlnFhAAzqZkHn3ETRnZyj95mVNZrZutOVaMeXsm0SdzF4ni6F+cmXkKaeUQz402s6c9PVMqevQebQ/qZyIKin1zBpy7cQnvvVE2ngySbEgEdVS3Df9SM9yEE2d8zkt/vJz+mSSO319OpOkpMkedW3WnTvsQ6OFHcmkvRU5eWylK4UMEZVRyum19F5nPglsJtLGs2l1XcigU6vHk6ODM02b+x/6dLo3bQsvUPHApAzpvX30sdCcXhNOpK3RpURUSxmnVtN4RwdynjaX/vPpdPLeFk4F9RVI79G+j4Vk/pqQJm6NppKcE7RgQCcyMe9OI+bspNDfvMjazJbctlwjSWUqnVnjSp34fLKeuJFOJj0m6b2f6b03OpHbrnSFnnBwcHBwcHBwPB06RNzP7b0w1ERi1fyb2PTrQsUzT4kU8WucMPjkOETdXA+HJ9z2zcHBwcHBwcHB0XJeyS0lLyWsCFG7z+C1T2YonmlVNG054eDg4ODg4ODgaH24BfcLAQtxYjxYN18scTZXPNkKSFFc/BhMiQhi9T/wyMHBwcHBwcHB0QZwW0peeapx7+J+/BGRgRKpAGY2zpg6ywW2da8q5ODg4ODg4ODgaFu4BTcHBwcHBwcHBwdHG8JtKeHg4ODg4ODg4OBoQ7gFNwcHBwcHBwcHB0cbwi24nxNsaToS70lerLeGlGciIbXoxerTM6ccmXG3kS33K/RtTVVOIu4U/JO9XoWcxDt4Ji6oykHinYLnqvEWjf1n3N+21eIzjLMW2tbOfyBsKdIT70HyQrm0HJkJqShqqz6VZyLudjae4VTxitAGc+wLqT9lXq0Fd0UaLu5dh09dh2Ho0GEYMcYNk93dMfnDyfD8bDn+72g0cp/3WzqYbPy11QsDur0N992pKn6p8jnAFiJ6rw9G2vXEu1uiZb/k+A+FzdiNGYOHYO6B/DZf5LCSOBz60gV2ds7YEPkyeb0E//tPP9i/txHRpYrnWgILSdwhfOliBzvnDWhTF7ASxB36Ei52dnDeEPl8NN6Ssf+M+9u2WnyGcdZC29r5ssCgOOkkti+bh9lzPsMXi77Eyi1HEf3gNg4cCEW14uUaYZD911Z4DeiGt913I1WjqJ8VLAqj98JnpB16vrsF0W0SZhYZu2dg8JC5OJDf1jPFq0XrzrEvov40oPhLOC8/5XRypgXx239ER0vrDlXmUNS+hTTMQpfM3plPxzOkCmWeMdWR9KVQn95ado2qFc89L6T3aMtQfXpj1imqVDz3j6KMMm7FU9YzcgKT9QON0jcnj/8+owa1wBTG0o17WsZH6Qma+bYrfZ/QGn1mKOuHUaRv7kFt7gImi34YpU/mHv99fhpvydh/xv1tWy0+wzhroW3tfMFh8ujCamfq1vtj2hGeRVV1h8v+PkVfj3qDDN/dSQUKRbRTTZFfCkn/rWV0TauonxVSurdlKOm/MYtOtVKYlXJjWQbdis96JmPz1aK159gXUX+qebXucAMABDBrbwIdHT749dYZdMZgr+8RcvprvPV3AD71+gEpjEKxZwnfDGamOopHny98E5gYv2B9ei4Yw9qhH7oYKB5vG3imJnhx3F6OmB/WYP9dzbcJalJEeOeHg/Dp0xpO4sHUxBjPxAU80+ev8ZaM/Wfc37bV4jOMsxba1s4XGSlSdnjC/YdqzD2yHz4jukC/7oyx3TisOxaAT8weQ9ziuZEPMzPTFyK2jfBh0qp6U5Ebja3h0K8LWiML/rNo7Tn2RdSfap7PgrsqA2H7v4Ov72YE/pWOCsXzbYTxgCXw9XgTZVe+xw+X5FutQG7iVYRF3ERmqbYvOWpQmHoNYWExuKeYmaQi3I0JxeWwG0iXKGctafE9XA+PQFx2peIprWWVqClE6rUwhMXcU06QjBjpsVcQEZ2KQlVfp6ksqwOdBsXWID/pKqJSCpW/9q7IReLVMETczIRmV7GQ3I9B+JV4ZJWIkJtX3uRsRW4iroZF4GZmqeavlSqykJhaBKYqF7evp6K4ob+aY1aek4DIiGu4U1iNmoJ0ZJSyyIu/iJDgYIRcSYWEBZjcmzgfHIzg89F4ICeHqpwEpCh8TaiuvxVZiUgtYlCVexvXU4vR2L1m+omno5woWqKFimwk3CkACwaS9FhExWWh3tM1BSmIiryNXIW9clLRXcSEXkbYjXQ0VM8WIXrHTHyy9Toy4i8gJDRJtvdRhf/1BszGvLfykaa4B1ZRV2we4i+GIDg4BFdSJWDBIPfmeQQHB+N89IOGcc9rFF4DKvvYAlTHiyencTU8gT8BgBGnI/ZKBKJTC1Vu/9A49lvcXwbi9FhciYhGqsoBrg01Y0eVFlWhGGd5NOQeVXGGFt+pHV8AwIqQHBaC4OBgBAefR0yGTFEVGTE4HxyMkLBkiFSNPVV2Po8xV4daG9X5uSV9lUd8Eps2h4N1+Qxz+ij/EAOv4wf4clZfoOFFwVKI7sYg9HIYbqRLmvoeAKTFuHc9HBFx2VBWtZaySmiYV7XqXXVZHTm91eQn4WpUCgqVJzTVY0EedbkRVchJSEHTqUJ9feVZiUgTsUBNAZKjopCi3Bk1eaARNi8eF0OCERxyBamySQw3z8v0Hy03iTWnLXnY0gdITi8Fy4hxLzoCMfcUYqZiHqg7odZedXGBmjlWU+5QiUb9QUvfng/PfsFdfh2bXB3h8ulXWLduBWaPdcJYvyiUKV7XJhhj2NghaE95iAxNAgCweSFYP3cJAsITcOPYEgwTjsDqSyLVYi8Kw8YZXvi/S5koTPgR44VO8DmZBxYAk34IMwdNxg+3HyE/yh+uwmFYd61+AFQgcfd0uM7Zi/icezi9ygcBdxsFqLmsIiyKwjZihtf/4VJmIRJ+HA+hkw9O5sl6LIn+Hl7uKxCUmIW0U0swvJcr/ELrH4TUXBYAUPMAvy+eCk/veZjg0AeT9tyvG3gs8kLWY+6SAIQn3MCxJcMgHLEal1TOaDVI2OEFnyPZkFalINBzED76NUO2eGfzELJ+LpYEhCPhxjEsGSbEiNWXlCdGthDRgQsxyk6Isb67sPmjYRgyeABmHRRpjllFMvZ7f4Dpm88jOTUC26Y5oFuvSdidyqJD1zdR8Ns8TJi7FylSgN+hCyzSdsBz/JcIymXAiuNw9Kt3Ydd9BNZF1M2YavpblB+NwIWjYCccC99dm/HRsCEYPGAWDopa4idlmq0Fthixh5ZgjLAHRvoG4fhaT0zz+hSTB9tj0JIQxB6cD7dJs/DZlEGwH74WsioYpB+aiUGTf8DtR/mI8neFcNg6XKsAWEkuRIbmaMeyqC6XQCJ+iBgV/vfaFVrno5Fye2DV6KrADF3fLMBv8yZg7t4USMFHhy4WSNvhifFfBiFXcV4FNPaxWaiJl1b3P5E/AUCC6O+94L4iCIlZaTi1ZDh6ufohtOFJLc1jv8X9lUTjey93rAhKRFbaKSwZ3guufqHNfjBM49jRipo4Nyv3qEK979hCdeNLrjjPEO3KL+KbqW7w2JkBi46yW2YGr/FxdcMqnCk3Q7tmzHDPbcyptVG9n5vdVxVURJzChUIehE7/QgfFkwAAAd7697/RUwCAScehmYMw+YfbeJQfBX9XIYatu9bwIbkicTemu87B3vgc3Du9Cj4BdxsXaFrKKqJpXtWmd41lAQA1ePD7Ykz19Ma8CQ7oM2kP7td1tLljQSk3lpThUdxRfPWuHbqPWIfGqUJ1fdKi6ziwaBTshO/B/+hezHP9AB7TP0D/PhMRcK+hM83KA7wOXfFmwW+YN2Eu9somMXSxSMMOz/H4MigXtc1pSx4mGxE/zsEA617w+PEw1r37DgaOHYPB9kKM9ruKkiech9XFRapqjn2C3KFRfxpioa6+Z4biHpO2haH8X93IRAcE2edoAkA6xu/SLw8ZxYufkGoKX9CdBGbuFFSueI6oOmIR9RDwyHL2GSKmgI56jqIV0XUbf5hM2j5Sj3Qd1lBcrUJBJo+OuNuR68+ZxBAR1SbRdyM7UOeZJ6iMpHRn00AyclxHibVEVHudVvY2oP5r4qiWiMojl1Ff21l0UlxXV9kZmm2lW7ePU3NZRZi8I+Ru50o/Z8r8VZv0HY3s0JlmnigjEp+jz4T2tCi8fnNUOUUusSc9y2n0ez6juSwV0i5XAzIZvJrCCxkiKqX/zbQkg5HbKIMhYgqOkueoFdToqu00Uk+XHFT1szqKlvbuT8ujZf1g8g/Thh+TqZYYKjjqSaNWRNftX2Uoc/tI0tN1oDVKDq+Lh7MeGfZZSBcKxZR8KYRuF+VpiFkp/bWoNzksu0r1oa+OWkpv6femlddriUhKKRsGkEHPpXS1rnj11aXU03Awffu3bG8ek/czueib0tRj5URa+stkbidnPUPqs/ACFYqT6VLIbSrKa4GfiIge76NxBvX7SVumBWJy6ScXfTIatJLC86REVE23vulPuu0H0/ILD6mWiGrjvqH++rbkE1pFJL1DmwYakeO6RNm56yupt0H/Bt8zuT+Ri4EVzTlXt7NTlf9FTJ2PGvfAatSVNIU2DDCgnkuv1vmwmq4u7UmGg7+lOpfT433jyKB+b6+WPmpGc7yIHtO+cQbq90S31J9EJD73GQntF1HjkIukJfZ6ZDntd8pntI39lvZXTOc+E5L9ovCG/pdHLiF7PUua9nu+LC9pQlu+a6JFZTTGWUvuIcU4N8N3qsaXSMnIcgpfJCR9+2UUVS/b/AM0fdouylK6to4XacypsLEoR52fS1rW1yYwlPX9KNKDPr27q1DxpBLSO5tooJEjrZM1RNdX9iaD/nU6KY+kZX1taVajqOnMbCvSrdtDq7GsIhrnVS1611iWqHCXKxmYDKbV4YXEEFHp/2aSpcFI2iab0DSPBQWUciMxlPezC+mbTiXZVKG5Pun972ionik5LTxJ6dVEJPkveVro07Dv7pNUax5oijRlAw0w6ElLGycxWtrTkAZ/+zdJSVtbKqiOoqU9dcly9FoKeVhLVJ5CeyZZEV/PkXxv16qeBzTNw9Wa49J0jqVm5Y4maNGftlg8T5rx+b81YZGXmY0qhd+2pOpsZDzU/JVHa0FlZaggHkzMzIGKMJwIycHdM1vh7+8P/82HUenqC78ZjjBULCgOxtEQfTg4dZJ9LSB4G0vDRMjZPxHG4EPofQARh31gkx2GwM37EC1mUV1ZBRZlCNm5H+l9nDHKrK4ug26wseTX/UdTWWXEwUcRou8Ap06y0AneXoowUQ72TzRG8ek9+D3bDv0c6jdHGWGg+0QIH53BkWCJxrL1GL01EAM68gAYoGtXC0AihpgFKsJOICTnLs5s9Ye/vz82H66Eq68fZjgqeQoQWEFonYlt40dg5qbjSNZ1x+ovekGACoSdCEHO3TPY6u8Pf//NOFzpCl+/GVBVDXiGMNTjwdTJBcM7mqGXiyv6GkSoj1nJWew6VIqB7zrCqK4Kfvv2zbrLVQ/PxATtGr6J1NxfnqEh9HimcHIZjo5mveDi2hcGES3wkxIt0wJ47WBspAO9bu/AqRMfgB6EdtYQoAveGWoFAQCBjTU665RALCaAL4T3gQgc9rFBdlggNu+LhpitRmWVytpV+78DT+YjOZ82R1fNpqV9bILmeGmlpf5EMU7v+R3Zdv3QOOQGwn2iEI/OHEGwRNvYb2F/i09jz+/ZsOvn0LBv1GigOyYKH+HMkWBIFC5XoiX5TgWa4qwt9yijzXeqx1cHpbFshKE+X2BYzgFsOy7b5pEZdBa6k6agi9K1qni+Y06VjTrn1fnZtGV9bQIPRkb64OkQaqu0X88XeuNAxGH42GQjLHAz9kWLwVZXoooFykJ2Yn96Hzg3ihrdbCzRMKNpKKuEpnlVm941la2v3+gtDBzQETwABl27wgISiGUT2lONBYAHE5N2jVuTtNTHb9cOxnwT9Hd1RTc9AMZC9OjCQ4mkGNTSPKAFzW2pgGcIQwM+Og6ZABcrAWBkD691c9GfEhEeXgBW1TygaR7WEpemcyxanDu06U9bLJ4nzUpJrYcAdgMcYdHgGRm81x0xsKfynrLWR4p7sXEoJHM4De4DtrQIokp92E9chpUrVzb8rVg0Xva1mhyMqBCPqiQoFquULHiCSsTvmAvvwFz0+9Qboy15MnEz2Uj9WwLwBWqdrbasEgxEhY9QJSmGcjcYFGQ9RAVbgxq5/YMCG2tY8WogEYtRpLasavg8PsBIUQsWpUUiVOrbY+KyRj+tXLkCi8b3hIKrAF5XzD54EbvcTRC+cSre6TkEC09kgWFLUSSqhL79RCyT8/fKFYswXtHh9ShsttQUM7vC+8goE0BPV2mHZvPRkdvL3oz+Nm2phX5SQfO1AIV993VHeDpyezAB6PDAA9Ud4kFQGY8dc70RmNsPn3qPhiVPfe2AkoF1x+T3wGrS5JPwBH2spxnx0kwL/ckUIOthBdiaGrl38QpgY20FXo0EYnGm5rHfwv4yBVl4WMGipukAh7UVDzUSMR6rWtDIoWnsqGhOAU1x1pZ7Hisv8LT5rs4YVfJThG87A4unGODstl1IrErGodA3MM1N9aYJVTzvMde0Ok1+bmlfm9L+HUcIBQzuJiUp7ZVXgidAZfwOzPUORG6/T+E92hKybjPITv0bEvAhUClqTWWV0TSvatO7uEh9WZXweeCDgbT2aceCDB25PKi1viY5E4AOH3wdgFhqcR7Qiqa2momg+9voYQzUVlfL9NWSebhES1zk59gW5w7t+tPUtydxZ2uipsttR7v3N2DXwgF4TaADQAd8c0d8vutbTKz/sNKGsKLz+H7/bfB7z8YXH5iAZ9oZlkapCNp7GeKGqxikB59FgsINd/4bXWFlWIDgY+dRXH+QFSE44DDSmDKcWzwBq0RT8NN6Dzha1EeVAJ0OeL2DAFVJNxGv8IJTYlkAGsoqwccbXa1gWBCMY+cbegFWFIyAw/fwRo/uMGWSEXuzcbccW1ONGt6b6OfwJizVlk3T8lALD6adLWGUGoS9lxs9BSYdwWcTlB+sZLKR9LALvHZcRmryaazqm4WdPhtxqdYUnS2NkBq0F02rCcZZRYerQVPMEtuZoz0eIjb6gVp7+AI+QKyCdwmkqgCvpf1toZ+UaIkWnoCyc1g8YRVEU37Ceg9HtE71mjSZBgZ8yFyu0AiR6hg9TR9bHK+nhN8ZPbqbgkmOReOQY1FTXQPem/3g0Pl1zWO/hf3ld+6B7qYMkmNvNu6HZWtQXcPDm/0cYKklm2saOyqaU0BTnLXlHkvliUab77QZ04T2cF30Gfre2YNv/X7Grbc/waj6r7i08qKNOU1+voXTT9FXQX8vzBlpgoLTgTgu/9xOAzW4e+4sEqqAsnOLMWGVCFN+Wg8PR4uGmwUEHXR4vQMEVUm4qSxqsNBUVhlN8+q9NzTr/U1L9WXTVCaXRp5uLCjzVPW1MA+ALwAfBOWUqsVoLRDJaaK2AlWsBex7d268cyyHJnuTX2tJXPjo3KLcoV1/mvqmyp3PkpZktdaBZwm3rVG4nxaN0NBrSEuPwY4JVq3YEUJNjfLnd2leKDZOm4ODVWOwaf83GGwAwHgsZnl0Q0aAO5w9/fBr0HEc8J+D5VHGsFX8JNT+Pcya2gX5Bz/Dh4t+QdCfh7H1cy8ECYbATqcE99MLUJaVhgdlVcgOP41reQwqSvIQf6MA46a74fX0vVi86gyyaoDqzFtIKmQgzslEvjhffdkY2YOdTbsxC1O75OPgZx9i0S9B+PPwVnzuFQTBEDt0cFsA7z5iHN8eiLQaAGCRfzEM2UMXYP5wfY1l+SwLllWxMKo7bjx2Fjy6ZSDA3Rmefr8i6PgB+M9ZjihjW+U7t0w2grYE4FYFYGDzPlZ9MwU2Rvow0DHG2Fke6JYRAHdnT/j9GoTjB/wxZ3kUjJUcXgcB0lq5UaIhZnad/40PnQ0R860n5u88j+s3/8L+fX8hr2GQ82Fh1Ql6OdG4cKsAhXfOYuf+qxBJi5D94BFKqwCwDFgisCwAaO8vQYqm3WuBnwCAYcCAwLIswGrQkQotAExdzOQSJckWsw1RJAKBBcsAbMl9pBeUISvtAcqqshF++hrymAqU5MUjJqkMPAMD6OMx8nKLURQTiYQKFf5HnY9AYOsStEZd8S1g1UkPOdEXcKugEHfO7sT+qyJIi7Lx4FEpqgAwDCNLlqy2Phbixo8z4faxH86rXDBoixcDWVOyxKxMy/wJtIfbAm/0ER/H9sA02V1DNh8Xw7IxdMF8DDfsqHnsl+i0rL/t3bDAuw/Ex7cjUDbAweZfRFj2UCyYPxz6qNDsHw1jR9acnBZVoCnO2nIPFOKs1Xd176tTHF/qEPSai0Vutfjj+2QM/sRR9Vir5wUac7LiTW1U6+dBryNDU19ZES6uc8fHG0LlFhpy8O3wn4AfMbXdGSyauhL/uyv3qgJWjNgDm3CSHNDbgEXJ/XQUlGUh7UEZqrLDcfpaHpiKEuTF30DB6Olwez0dexevwhmZqHErqRCMOAeZ+WLkqy0bgzqTG9E0r3bQondNZfmsLL5KN1fqjmsbCwqoyo0sw4LqFnna6mMZBlJi5eZXAtVpkNWat5rCt7BCJ70cRF+4hYLCOzi7cz+uiqQoyn6AR6VVWtpSB4uizIy6l1ewyD11Cgm9vTF/dN02D8V5QJO9r2mKi+IcC7RvRu5ohIeO4zTprwQVmvqm7M5ni+Km7pea8lS6FLiOxlsLSEfXkhzHf0yz5swmL3c3GjlkFLkv202RuQq75stT6JDPaLIz1yc90640dN5+SlLxsCWR7NrDPqNJ2NGE2ls5kcfWK1TIEBExlHNiAQ3oZELm3UfQnJ2h9JuXNZnZutGWaxIiRkzXf/aiQdbmZGbjROO+8KXZg7rRYI+vad+1HM1lVVCecph8Rgupo0l7snLyoK1XZA+FEBHVZpyi1eMdycF5Gs39z6c03XsbhRc0PniguqyEbv+xnEZZ8ElX6E7fnUmi1Ii9tHCoGfGNHemzwGjZA2Aph8hntB2Z6+uRadehNG9/UsPDiU2ovkqrhnSn/mO86CtfP1oxbx75X65/qKucUg750Gg7c9LXM6WuQ+fRflUOZ0R06+hKGmPJJ76VK60+GkuP6s3QEDNp7gVaO86eOrYzJZtRiykoeC05GdY/NElEjyNpw9iuZGpqRQ5TtlDouWXk2GMkzfQ9RDcyk+j02veoM19ANhM30tm0KrX9ZUS36OjKMWTJ55OV62o6GvuoIQbN9lNlKp1Z40qd+HyynriRTiZJWqCFMko5tZbes+KTwHYybT6dSJnxf9L68V2JL7ClSf7/o9sPYilozftkxRdQt0n+FHz3AZ1YMIA6mZhT9xFzaGfob+RlbUa2blvomkT240f7PhaS+WtCmvjdeYpU5f+ylAYfdZu0ic6lyR4iUq0rGY8jN9DYrqZkauVAU7aE0rlljtRj5EzyPXSDHqacoTWunYjPt6aJG09SkiRHfR+Lc2jfpE5k9roFDfVLbOKNRlTHi6iSUs+sIddOfOJbT6SNJ5MUyj2BP+9VE1EtZZxaTeMdHch52lz6z6fTyXtbODUMOY1jP6/l/a3NoFOrx5OjgzNNm/sf+nS6N20LL5D5mmmGf9SNHSUtPlYsSaQlzppyT2WqQpwfk0bfaRpf6qgKX0SO43ZTjqYLlex8fmPu6gP1Nqr2s5Z5RnqPfn7vDerktovSVT4dJ0NacJV2LhhP/xL2oD6DRtF7k6bRzLlf0c6rjbFkck7QggGdyMS8O42Ys5NCf/MiazNbcttyjSTEkPj6z+Q1yJrMzWzIadwX5Dt7EHUb7EFf77tGOdmayqpA7byqRe8aykpu/0HLR1kQX1dI7t+doaTUCNq7cCiZ8Y3J8bNAipZNaKrHgirkc+PWaMpPOU1r3+tMfIENTdx4lmRThZr6JAl0fJULWfB1SThtK51LTqMrgQtoiBmPjBzm0J7IHA15QBWPKXLDWOpqakpWDlNoS+g5WubYg0bO9KVDoRHNaEuB2jj6pp8eWQ6aSnM+X0xffv4JTXL/mk5nSp94HlYXF/n5o3GO1Zw7lNGsvzxGS9+eIzpEpOqbHg6OVwImZQMGOR3D2PA4bPrX8/54y9Ea1ESuwvybc/DrQlvFUxz/WP+wyNrlhY0df0DAZHPFkxwcHOqQxmON02CcHBeFm+sdNH87xPFUtN5ODg4ODo42hhVFYfeZ1/DJjH/SYrL5/OP8w5ShWFwFtiwKOy9a4pMPuMU2B8eToX7DCUfrwC24OV5ppI8eoURaBsnjZmwE5XixYcVIjGfh5rsEzty6Spl/nH+kSNjoDEsLC3R6awGKZyzG0Fb7uWgOjn8I0mIUP2ZQIhJrf3sNx1PBbSnheGVhcq7i4JHzSBPVQtfcFqPdP4Wzjapnrjk4OF5GpJnnsetwEl5/dwamOsnet8zBwdFMqu/h4v4/EJFRAqnADDbOUzHLxRbP4iXN/0S4BTcHBwcHBwcHBwdHG8LdEODg4ODg4ODg4OBoQ7gFNwcHBwcHBwcHB0cb8s9bcFflIPFOQSs+j1uOzLjbyJb7WdLWb+PZUJ6ZgNSil63XHBwcHBwcHBwvNv+cBTcrQdyhL+FiZwfnDZGt9jQum7EbMwYPwdwD+WDbqI22hi2Mxl6fkbDr+S62RL8svebg4ODg4ODgeDn45yy4eWZw8FiMCUK5n+BtBXg28/DbtSjsmdkJvDZqo63hWQyC1yI3dFc8wcHBwcHBwcHB8dT8cxbcAMAzhYmxjuLRp8QY1g790KX+/a9t0kbbwzcxwUvYbQ4ODg4ODg6OF55Xc8EtFeFuTCguh91AuoSRO8GDjppFZXlOAiIjruFOYTVqCtKRUcoiL/4iQoKDEXIlFRIWYHJv4nxwMILPR+NBRWPZqpwEpOTX731W10YFchOvIiziJjJL5fdJVyArMRVFTBVyb19HarF8f+thUfogGemlLBjxPURHxOBeE7sAgIE4PRZXIqKRWqi4LaQZbejooKHbNflIuhqFlELlH4thxOmIvRKB6NRCpS0zFVmJSC1iUJV7G9dTiyFrRQrR3RiEXg7DjXRJ3TEODg4ODg4Ojn8Or9yCm0k/hJmDJuOH24+QH+UPV+EwrLsmtzpWpCIZ+70/wPTN55GcGoFt0xzQrdck7E5l0aHrmyj4bR4mzN2LFCnA79AFFmk74Dn+SwTlMmDFcTj61buw6z4C6yLkn5psCpsXgvVzlyAgPAE3ji3BMOEIrL5UhPzoQCwcZQfhWF/s2vwRhg0ZjAGzDkIkV5bJjsCPcwbAupcHfjy8Du++MxBjxwyGvXA0/K6WyC6SRON7L3esCEpEVtopLBneC65+oShiWRQ2ow15ah78jsVTPeE9bwIc+kzCnvv1S2QJor/3gvuKICRmpeHUkuHo5eqH0CIWbGE0AheOgp1wLHx3bcZHw4Zg8IBZOFiYjkMzB2HyD7fxKD8K/q5CDFt3DRqiwcHBwcHBwcHx6kGvFFK6s2kgGTmuo8RaIqq9Tit7G1D/NXFUS0REj2nfOAMy9/gvVRIRUSn9tag3OSy7SuV1NVRHLaW39HvTyuu1RCSllA0DyKDnUrpaXXf+6lLqaTiYvv1bSkRETN7P5KJvSlOP1deg0AZTQEc9R9GK6LoKmEzaPlKPdB3WUFwtQ5nbnUnPsA8tvFBI4uRLFHJbRExdTfVURy2lnrqWNHptCD2sJSpP2UOTrPik5+hLt2vFdO4zIdkvCq+ziag8cgnZ61nStN/ziaHmtUGFu8jVwIQGrw6nQoaISv9HMy0NaOS2DGKISHzuMxLaL6LwxkZoib0eWU77nfIZIiZzOznrGVKfhReoUJxMl0JuU2HyJhpo5EjrZMGg6yt7k0H/NRQnCwYHBwcHBwcHxz+CV+wONx9C7wOIOOwDm+wwBG7eh2gxi+rKKtWv6Cs5i12HSjHwXUcY1R3it2+Pdi3wCs/EBO1UbiGpoyIMJ0JycPfMVvj7+8N/82FUuvrCb4YjDMGDoaEeeKZOcBneEWa9XODat4PS1w48Q0MY8DtiyAQXWAkAI3svrJvbH5QYjvDUk9jzezbs+jmgfhu50UB3TBQ+wpkjwZA0sw0ZRnhr4AB05AEw6IquFoBELAaLYpze8zuy7frBobERuE8U4tGZIwiWyPqoxzOFk8twdDTrBRfXvuj4ljcORByGj002wgI3Y1+0GGx1JapUBoODg4ODg4OD49VE9brrJYYnqET8jrnwDsxFv0+9MdqSp/aNIUzufWSUCaCnq2nFrAUdHTV7tmWwpUUQVerDfuIyrFy5suFvxaLx6CkA0LhzugUI0P3tHjBGLSpzs/CwgkVNjdyWFoENrK14qJGI8ZjFE7bBB48PMNJagClA1sMKsDU1aGxFABtrK/BqJBDLGlFuhSdAZfwOzPUORG6/T+E92hI8dcHg4ODg4ODg4HhFecUW3GU4t3gCVomm4Kf1HnC0ENQdV73K0zEzR3s8RGz0A7UP8/EFfIBYhRoIpK6AAjzTzrA0SkXQ3ssQNxxlkB58FgnKzyRqgEByd4ZrK6rAWtijb7+e6G7KIDn2ZuPeaLYG1TU8vNnPAZatEWF+Z/TobgomORY3GxtBTXUNeG/2g4OaRsrOLcaEVSJM+Wk9PBwtoDkaHBwcHBwcHByvJqpXSi8rbAnupxegLCsND8qqkB1+GtfyGFSU5CE+JgkAA4YBiGXBAuBZ/BsfOhsi5ltPzN95Htdv/oX9+/5CXsNimg8Lq07Qy4nGhVsFKLxzFjv3X4VIWoTsB49QWgWAZcASgW1YDDdtA8ZjMcujGzIC3OHs6Ydfg47jgP8cLI8yhq0AsuWntBZa195sETIzyur+nYtTpxLQ23s+Rr/hhgXefSA+vh2BabL3hrD5FxGWPRQL5g+HPtCsNliWBQsCq7Aalh1vD7cF3ugjPo7tgWmyt5Ow+bgYlo2hC+ZjuKwREKSobWiERcn9dBSUZSHtQRmqssNx+loemIoS5MXHIOmxCBfXuePjDaFyH0Q4ODg4ODg4OF49+L6+vr6KB19adNqhS/tHCD30C7YHXkJRz0/wgf5l/C80F10//Biv3/4RWwPCkJpXA0PbPhhuL4SDiyOQcBoH9wTiZHI7uE0XIuGPO+g+yxsuVjwYdHsT7LV92PrtLpzL7o6ZH7+O69GlMO9gju5CPm79vB27w9JQUGsI4Tt9wUZvb9pGzzfRbeQY2D6Ox8U/j+DoyavIf3MWtm4YD6OkY9j2w0FcSc2EmO0M+3690NlIaWMG2PxQ7P41DqVMBuKvhePc4SO43WMVAr4egQ48XXQZ8W/0Kb+IH77di9Cb1xES8hD/WvcjFjgaQxzXjDZKEnD8u20IjLyLR4wJbO1fQ8G5PdhzLBppEh7e7PcvDBj0Pv7dpxwXf/gWe0Nv4npICB7+ax1+XOAIY3Ecjm37AQevpCJTzKKzfT/06mwMky7t8Sj0EH7ZHohLRT3xyQf6uPy/UOR2/RCzRvIR9t0a/JbbF57uTjB/tT76cXBwcHBwcHA0oENE3Df8cjApGzDI6RjGhsdh07/qN0E8X6Txa+A0+CTGRd3EeocXo08cHBwcHBwcHBzNg7uv+DLBvd2Dg4ODg4ODg+Olg1twKyB99Agl0jJIHmva8fxskRYX4zFTApFY8bcdOTg4ODg4ODg4XnS4LSVyMDlXcfDIeaSJaqFrbovR7p/C2YaveNkzpfreRez/IwIZJVIIzGzgPHUWXGz1FC/j4ODg4ODg4OB4QeEW3BwcHBwcHBwcHBxtCLelhIODg4ODg4ODg6MN4RbcHBwcHBwcHBwcHG0It+BWgkVpeiLuSbhXgnD8c2BL05F4T9JmL8Ipz4zD7ewqxcNPSBVyEu+goAWdbd32n44XqS/NpxyZCakoaoHPW4e2zcdVOYm40xIhaUE5ti3XKsfzhoH4biIelCseb2WqcpB4p6DNcm7b8LzywKvBq7/grrmBX7ada9avGTLZf2Gr1wB0e9sdu1Pb8C0lNVFYO7wnhi06g3xOuBzPEyYbf231woBub8N9d6rGXyN9YtgM7J4xGEPmHnhKvbOQxB3Cly52sHPegMjmvrSn1dpvBV6kvjQLFoXRe+Ez0g49392C6Ob6vBVoy3zMSuJw6EsX2Nk5Y0OzhaSFJrF9Qq0+DdI8RO1fh89nesBj2kf4aPoCbP7jNsQvhc5eDJjMv7B1xjvo1nc2Dmc2/OR068JKEHfoS7jY2cF5Q6Tsl5tfeJ5fHniVeOUX3JIzP2Ljum04nKF98PC7jIbP3JF4rY2fI62JO4Xg2g+xca0bOr3yEeB4oeF3wWifuRj5GqHNVM+zwbzfriFqz8yn1DsPZg4eWDxBiBYN0VZrvxV4kfrSLHiwGOSFRW7dFU+0OW2Zj3lmDvBYPAHC1qy7SWyfUKtPCJN1CouHDcOSWz3xnx8O4sjv/8X+tWNRHjAejhO2IkaiWIJDFXzr0fhi1nCYt102BHhmcPBYjAnCNsy5rc7zywOvEi9Fyn9i2Ewc3X8BJRUR2LsvoVl37/hmZjBV/nX1VoTBwwedseToBow0VzzHwfEc4JvBrG1FD2NrB/TrYqB4+AngwdTEGC3tbeu1//S8SH1pHnyYPIHPW4O2zMc8UxMYt3LdTWP7ZFptMRUx8Jv8CX7rsAxHtk9DbzPZq2zb2Y2D79HtGBa/EpPnHUY2d6e7WfCNTWDc1isjnilMWlt8bc7zywOvCm0tK9VUZSBs/3fw9d2MwL/SUaF4vpWQ3g7E6dfXYf27Rkj6LQChavdkSVF87zrCI+KQXal4DgAqkJt4FWERN5FZKp+1KpCdINufx0jSERsVh6z6NmoKkBIVidu5Cns1pRJIu/XB65m3kC5RuOvOSnA/JhxX4rNQIspFntr+qqYiNxFXwyJwM7O06b6w8iwkponAogYFyVGISilU++GDzYvHxZBgBIdcQaqEBZhc3DwfjODg84h+0Bip8qxEpIlYoKYAyVFRSClUqFEqwt2YUFwOu6FspwoqshKRWsSgKvc2rqcWo6FERS4Sr4Yh4mYmmrheo6/UxysrMRVFTBVyb19Hyv0kRIQEIzg4GMEhkUgrYQGU4t7V8wgODkFkWt1toRbawkruIyb8CuKzSiDKzUPTrqmxRwkWpQ+SkV7KghHfQ3REDO7Vtd3cGEGTJgBIi+/hengE4lSLXm1ZrbFXRVUOElLyG+tpjiZrCpF6LQxhMfcglnM7T6cx5TfbF4rtV2QhMbUITFUubl9PRbFiWNli3IkIkWkjOASRaSVgAZTeu4rzwcEIiUxD/bZiqeguYkIvI+xGOprKo6neUusbUewLADBipMdeQUR0KgoVv67VqHUVqPEboKUdqC+rI+fzmvwkXI1KgXLY1Y07FpL7MQi/Eo+sEhFytRrwpPlYNWrjw9NRvXgoz0FCZASu3SlEdU0B0jNKn1hn8lqVR93YUpsH1cIi98h6/BCnj3/P9kQ3hZ+N4HV0g7e7LQpO+OH7a1XIi7+IkOBghFxJhcyMmzgfHIzg89FomjrU+ViNpjXZlJ0g2yfPSJAeG4W4xkkSBSlRiLydC+UnGhiI02NxJSIaqUpCbYmeNFyrLq/r1OuCIC26g+joZOQrd1C9vc2KIQ8qpaFpfD7LPIAaFKZeQ1hYDO7JFX62eQAoz0lAZMQ13CmsRk1BOjJK2VbQ8PPj2S+4y69jk6sjXD79CuvWrcDssU4Y6xeFMsXrnpoyXNh9DX3meGHWnPHo+PC/2HWiUGnRgYpE7J7uijl745Fz7zRW+QTgrpw42bwQrJ+7BAHhCbhxbAmGCUdg9aUiPIo9hCVjhOgx0hdBx9fCc5oXPp08GPaDliAk9iDmu03CrM+mYJD9cKy9JlMBk34IMwdNxg+3HyE/yh+uwmFYV3cONQnY4eWDI9lSVKUEwnPQR/g1Q0nJqmHzELJ+LpYEhCPhxjEsGSbEiNWXIJIW4fqBRRhlJ8R7/kexd54rPvCYjg/698HEgHsqEwGvQ1e8WfAb5k2Yi70pUoDfAV0s0rDDczy+DMpFbdF1HFg0CnbC9+B/dC/muX4Aj+kfoH+fiQi4J6tRo50KsIXRCFw4CnbCsfDdtRkfDRuCwQNm4aCIRV7IesxdEoDwhBs4tmQYhCNW45KI1egrdfHKjw7EwlF2EI71xa7NH2HYkMEYtPAvVKX+gtnjJmDjLTN0NuYBMMIb7a5j+9ZYCDoYtcgWAKhJ2AEvnyPIllYhJdATgz76FbKuabBHASY7Aj/OGQDrXh748fA6vPvOQIwdMxj2wtHwu1qiNUYMNGiCBYAKJO6eDtc5exGfcw+nV/kgoKnoVZYtKtAeeyVYMeKOfoV37bpjxLoIVLHN0SSLorCNmOH1f7iUWYiEH8dD6OSDk3nKvtLqC6X2CxEduBCj7IQY67sLmz8ahiGDB2DWQZFCxcZ4TT8Vv8wehwkbb8GsszF4AIzeaIfr27ciVtABRjwG6YdmYtDkH3D7UT6i/F0hHLYO1ypYFKrQ2wCvXQiV70tdU5Lo7+HlvgJBiVlIO7UEw3u5wi+0SJarNGhdGc1+09iOlrIyavDg98WY6umNeRMc0GfSHtyvC7vqcSf7QJWwwws+R7IhrUpBoOcgfPRrhvKHq3qeKB+LlPM6AEBdfBSvq6cCyfu98cH0zTifnIqIbdPg0K0XJu1OBdtSnSlWXY+6sZWvLg8qVqBIKUKDr+Axryf69zdSPAlAD/0HOqAd8wCXz99Bh65vouC3eZgwdy9kZnSBRdoOeI7/EkG5daNPpY9V59ABsw5CpM6mR7E4tGQMhD1GwjfoONZ6ToPXp5Mx2H4QloTE4uB8N0ya9RmmDLLH8LXXGm+8SaLxvZc7VgQlIivtFJYM7wVXv9C6B/Vaoif112rP64SCsz4Y4jAELsP6wMZ+An6IrVulqLP3iWMoQ+P4fGZ5AGCLwrBxhhf+71ImChN+xHihE3xO5smNsWeRB5Kx3/sDTN98HsmpEdg2zQHdek3C7lT2KTSsLk88Q+iZwlD+r25kogMCGv90jN+lXx4yihc/FUxuIE11+45SpURUFUGLhQIyGrGV/pbKX1VOkcv6ku2skySuO1J2ZjZZ6b5Fy65VEzEFdNRzFK2Irq6rNJO2j9QjXYc1FFfLUO5PLqRvNIhWhueRlIiqb31D/XXb0+DlF+hhLRHVxtE3/fXJ1ieUqkhKdzYNJCPHdZRYS0S112llbwPqvyaOaomoOmop9e6/nKIrSeanwxvox+Raub6qg6GCo540akU0yXrJUOb2kaSn60Br4mqJpPfpu6F6ZOq0kE6mVxORhP7raUH6w76j+0180Yg0ZQMNMOhJS6/W2V19lZb2NKTB3/5NUiKS3v+OhuqZktPCkySr8r/kaaFPw767T1ItdqqCydxOznqG1GfhBSoUJ9OlkNtUlHeUPEetoEbXb6eRerrksCaOytX5Sku8Mrc7k55hH1p4oZDEyZco5LaImNpEWv8vQ7KadZIkskKUu+9zWhZcStRiW6opamlv6r88mmRdy6fDG34kWdfU26OqruqopdRT15JGrw2hh7VE5Sl7aJIVn/Qcfel2rbYYadZEeeQy6ms7i042ip5mW+nSW8uuUbWWsppjrwYmj3520SfTqceonEirJpm8I+Ru50o/Z8pyQm3SdzSyQ2eaeaKMiIge7xtHBuYe9N9KWfWafaGifSaTtjvrkWGfhXShUEzJl0LotkhV/qmlxPX/IkOrWXRSJg5icvfR58uCqZSISHqHNg00Isd1iSSTx0rqbdBfNu5Ijd4U+yI+R58J7WlReJ0xVE6RS+xJz3Ia/Z7PtCgvaPSblnY0liWiwl2uZGAymFaHFxJDRKX/m0mWBiNpWwajedyVR9HS3v1pucwAYvIP04Yfk1Vq/unysXw9dWiMDxE93kfjDMzJo05IpX8tot4Oy+hqeV356iha+pY+9V55nWqfRGdKWtU8tlTlQZWylEd6j7YM1SXov0d7ihVPyqgK9SFbPo86fXqGiKSUsmEAGfRcSo1mLKWehoPp27+lWnysStNFlKfJptyfyEXfiAatDKc82SRJ3/TXpfaDl9MF2SRJcd/0J31bHwqtIiIS07nPhGS/KFyWQ4moPHIJ2etZ0rTf84mpboGe1F6rOa/XXl9JvfWsaPyO6ySSEpUl7qEpNrqk7+RHCbWtFcPHtG+cAZl7/Fdmp5bx+azyADF5dMTdjlx/ziRGVpi+G9mBOs88QWXPLA+U0l+LepPDsqsN46g6aim9pd+bVl6vfUoNNzTyXHjGd7hZ5GVmo0rhSQGqzkbGQ7WfdZ4ABnf2B0FnynT04APQH4zZM94Bcy0Qv8bKfX9SFoKd+9PRx3kUzOoOGXSzgWX913IVYTgRkoO7Z7bC398f/psPo9LVF34zHGEIHtoZG0FHrxveceoEPgA9oR2sBUCXd4bCSgBAYAPrzjooEYtB4EPofQARh31gkx2GwM37EC1mUV1ZBRaAwEoI68xtGD9iJjYdT4au+2p80UvQ2Fe1VCDsRAhy7p7BVn9/+PtvxuFKV/j6zYCjIQB+O7Qz5sOkvytcu+kBMIawRxfwSiQofsInNvjt2sGYb4L+rq6QVSlEjy48lEiKtdqpCp6hIfR4pnByGY6OZr3g4toXBhEnEJJzF2e2+sPf3x+bD1fC1dcPMxwN1ftKS7wMDfXAM3WCy/COMOvlAte+HcAT9MJs7zGoOBGAoBwWYO7iaMwbmDq6HdBiWwSwElojc9t4jJi5CceTdeG++gvIuqbeHlXwDA1hwO+IIRNcYCUAjOy9sG5uf1BiOMK1vmNMkybKELJzP9L7OGNUo+hh0yh6DWW1xV4NPBOYtJP7/lSLJsXBRxGi7wCnuqcKBW8vRZgoB/snGjfW0RIU2+cZwlCPB1MnFwzvaIZeLq7o20FVKhSg12xvjKk4gYCgHLBgcPdoDN6YOhrtAIAvhPeBCBz2sUF2WCA274uGmK1GZRULqNObQl+KT+/B79l26OdQv+/XCAPdJ0L46AyOBEvUa10FmvymrR1NZRswegsDB3QED4BB166wgARiMat53AmsILTOxLbxIzBz03Ek67pj9Re9oNKCp8rHKtAYH0VKcHbXIZQOfBeO9TeK+e3Rvp0qXahBUWdKaB5bqvKgSlnKo2MMY0MdgKpQWanKLgDSWtSCh3YmpopnlNHoY1WaNkCEJpvaGcNIRw/d3nFCJ9kkCTvZJImhskkSNtadoVMihpgAFJ/Gnt+zYdfPAQ1KHeiOicJHOHMkGJKW6Enttc3I63xL/MvlHXTgA8a9P8XWL4dBJzECVx6VtX4MX6A8AHEwjobow8Gpk2z7g+BtLA0TIWf/RDRkgrbOAyVnsetQKQa+64jGodgezR6KmvqheO0zRqW9bYcAdgMcYcG/jRy5rwl5rztiYE89+Qufjoor2HOmFLzeazE/qu4Ya4HuuiE4tPs8Vg8cBxMATHYq/pYAbwpUR5ItLYKoUh+DJi7DSkdlV5UpbsLS4UF2877hAHg8NDylzhNUIn7HXGzv8CEWz/dG7v/24XDdlbyus3HwIh9rv/LDxqlHsN1pPnb/sQ2TuipsylOELUWRqBL6gyZi2UpHFQHVUdgrpgM+XwcgVv0CSRsNe9zq/8+HrEpZjZrsVEdTT7IoLRKhUn8QJi5bCWXX91Dpqwm6muNVpHLHJg+WU70x2fcjBOxNgsfYP3G/9wwsrJNjy2zhoevsg7jIX4uv/DZi6pHtcJq/G39smwBdjfY0BwG6v90DxniI6motkdOkCeYONslEr3o/maayAFCkOfaq0Wmy90+zJhmICh+hSlIsm4BbBcX2lQSnFp7lVHhP9sVHAXuR5DEWf97vjRn14gAPgsp47Ji7HR0+XIz53rn43z55dahqRL4vDAqyHqKC7YCaKgAmsqMCG2tY8WogET8Gmp0XNPlNWztiFNWoK6sGPg98MJDWas+TPQ5eBH/tV/DbOBVHtjth/u4/sG1SVyhZ8JT5WBlt8ZGDycX9jDIIOumqjFrzUKEzebSOLdWK0QivAxz620IQmoG7d2uBzvqKV+BxZhZEZAq3QX0UTymhzcdKOVSbTWWK++R1wNORfbXdcERukmQKsvCwgkWHpkKFtRUPNRIxHqMrZjdTT+BpuLaFeb2jbTeY6TyAtFqLvU8SQ63j81nlgceoFRXiUZUExcqFVdMWeSD3PjLKBOik23JPohkafp6ozmxtSLv3N2DXwgF4TaAjm2jNHfH5rm8xsf6WxlPDoujkr7jj+jN+C9iFXbvq/nYfxIbJHVHw5x78UbeXSafD6+ggqELSzXhUN6mDwLIAz7QzLI1SEbT3stx7vBmkB59FQotvyJfh3OIJWCWagp/We8DRol4IdYkmOwkPu3hhx+VUJJ9ehb5ZO+Gz8ZJCv1TAM0VnSyOkBu3FZbmXjTPpwTjb8k7K4AvAB0FxDUWkZp9uEzTb2Tx4MO1sCaPUIOxtahSCzyagWo2vap80Xu3ehbeXEMn7tsHvaAlGTrOtSwIttYVBdtJDdPHagcupyTi9qi+ydvpg46Vajfao7xqB5G5a1VZUgbWwR+/OfM0x0qSJRFO83kGAqqSbiFcQF8lEr76sRie2Fny80dUKhgXBOHa+uOEoKwpGwOE0lc8daPTFU9MO73p7QZi8D9v8jqJk5DTY1s8QZeeweMIqiKb8hPUejtAqDyX46NyjO0yZZMTebNw/ytZUo4b3Jvo5WILUaF05L2jy2z28obGdN2Gptqwan8uhMU9WZyPpYRd47biM1OTTWNU3Czt9NuKSsgGtn49bEh8dM5i3Bx7GRuOBOoOfVmdtMrb08C+vWRhk+BAX/hejvHecLcT5czFges7CF+NlkyxfwFdxw4UgSx0t9HEr28Tv3APdTRkkx95s3NPN1qC6hoc3+znAkpqvJzDqrm1pXgcqih6hsmt/vGNp1qr2ynhR8oAldN/oCivDAgQfO4+G0qwIwQGHkaZF5hq105I8YGaO9niI2OgHanNPq2r4GfLMF9zgWcJtaxTup0UjNPQa0tJjsGOCVet1RJqM3XseY8KsPgqfPs3w/qzJ6Fp2Ab8EJKAGAK/jOEx3ex3pexdj1Zks1KAambeSUMiIkZOZjxKdsZjl0Q0ZAe5w9vTDr0HHccB/DpZHGcNWADAsCxArt72AZEFvUIHs3yzLAGwJ7qcXoCwrDQ/KqpAdfhrX8hhUlOQhPiYJTHYQtgTcQgUMYPP+KnwzxQZG+gbQqbiBH2e64WO/81DxzBgAY4yd5YFuGQFwd/aE369BOH7AH3OWR8HYVgCwDBgpgZUTJ5FsccWqrA/gW1ihk14Ooi/cQkHhHZzduR9XRVIUZT/Ao9IqsAwDKbFydzUJBALLsmC12KkOghS1coPBeOwseHTLQIC7Mzz9fkXQ8QPwn7McUca20FHnK2PN8QIIkNaqWOAK4DB7HoaLjuA4jYPba3WHW2wLg+ygLQi4VQEY2OD9Vd9gio0R9A10NNqj9jM4W4TMjPoHdXJx6lQCenvPx2gDbTHiq9eEnSXGTXfD6+l7sXjVGWTVANWZt5BUyECck4n8Eh31ZW0FmmMv3/cmsGBYki3oAa2abP/eLEztko+Dn32IRb8E4c/DW/G5VxAEQ+zAB8AwjGzc1VWn2RdVyu2jXgrKSlCFwGE25g0X4chxwrgGcQBsyX2kF5QhK+0ByqqyEX76GvKYCpTkxSMmqUyN3pr2pb3bAnj3EeP49kCk1cjO518MQ/bQBZg/XF99XmhSpwxNfuugpR1NZflgwdbluqYTXN1xTeNOJxtBWwIgGxLvY9U3U2BjpA8DFQY8bT5WRGt8GAZMnXbBs8C/P3SGYcy38Jy/E+ev38Rf+/fhr7zGKf9JdNZUq1pytYo8CFaEi+vc8fGGULU/3iZ4exECvnsPFQe+wqaoErkzDLJPLMf6a32wZp8vhhsBAB8WVp2glxONC7cKUHjnLHbuvwqRtAjZDx6hlK/Nx4qa1mITw4Kt+8BUDwEguZeTk2ySlC2u2rthgXcfiI9vR6BMqGDzLyIseygWzB8Ofab5eoK6a6kZeZ0qUCKpWw1WJWLvofv49zcLMVhPi72qYqgSBjJpyPLmi5IH0P49zJraBfkHP8OHi35B0J+HsfVzLwQJhsCO/4zygMW/8aGzIWK+9cT8nedx/eZf2L/vLzQOxafV8HNEcVP3ywyTd4V+me1I7Q3fJs8tJyih7kEnIiKmOI6OrRpLlnyQTrve9PGm05RWTcSIr9PPXoPI2tyMbJzG0Re+s2lQt8Hk8fU+upbHEJWn0CGf0WRnrk96pl1p6Lz9lFROVJZyita+Z0V8gS1N3nyaEjPj6c/146krX0C2k/zpf7cfUGzQGnrfik+CbpPIP/guPTixgAZ0MiHz7iNozs5Q+s3Lmsxs3WjLNQlVX11FQ7r3pzFeX5Gv3wqaN8+fLuczxOTso0mdzOh1i6Hkl6hux385pRzyodF25qSvZ0pdh86j/UnlRCShhOOryMWCT7rCabT1XDKlXQmkBUPMiGfkQHP2RFKOmgc6IjeMpa6mpmTlMIW2hJ6jZY49aORMXzoUGkHHV7mQBV+XhNO20rnkNLoSuICGmPHIyGEO7YnMphwNdirCiG7R0ZVjyJLPJyvX1XQ09pHsYQ0iKk85RD6j7chcX49Muw6lefuTqJxIra/qCqmIF0OiW0dp5RhL4vOtyHX1UYp9pGi4mP6c7UZ+t+V9zLTIFqJqurpqCHXvP4a8vvIlvxXzaJ7/ZWrsmmp7VFEb9w3107OkQVPn0OeLv6TPP5lE7l+fpsyGJxM1xOjGIw2aICJGTNd/9qJB1uZkZuNE477wpdmDutFgj69p37U89WUlCVpinyNnQT1llHJ6Lb3XmU8Cm4m08WxsszRZnnKYfEYLqaNJe7Jy8qCtV2QP6VSmnqE1rp2Iz7emiRtPUtJj0uKLzKbtn46hW0dX0hhLPvGtXGn10VhSkoIKxH/OJje/200f8mFy6MSCAdTJxJy6j5hDO0N/Iy9rM7J1+5ZCwlXpTdEXaUREVJtxilaPdyQH52k09z+f0nTvbRReIOuURq2rQJ3fSEs7mspKbv9By0dZEF9XSO7fnaGk1Ajau3AomfGNyfGzQIrOV58nqfoqrRrSnfqP8aKvfP1oxbx55H85v6FPijxpPlaJ2vhsoWv5qXRmjSt14vPJeuJGOpn0mEiaSxfWjiP7ju3I1GYULQ4KprVOhg0PTbZIZ2fT1GhV9dhSmwel9+jn996gTm67KF3tU8lERNWUEbyJPhk1lD6YvYzWrvuafD5+l0Z9uJyOpcgefG3gcSRtGNuVTE2tyGHKFgo9t4wce4ykmb6H6MYjdT7WlENV20RlKXRq7XtkxReQ7eTNdDoxk+L/XE/ju/JJYDuJ/P93mx7EBtGa962IL+hGk/yD6V41EdVm0KnV48nRwZmmzf0PfTrdm7aFF8j80RI9qb1WS14v/5tObfiERv5rBE3w+pwWzJ1P60/fb3iIU529amOoRCWlnllDrp34xLeeSBtPJhFpGZ/PMg9QeQod9hlNwo4m1N7KiTy2XqFC5tnmAWnuBVo7zp46tjMlm1GLKSh4LTkZ1j80+aQaVmzl2aND8h81OV5QahC5aj5uzgnAwobvszleZaTxa+A0+CTGRd3Eeofn/bGcg+MfCJOCDYOccGxsOOI2/Uv9N1EvEqwYUd95wv2bEOS2G41tV0Ow0P6l6DkHh1qYlA0Y5HQMY8PjsOlfL6+eW20nB0dbwUIUtRtnXvsEM7jF9j8P9fs0ODg4OJrCM8eQ5adx48J3mGYdD1+PxTgl/4YCDg6O5wa34H7BYcWJiGfd4LvEGdwvwf9zkBYX4zFTApFY5c+AcXBwtDXSR3hUIkWZ5LGK5z5eZPjo5LwEh2PvIsK3O6L+bw227j2G88nqdoFzcLzYSB89Qom0DJLHL9dIVITbUsLB8YJRfe8i9v8RgYwSKQRmNnCeOgsutq342kwODg7NMDm4evAIzqeJUKtrDtvR7pjrbKN4FQcHRxvD5FzFwSPnkSaqha65LUa7fwpnm5fz235uwc3BwcHBwcHBwcHRhnBbSjg4ODg4ODg4ODjaEG7BzcHBwcHBwcHBwdGGvJIL7vLMONzOVvrNrSemKicRdwpe8tdFsKVIT7wHyUtuxvOgLeOvWHdra/fpYVGanoh7L5VwqpCTeAeNbi1HZtxtvFBufVKqcpB4p6AFL695EeL3svtfUU8c2nkRdFePcvyeeZ5t8bjleBV59RbcbAZ2zxiMIXMPIP8p1c1K4nDoSxfY2TljQ+TL+rYIBtl/bYXXgG542303Ul/uh3yfKW0Zf5V1t6J2WwMm+y9s9RqAbm+7Y/dLIRwWkrhD+NLFDnbOG9Do1t2YMXgI5h7If3knPFaCuENfwsXODs4bItEcNbZZ/KqvYPWQnhixNASFzXDoy+t/1Xri0Eyb6a7FqInfs8yzTzBuOV5dXr0FN88G8367hqg9M9HpKa3jmTnAY/EECF/q50r56DLaB3NHvib3k/MczaEt46+yblXaZYtwM/a+7GePnzH8LqPhM3ckXmsD+9sGHswcPLB4grCJ1nk28/DbtSjsmdnp5U14PDM4eCzGBCEp/KyyetoqfjU3T+ECpmDjN/+GRTMcqtL/z1HXzUe1nl5F2KKbiL3fOtFoK921HDXxU5Vn24onGLccry5tLbfngrG1A/p1MVA8/ETwTE1grKN49GWDDzMzU7z0ZjwH2jL+qupW1G55zA9Ys//uc3sPMN/MDKZtZH/bwIOpibGC1o1h7dAPrZQSnh88U5goCkYLrR8/BlmZb+KrI+swvL3iOXUo+/9567r5qNLTq0Y5Yn5Yg/13Wy8ara+7J0V1/BTzbJvyBOOW49XklVxwoyoHCSnyX1+WIysxDSIWqClIRlRUCgqVcksNClOvISwsBvfEcp/0eToNg5XNi8fFkGAEh1xBqoQFmFzcPB+M4ODziH5QAVaUjLCQYAQHByP4fAwyKgCgAhkx5xEcHIKwZFFDtRW5ibgaFoGbmaXav2atKUTqtTCExdyDfNcAKUR3YxB6OQw30iXKd4ukxbh3PRwRcdmoVDynrWwTKpCVmIoipgq5t68jtVju6opcJF4NQ8TNTJTKG8JKcD8mHFfis1AiykVeudw5dWUU2km5n4SIen+GRCKthAVQintXZf6MTJPIiklFuBsTisthN5AuUWMJK0JyWIisruDziJEFBxUZMTgfHIyQsGSIVAVCLv7yMOJ0xF6JQHRqodLXhKzkPmLCryA+qwSi3DzIm94EVXU3aJdFUfQOzPxkK65nxONCSCiSimQdrMhKRGoRg6rc27ieWtwYO0aM9NgriIhORaFyp9THQwkpiu9dR3hEHLKVhQOgArmJVxEWcROZTQOokqq8JFwNj0R8Zomy1jXETqMfNdjK01HyKqpyEpAi//1xeRYS00RgUYOC5ChEpRQqLP5aMj6gwSfNyT3KqM4PPKgwTQVPGD+2FA+S01HKMhDfi0ZEzD2oGk6vDRyKTlk3kKroeLCQ3I9B+JV4ZJWIkCsnskb/q9c1wECcHosrEdEq6laNaj8B5VmJSJM5HclRUUhpntNV5iVVelKiIhsJdwrAgoEkPRZRcVkNeq0pSEFU5G3kKm0Z1mRvBbITZPuOGUk6YqPikNVYIVKiInFbucKW+4MtQvSOmfhk63VkxF9ASGgSGsKhsX+qeELdqUBtjlMTI03jVWX85NcIJXdx9XzdPCP3FxKZ1vDMk1R0FzGhlxF2I11hTGiYGxtQPW7V16lMi/2hMd+ri0Mbzr9qYEsfIDm9FCwjxr3oCMTcq4sdm4f4iyEIDg7BlVQJWDDIvXkewcHBOB/9ALLZu44n8sHz4dVacLNixB39Cu/adceIdRGoAoui6wewaJQdhO/54+jeeXD9wAPTP+iPPhMDcK9OG2xRGDbO8ML/XcpEYcKPGC90gs/JPKXFAa9DV7xZ8BvmTZiLvSlSgN8BXSzSsMNzPL4MygUZtkP5xW8w1c0DOzMs0NEAAAzwGv8qNqw6g3KzdgCbh5D1c7EkIBwJN45hyTAhRqy+pHqxBxZFYRsxw+v/cCmzEAk/jofQyQcn81iAScehmYMw+YfbeJQfBX9XIYatu9YgxIrE3ZjuOgd743Nw7/Qq+ATclVuYaS7bCIvC6EAsHGUH4Vhf7Nr8EYYNGYwBsw5CBBZ5Iesxd0kAwhNu4NiSYRCOWI1LIhaoScAOLx8cyZaiKiUQnoM+wq8ZUkBtGanKdgYt/AtVqb9g9rgJ2HjLDJ2NeQCM8Ea769i+NRaCDkZg0g9h5qDJ+OH2I+RH+cNVOAzrrilbAp4h2pVfxDdT3eCxMwMWsuDA4DU+rm5YhTPlZmjXrNEgQfT3XnBfEYTErDScWjIcvVz9EFo3S9Uk7ICXzxFkS6uQEuiJQR/9ioxmzPVK2mUlyBUZwrwdC7a6HBJJCcryoxG4cBTshGPhu2szPho2BIMHzMJBESCJ/h5e7isQlJiFtFNLMLyXK/xCi2QaVhsPFVQkYvd0V8zZG4+ce6exyicAd+VyKJsXgvVzlyAgPAE3ji3BMOEIrL4kUhorMkpwbctEjFsbjVr9Epz9fBDs/zUK734wGRtCKzTGTpMfNdqqACuOw9Gv3oVd9xFYF1EFsEW4fmARRtkJ8Z7/Ueyd54oPPKbjg/59MDHgnmyMNHt8yFDtkyIUNCP3KNGi/KCCJ4pfITIjfsScAdbo5fEjDq97F+8MHIsxg+0hHO2HqyV1hSXR+N7LHSuCEpGVdgpLhveCq19o3QKtBgk7vOBzJBvSqhQEeg7CR79moEbJ/8q6rpBqq1sFavxUVHAdBxaNgp3wPfgf3Yt5rh/AY/oH6N9nIgLUO11NXlLXuBxsMWIPLcEYYQ+M9A3C8bWemOb1KSYPtsegJSGIPTgfbpNm4bMpg2A/fC0aUpNae1kUxx7CkjFC9Bjpi6Dja+E5zQufTh4M+0FLEBJ7EPPdJmHWZ1MwyH441tZX+IT+YCW5EBmaox3LorpcAklJheyDp9r+ydkuzxPpTjlvsIXqcpyGGLVkvCrmWQA1dw5gY0AMcoolkEgkeBS7C3PHT8bKM4Xg8xikH5qJQZN/wO1H+Yjyd4Vw2Dpcq9A0N2pDXZ2K1z2hPzTke9VxKEK+Cltadf5VhMlGxI9zMMC6Fzx+PIx1776DgWPHYLC9EKP9rqKE1wFd3yzAb/MmYO7eFEjBR4cuFkjb4YnxXwYhV7YqfyIfPFfoVYPJo59d9Ml06jEqJyIiKd3/bijpmTrRwpPpVE1Ekv96koX+MPruvpSIyaMj7nbk+nMmMUREtUn03cgO1HnmCSojInq8j8YZmJPHfytltaVsoAEGPWnp1WpZe9VXaWlPQxr87d8kJSIqD6dFQn2yXxZFVbIOUf6B6TRtVxYxxFDBUU8atSKaZKUZytw+kvR0HWhNXK2sPjmYvCPkbudKP2cyRERUm/QdjezQmWaeKCPpnU000MiR1iXWElEtXV/Zmwz6r6G4WiIqj6RlfW1p1klxXU1ldGa2Fem+tYyuVZPmskowlLndmfQM+9DCC4UkTr5EIbdFVFtwlDxHraDoOjcwmdtppJ4uOayJo/KopdS7/3KKrpSVzz+8gX5MriVGQ5laNe0wtYm0/l+GZDXrJEnq+pO773NaFlxKRFK6s2kgGTmuI5kp12llbwPqvyaOVJpC5RS+SEj69ssoShYcYvIP0PRpuyhL5mJlFOIvPvcZCe0XUbjsv0TlkbTEXo8sp/1O+Uw1RS3tTf2XR5PM9Hw6vOFHSlbdGaW6lbTL5NJPLgZkNedcnZZkPnPWM6Q+Cy9QoTiZLoXcJpHoHH0mtKdFjZ2iyCX2pGc5jX7PZ6haTTyUKafIZX3JdtZJalDOmdlkpfsWLbtWTcQU0FHPUbSiMYC0faQe6Tqo1k5t4nr6VzsnWp8slf3/1tfUV787LQir1hI7DX4Ua7aViOjxvnFkYO5BjW79mVz0TWnqMVlGIOl9+m6oHpk6LaST6dVEJKH/elqQ/rDv6L60heNDo0+05B4ltOWHx7RvnAGZe/xX5hclniZ+1RS1tCfpWo6mtSEPqZbKKWXPJLLi65Gj722qJTGd+0xI9ovCG9ouj1xC9nqWNO33fGKqo2hp7/60XCYyYvIP04Yfk6lWlf+VdK2l7rpjjWj2k/T+dzRUz5ScFp4kWXj/S54W+jTsu/uyHK2A5rykrCclmFz6yUWfjAatpPA8KRFV061v+pNu+8G0/MJDqiWi2rhvqL++LfmEVjXDXoZyf3IhfaNBtDI8j6REVH3rG+qv254GL79AD2UV0jf99cnWJ5SqntIfTO5P5GJgRXPO1WcZbf1T5Gl0J19P/WnlHFeUpz5GVVrGq1L8FPJsbdIZOpNad3FpFH3t2I7Mhn9LcVVEJL1DmwYakeO6RFkcr6+k3gb968ajmjmrrplGFMatxjqVaak/1M2/muOgxpZWnX8VqI6ipT11yXL0Wgp5WEtUnkJ7JlkRX8+RfG/XEklTaMMAA+q59Gqdrqvp6tKeZDj4W/pbqnncqvXBc6ZZ9/ReKngmMGkn//0NH+3aGYNv0h+urt2gB8BY2ANdeCWQFBMgDsbREH04ONU90CN4G0vDRMjZPxHGcrU0G6Oh8PliGHIObMPxAhZgMhF0VheTpnQBDxUIOxGCnLtnsNXfH/7+m3G40hW+fjPgaKhYESAOPooQfQc41T3ZIXh7KcJEOdg/0Rh8oTcORByGj002wgI3Y1+0GGx1JapYoCxkJ/an94HzKLO6mgzQzcYS9T+GqqmsMjwYGuqBZ+oEl+EdYdbLBa59O6Aq7ARCcu7izFZ/+Pv7Y/PhSrj6+mGGoyEEVkJYZ27D+BEzsel4MnTdV+OLXgJUaCijrh2eoBdme49BxYkABOWwAHMXR2PewNTR7QDwIfQ+gIjDPrDJDkPg5n2IFrOorqxSunMiwwhDfb7AsJwD2HZc9vVvZtBZ6E6agi7NGgnFOL3nd2Tb9YND/fY/o4FwnyjEozNHECwRwEpojcxt4zFi5iYcT9aF++ov0EugUI06lLSrDM/QEHo8Uzi5DEdHs15wce0LnN2D37Pt0K+xUxjoPhHCR2dwJFiiNh5KlIVg5/509HEehQbldLOBZb1wKsJwIiQHd89shb+/P/w3H0alqy/8ZjhChXwhzUhHdk3j16mCbt3QBbnIyKjUEjv1fiw+rdlWVfBMTNA0JbRDO2M+TPq7wrWbHgBjCHt0Aa9EgmJq4fjQ6BMtuUeJluUHJZ4qfjwYGhqA33EIJrhYQQAj2Hutw9z+hMTwcBQ8Oo09v2fDrp8DGqXvjonCRzhzJBgSgRWE1pnYNn4EZm46jmRdd6z+ohcEqvyvSLGWuhUu1+Ynfrt2MOaboL+rK2ThFaJHFx5KJMUqH1zTnJeaAa8djI10oNftHTh14gPQg9DOGgJ0wTtDrSAAILCxRmedEojF1Ax7eWhnbAQdvW54x6kT+AD0hHawFgBd3hkKK1mFsO6sgxKxGNTK/tDePwWeSnfKqMpxBhHqY9Si8QrlPCt4+wN80FMAsCKELJ+F/3s4Clv2LUV/fQB8IbwPROCwjw2ywwKxeV80xGw1KqtY9XNWk8ZUoLFOZVrqD7X5XmMc1NjSqvOvAjxDGBrw0XHIBLhYCQAje3itm4v+lIjwcO2vUNQ0btX64DmjVRsvHzrQUdgwpfR/Ph86ILAEMKJCPKqSoFisMvU8AXzYzliMKQZnsW1XIqqSDyH0jWlw6wCALUWRqBL69hOxbOVKrKz/W7EI43sqioGBqPARqiTFUNk1ngCV8Tsw1zsQuf0+hfdoS/AIABhkp/4NCfgQqIuu2rLqUJwtWZQWiVCpb4+Jy+TsWLkCi8b3hF7X2Th4cRfcTcKxceo76DlkIU5k1WosI7NesR0A4MFyqjcmm4QiYG8Syq//jvu9PeGgV3dWUIn4HXPhHZiLfp96Y7QlT/UkUgffdgYWTzHA2W27kFiVjEOhb2CaWwfFy1TDFCDrYQXYmho07p4UwMbaCrwaCcSPga6zD+LiLneYhG/E1Hd6YsjCE8hS9022EsraVUXTKxgUZD1EBVuDGrktnQIba1jxaiCRdUpFPJQ7xWSn4m8JwFcjHLa0CKJKfdhPXCYXv5VYsWg8lOQLQG+gG959Iw2Xzz8AA6D6TioyzV0wbmQ7QGPseGr8qN1WlUlaR0dhD6Xy//l8HYBYWfstGB/afKIYT/nco0SL8oMyrR0/CLrj7R7GQG01KvKz8LCCRU1Tx8PaiocaiRiP0RWzD17ELncThG+cind6DsHCE1myLTpK/m8KU6ClbsWgavOTjsKzETp8yMKr0unNyEvaULZPh6eDJolIhwceZG+qaI69irqBDg86TSsEjwfZ2zda1R/N6588ra47KOY4LTFqwXiVoSrPssgJ8sG8vdWY+nMAZnev/7TAg6AyHjvmeiMwtx8+9R4NyyaVK9bTHLTVqUxL/KF6/mWaEQdVtrTu/KsNQfe3IUs51VrqeTIfPG9Uj5B/EPw3usLKsADBx86juP4gK0JwwGGkqYoPXwC+igmTSO7i9q5Y9BbDMBMAAC2XSURBVFlf3NnzLfx+voW3PxkFIwDgmaKzpRFSg/bisrjxciY9GGcTFPcX8fFGVysYFgTj2PmGnoEVBSPgcBpKzi3GhFUiTPlpPTwcLRomBoIOOrzeAYKqJNyMr24oJzvJggVQprZsc+HBtLMljFKDsLepIQg+m4Dq7CQ87OKFHZdTkXx6Ffpm7YTPxr+gr6GMovVNaPcuvL2ESN63DX5HSzBymm3d3foynFs8AatEU/DTeg84WjTHkvZwXfQZ+t7Zg2/9fsattz/BKCPFa9TA74we3U3BJMfiZsM2NRY11TXgvdkPDpaE7KSH6OK1A5dTk3F6VV9k7fTBxksKcWhV+OjcoztMmWTENnYKbE01anhvop+DJUhlPC5BsVc6HV5HB0EVkm7GK5wjsCzAM+0MS6NUBO29jMYIMkgPPgsl+QLgdZyI7Tu9oH/5e6zfvhWbThjiq+CDmGPD1xI7Ro0fpVptbY2E1pLx0VKfaKRF+UGZVokfkdyHllpUVLGwsO+NLl16oLspg+TYm417Y9kaVNfw8GY/B1hSNpIedoHXjstITT6NVX2zsNNnI5ojfX5nLXUrBvUp/dQUzbmspbU1hxbbq41W9UfL+9cqutOI5hhJWjBe1SFNC8DcBf+D6X9+xfeTLcEDC3GhCNKyc1g8YRVEU37Ceg9HNGuK0cZT16nZH6rn30uofdI4tOr8qwyR3Ce42gpUsRaw790ZfPAh4Kv4YEgE5gl90Ix01Ka0dGi/BLBgWAKx9UFkwTBSECu3SCaSLT5ZFmj/HmZN7YL8g5/hw0W/IOjPw9j6uReCBENgxwfAMGBAsmsB8C2s0EkvB9EXbqGg8A7O7tyPqyIpirIf4FFp/R0BAXrNXQS32j/wffJgfOJYL0RjjJ3lgW4ZAXB39oTfr0E4fsAfc5ZHwdhW+aN++/dmYWqXfBz87EMs+iUIfx7eis+9giAYYouy++koKMtC2oMyVGWH4/S1PDAVJciLv4GC0dPh9no69i5ehTNZNUB1Jm4lFYIR5yAzX4x8tWVjkFSm2AvIBpC0tsnkYzx2Fjy6ZSDA3Rmefr8i6PgB+M9ZjihjW+hkB2FLwC1UwAA276/CN1NsYKRvgHYaysisV25HhgAOs+dhuOgIjtM4uL1Wd5gtwf30ApRlpeFBWRWyw0/jWh6DipI8xMckKdTRiKDXXCxyq8Uf3ydj8CeOmu9iNYl/e7gt8EYf8XFsD0yTvZ2EzcfFsGwMXTAfw/UZZAdtQcCtCsDABu+v+gZTbIygb6DqzoFi3VDWLs8ABvrA47xcFBfFIDJBNv0RpKiVc1J7twXw7iPG8e2BSJN1CvkXw5A9dAHmD9cHoyYeir3idRyH6W6vI33vYqw6k4UaVCPzVhIKGTFyMvNRojMWszy6ISPAHc6efvg16DgO+M/B8ihjqJAvID6HlWuzMen7jVjhsxjrtqzD9P51XzprjF2CWj9qsxUAGIapG991/WAZsCSb/Ov/z0gJbP0d7YaUIMsJJS0ZH8aafKIl9yihLT8wkJkm++CsSGvEjy3KREadjWzuKZxK6A3v+aNh0N4NC7z7QHx8OwJljgebfxFh2UOxYP5w6DPZCNoSAFnI3seqb6bAxkgfBjoq/K+o68zRmuuuK9aIZj+xDAMpsXITNYHqxpkqv2nKZQJVelKCAcvK4tIAyWLdsFQgAoEFywDQ5ksAjKxCuf6SzI7GCkEEsCzz1P7gGRhAH4+Rl1uMophIJOhq7588raE7RRRznPoY2aBcy3hVjp9Cnq2IxbefrsTV7iuwb6MLzAEAYgSfvIzSkvtILyhDVtoDlFVlI/z0NeQxFSjJi0dMUpmGOUuepuOW1VqnMs33h/r5V0djrpK1otqWJ5t/K278iJluH8PvfJ5CffKwKMrMgMxqFrmnTiGhtzfmjzYA+Baw6qSHnOgLuFVQiDtnd2L/VRGkRdl48KgU/CfxgWLzzxrFTd0vN2WUcnotvdeZTwKbibTxbBpJEo7TKhcL4usKadrWc5ScdoUCFwwhM54ROczZQ5E5DFF5Ch32GU3CjibU3sqJPLZeoUKGiCpT6cwaV+rE55P1xI10MukxET2myA1jqaupKVk5TKEtoedomWMPGjnTlw7deCTXlyoKX+RI43bnKDxEUU4ph3xotJ056euZUteh82h/Ut3DRCooTzlMPqOF1NGkPVk5edDWK4XEEBGTc4IWDOhEJubdacScnRT6mxdZm9mS25ZrJCGGxNd/Jq9B1mRuZkNO474g39mDqNtgD/p63zXKydZUVh6GRLeO0soxlsTnW5Hr6qMU+6jRmvKUQ+Qz2o7M9fXItOtQmrc/icqJqPrqKhrSvT+N8fqKfP1W0Lx5/nS57oE21WU0tyNDTH/OdiO/2/IPPjCUc2IBDehkQubdR9CcnaH0m5c1mdm60ZZrTS1RpCp8ETmO2005is3IozL+tZRxajWNd3Qg52lz6T+fTifvbeFUwJDsoY5VQ6h7/zHk9ZUv+a2YR/P8L1Od6U1RqjtPSbtEUrq372MSmr9GwolbKSrzFh1dOYYs+Xyycl1NR2MfNWirNuMUrR7vSA7O02jufz6l6d7bKFzWKY3xUIQRX6efvQaRtbkZ2TiNoy98Z9OgboPJ4+t9dC1PNlYO+YwmO3N90jPtSkPn7Sd18mVyjtAn1vqkAxB0dIina0CmFj1opPdBulOtKXaFGv2oydbK1DO0xrUT8fnWNHHjSUrKS6HTa9+jznwB2UzcSGfTCijh+CpyseCTrnAabT2XTGlXAmnBEDPiGTnQnD2RlN3s8VGHGp80K/cooS4/VFLqmTXk2olPfOuJtPFkkmJBoqeKXy3FfdOP9CwH0dQ5n9PiLz+nTya509enMxsfNKzNoFOrx5OjgzNNm/sf+nS6N20LL5BpsPoqrRrSnfqP8aKvfP1oxbx55H85n5gyRf9XKek6ulRL3SpR4ydJAh1f5UIWfF0STttK55LT6ErgAhpixiMjhzm0JzJHsSIitXlJhZ4eK5Yso5RTa+k9Kz4JbCfT5tOJlBn/J60f35X4Alua5P8/uv0gloLWvE9WfAF1m+RPwfeqNdpblnKK1r5nRXyBLU3efJoSM+Ppz/XjqStfQLaT/Ol/tx9QbNAaet+KT4Juk8g/+B5VP40/pPdo38dCMn9NSBO3RlMptTweT647hXpE6nOcuhhpmgvzleKnuEZIpKiVfcmAZ0aOHktp+fLltHz5V7Ro5gh66+OjVM7k0IkFA6iTiTl1HzGHdob+Rl7WZmTr9i2FhGubs0j1uFVb5xZSnLaexB8a873KOLTF/FtMOfsmUSez18liqJ9cGTlq4+ibfnpkOWgqzfl8MX35+Sc0yf1rOp3Z+Gjz48gNNLarKZlaOdCULaF0bpkj9Rg5k3wP3aBHzBP64DmiQ/Tcfw7q1eT/27vzuKiq/g/gH2ZGViW0NBEVRBzDHSH3FTTqya1F6cENE4wWXDLLpRRw4bF+ZmqllKKWaPJk5pKQSywqmwu7og+igOwOAwLDNvd+f3+AAgMDYmJp3/frxevF684933vP/Z4zc+6dc++I6djhsh4dt/jijepTZva3ISJ9hwvWd9wCX05OqxEzj8Lbtxivu9hAvKNEUYkKJcosxB3ci2y3QGybqHmtjP111IhdbYfhRyYj/NJa2Gi58sgYYw+s8hxWvncJG3Yu0nwFUMditd1wHJkcjktrbZr+pvkp8RROKflrCSUFUJaLKAnfjlOms/Aqj+f+PoQSFCjLIZaEY/spU8zi5LQeMRM/eixGnOXLGGDZB4OGjMRY+4l49Y3pcLR7EX21fZfM/nJaZ04wxtiDEhUI/+44np01R/MVDf+cdxwecD9K6nisH2eKTp0644WFBZizZOT9xyqxv5oa8evHwbRTJ3R+YSEK5izBSE5OK5LBpLMB/lg0FPazFmGV93qsW/Mx3pn9Ln6xXADX+08BYH8PahQU3IVQpIDyQX5UkDHGtBKhTIiFOMkTS8dpubClLkDBXQFFCmWDX2t+WvGUkkdKjbTfd8A/8Tm8NGcG7Dry+czfiTrtd+zwT8RzL83BDLuOfLbZ6iqQGXUcR0MSkKWSor35YEyc+jL6P8uD7b+XCqSc2oP/ht1CkVoGE4txmDHPAZY1j/5ijLFHqiIFp/b8F2G3iqCWmcBi3AzMc7DE0/6WwwNuxhhjjDHGWhFf5GOMMcYYY6wV8YC7FQjK60i4Waq5mDHGGGOM/QPxgPtREtLwx6Y5GNxjAOb7p1X/rHFrqwzHmtG9MWrxceT8c272ZYwxxhh7YvCA+1GSmsP+g3kY3b6lP2768CpjjiKw6nWsXzMJnZ+YbIrIv3QRNx7LGQljjDHG2F/riRmiPTGkRmhn9LgOq4DbN7tg6YF1GKvlyTt/S6VR2LJ6D643/A1ZxhhjjLGnzuMaGT5WYuENRIWeRWx6ERRZ2ag3m1qVhYTzIQi7lIbi5qZgVOYhOSIEIVEpUGpejRWUSL14FmGRycir9xBJHejoVP9H6nxcjYxEUk553RUAVToSkvMhlGchLjoZBTWx1YrriAo+g5ALqSjU2J4qPQHJ+QLKs+IQnVxQPV1FXQh1j/54Lu0yUjUKlKYn4JpCBCpzkRQejit5zYxu1QpcjwrGmZALDWKJxTeRlFoMUVAiJTIMUSmFGtNl1FBcj0LwmRBcSNV4TaOud3IisXXuLGyKvoXYk0EITsy//9h7VVYCzoeE4VJa8T/oUfiMMcYYe9o9dQPuyvitcPHYjwx1Oa74zcSwN3filhoARGQHrYXbUl+Exl/AwaWjIB+zCqcVjQ3tROSHrMccl//D6bQ8xG+bArmdB45kV69bGPkVXJyWIyAhHdeOLsXoPo7wDq4dOAIA5f4GjxE2GOEwCv0trDF1y0WUiHmI9FuE8VZyTPTcgY1vjsKI4UMw78c8pO6bi2FvbEHcnRyE+zhCPsoLESpAzIuE36LxsJJPhOeOjXhz1AgMHzIPey/tw9xhb2BL3B3khPvAUT4KXhEqiPnR2Lt4PKzkr8DnwC4scHwVzrNfxaD+0+CbonnWUE1IbTwWhAyEbXPFEPM+cN7mD6+XBmPoxAkYbi2Hvfd5FFUXxr65w/DGljjcyQmHj6Mco7wioGq0ri9i9nc3YdC+LUSxAqWFhShSqQExG0Fr3bDUNxTxFw5i6Sg5xqw6jUZTwxhjjDH2pKGnSgWFf9SPBn0SSWVEREIO+a/bRklVRELuAZo5fjlFVlSvKaRtprG6bchmdQxVaUQRsveTk5UjfZMmEBFRVeIXNLZDF5p7uIRIeYLekVvT4tCymrVL6dxSa9I1fYt+yhGIqqJpRT9dMpuylaIVaqKSBPp+ugW10bMj7/gqIiGNNo/TJYP+i+hknpKSTgdRXF4SbRhqSLZeCVRFRFXRK6if/iBaHVO9Z0LaZhqna0D9F52kPGUSnQ66TBHrhpKhrRclVBegFf30aVBNXdQ3vqCRusZkt+gIpVYQUeHPNLOTHo364gap69SzmpqubtAeiyrC6aPebcjUfg0F3a4iKr1C379mRlJdW/KMqyL11Q001NCWvKoLU/SKfqQ/aDXFVFHjdVVUUdbXDqRv5konyomIBMo9MJPGL4+k6tQIlLZ5LOm2sblff8YYY4yxJ9lTdoVbBjO5OdK+nIIxczfgUFIbOK36AH1kgCrkMIIyr+P4Jh/4+Phgo38ZHD29McfWQDMIlIEHEKRnA7uauxBlfT9CiCITe6YZoeDY9/gpwwoDbe79LrghhjpNg/zOcewPLKxZJoXpiw4Y3EEKGPXD25s+xCidBISdvQNRYgADXQmM7RwwuqMJ+jg4YkDHF+C+Nwz+HhbICPHDxt2RUIoVKCuvvsQrMTCArsQYdg6j0dGkDxwcbTDkvb0I8/eARUYI/DbuRqRSREVZOUQA0rZtYSRth0GOjuihC8BIjl7dJCgqLGjkZk4p5O7aY0FiAAN9KTqOmAoHMxlgaA0XLzcMogSEhuZCR+6OvWH+8LDIQIjfRuyOVEKsKEO5WFNWs64dNJucCiGHg5B5/Tg2+fjAx2cj/Msc4ek9B42khjHGGGPsiaM5+nnCSdB9/o84tcMJ7ULXY8bg3hix6DDSBRHF+QqU6Vlj2rIVWLHi3t9yLJ7SG7J6MQQo8u6gvLAAygajUwG56behEitRWWdatszCHGaSShQq7zY691jS0RI9THQgqKuqF9TM8a6zBmRlsdjq5g6/rIF4290eppL6G9csIpGVIXarG9z9sjDwbXfYm0pqB9M6OvXX15FCqgOQ2KBCQHOxGiHr2Re9jICqigqQRIay2K1wc/dD1sC34W5vinq7rrnjmsRi5CvKoGc9Dcvu52UFVixfjCm962eGMcYYY+xJ9JQNuAVkJN5GN5etOJOchGMrByB9uwfWn66CcRdTGCYHYNcZZZ3VUxH4Wzzq304oxfPdzWCQG4iDvxfcXyoqAuHrn4Lne/WEsZCEi5dUta9VVqBS0hUDbUwbP6CqfNwp645Bg59v/PWSE1gydSUU07/GWmdbdLo3ztQ66i3BiSVTsVIxHV+vdYZt8wWa8GCxiOqcSlSpUC52gnW/Lig7sQRTVyow/eu1cLbtdP/k5YH3RGKMLqaGSA7YhfqpCcRv8c3c6MkYY4wx9gRodPz35BKQEfA5fC+rAH0L/GvlZ5huYQg9fR0YTZwH5x634Os0DjO9dyLg0F74uH6CcCNLjSvcwDOvzMOMbjn48Z3XsfjbAPzivwnvuwRANsIKHSYthHt/JQ5t9sO1SgAQkXMqBBkjF+K90Xo1EQiqokJUAADKkbBrH268/BkWDde99zLUVbWDSbHoBlJzS5B+7SZKyjMQeiwC2YIKRdmxiEosqSmixv0iYhFupOaiJP0abpaUIyP0GCKyBaiKshEblQhREKAmsc4VbQKBIIpiwyvwzcSqWQn5abdQvSciso4eRXw/d7xnr4uiG6nILUnHtZslKM8IxbGIbAiqImTHRiGxpGFdAQn09fWAu9nIKshH1LkbGDnPGT1u+cJp3Ex47wzAob0+cP0kHEaWMoiKU/By+jfWBdcZjTPGGGOMPUGknp6enpoLn1wCMs58Bc8vDyHm5k0khEZAOXw51jhboa1eD4ydYIm7safwy/4DOHI+B13nbcK6aV3RRjOMfi84vNQTRReO48APP+FkSjtMWrsJ7w5sC5023TDm5f4oPbUF/9kVjEvRQQi6/SK8ti2EbTsdQNIe5t10cf3nLfj213BcijiJi3pzse3zN9FDVoCYg19iy49nkZymhNjFGgP7dIFRu2545k4w9n27GX6n89F71qvQO/MrgrO6Y9o0E5z/Zgt+PJuMNKWILtYD0cesI7o/cwfB+77FZr/TyO89C6/qncGvwVno/tIQ5B38Fn5hV5EnPAOrPs8i98QO7DgQgeQCQpd+dhjcvV1tXXXaopu2WK/Pw8guhQj+bidiigXcio1A6Al/7I/rhZW+n2JMBynadnsGd4L34dvNfjid3xuzXtXDmV+DkdXVAYPzfsIOjboa6gC6z1Th6tGd8N2TAIs352PC6ImYYHkXsad+wf4DR3A+pyvmbVqHaV3bQMz+HV+s/gFZA2bC2e5Jetg4Y4wxxlg1HSJ64G//2T+QOhar7YbjyORwXFpr0+DbAMYYY4wx1rSnbEoJaz0NJqMwxhhjjLEHwANu1jR1AQruCihSKFHvBzUZY4wxxtgD4SklTLuKFJza81+E3SqCWmYCi3EzMM/BEjW3fjLGGGOMsQfAA27GGGOMMcZaEU8pYYwxxhhjrBXxgJsxxhhjjLFWxANuxhhjjDHGWhEPuFtALE5FQkrho39AXnkmEq7m1sYtTUNMXAbK66/19BOLkZqQgsJHfoD/rsqRmXAVuQ9Z31Zrj0+7J6q/iShOTUDKQ3aK8swEXH3YBsYYY+yReXoH3EIBEo9sxrIF8+H6zgdY/OEKfH4gEjfj9mJvcPWPrj8wIQN/bHLBkB594fRdMur+UPmfIhYiZt+HcLCywrh152oeuyfi1ndzMHyEG/bm/FM+KAVk/LEJLkN6oK/Td0h+ZAf470pEYcw+fOhgBatx63Cupc9bbK32+LR7wvqbkPEHNrkMQY++TviuhZ1CLIzBvg8dYGU1Duta3MAYY4w9ak/lgFvMOYVPJ9jh3wdlmPzZt9jp+zW++vJTvN72N8x3fBf7rxVpFmmatBvsPdww9lnCI32ki8QENs5LMFVeN64EFgt+QET495jb+dGkR8y/hIs3BM3FfyNSdLP3gNvYZ/HPeGaOBCY2zlgyVf5w9W2t9vgXeKxt8wnrb9Ju9vBwG4tnH6KRSExs4LxkKuQPUZYxxtij92g+Yf5O1FewdaYTtlS4Yf8eD4zpplfzghGsJnvhoO8smNxVahR6AFITmBjraC798yTGaGekEdfIHDYDu0G//tKHVIqoLaux53rLrpA9flKYmBijFY7w35QExu2MHr6+rdUeH6u/oG0+Yf1NamKCh02zxLgdNKvKGGPsr/HXDLjLbyFkzxfw9NwIvz9SodJ8/U9QHtmAjaEiHN5xRf8Gv9AiQcdXP8S8AbVL1IrriAo+g5ALqShs5KKUuiAF0aFhiMko03yp2bKaKvOSERESgqgUJWpXl0CnwYdiOTLjr6D+N9wqZCWcR0jYJaQV1//quzQ9AdcUIlCZi6TwcFzJq/mwF/MRuXUuZm2Kxq3YkwgKTkT+vaKqLCScD0HYpTRohKtHLL6JpNRiiIISKZFhiEoprN53MRuxp4IQGBiEs8mFECEg69LvCAwMxO+RN+vntKltqQuQEh2KsJgMNDzCaLLe9YkovBGF0LOxSC9SICu7tM5r2mKokJ6QjHyhHFlx0Ugu0JZENRTXoxB8JgQXUu/VvwBXw4IQGBiIwMAgnLtWBBFAccp5/B4YiKBz12rmojdStoakYeIBtQLXo4JxJuQCUhtpVE21RwAQlKm4eDYMkcl5zfwyqIjim0lILRYhKFMQGRaFlEa211Q8VXoCkvMFlGfFITq5oF7d6hGUSL14FmGRyci7F0Rr29Sek6b2pTF/rr8BqqwEnA8Jw6W04nrz5B+qv2ltg41RoyAlGqFhMWg8zQ8YS6LT8ISumfbVgLa+q8pA/NVciBBQmHoR4THpuNfjKnOvIPxcHLLqTooXi3EzKRXFogBlSiTColI03jO1511bHsTCG4gKPYvY9CIosrLvb7+pPscYY3+Vxz/gLo3GBkdbOLz9Mby8lmP+RDtM9A5HieZ6D0WFsKMnkSeRw+7FDpovVpO9gJdf7g1AQOq+uRj2xhbE3clBuI8j5KO8EHF/pKhCwnez4ei6C7GZKTi20gO+1++9dTdXVoOYj5D1c+Dyf6eRlhePbVPksPM4guwGn5UilDEH8PFLVug5xgthNR9YYnYQ1rothW9oPC4cXIpR8jFYdVoBdX409i4eDyv5K/A5sAsLHF+F8+xXMaj/NPimCBALs6AwaI+2ooiK0kIUFqmghojsoLVwW+qL0PgLOLh0FORjVuG0QmNnhAyEbXPFEPM+cN7mD6+XBmPoxAkYbi2Hvfd5FEk6oHvXXPywYCrcdl2BGlJ06NYJ17bOxJQPA5BVPSptcluqhO8w29EVu2IzkXJsJTx8r9f7cNRW7waHDZWI3+oCj/0ZUJdfgd/MYXhz5y2otcbIR06kHxaNt4J8oid2bHwTo0YMx5B5P0KhGVpIxb65w/DGljjcyQmHj6Mco7wioJIY4Vm9ZHw7fzKmrr8Mky5GkAAwfL4tojdvwkVZBxiSlrKa26ghpO7D3GFvYEvcHeSE+8BRPgpe9xtVU+0RAAoR+ZULnJYHICH9Go4uHY0+jt4Irh3x3SdkhGGb6xCY93HGNn8vvDR4KCZOGA5ruT28z9+bbqU9npgXCb9F42ElnwjPHRvx5qgRGD5kHn5scPCAwsiv4OK0HAEJ6bh2dClG93GEd3A+1A3aZkkTOdG+L436k/0NYjaC1rphqW8o4i8cxNJRcoxZdRr5uQ/T37S1wcbaMQBVAr6b7QjXXbHITDmGlR6+qJvmFsXS0HT70qSl7+bfwcV9SzFB3gtjPQNwaM1MvOXyNt4Ybo1hS4Nw8cf3MOm1eXhn+jBYj16DCJWAjLBtcB1ijj7O2+Dv9RIGD52ICcOtIbf3xvkiEXna8q4lDwoRqIzfCheP/chQl+OK30wMe3Mnbqmb6K+a1WOMsceNHiuBcnZOonY6IKD2T8foJfr2tqC5cssJ6fTVeF2C3ku0I0/zRQ3qq7RhqCHZeiVQFRFVRa+gfvqDaHVMFRERlZ5bRgMs59ERZc36JcdpvlkbemFZBFU0U7Y+gbL3O5GV4zeUJhARVVHiF2OpQ5e5dLiEiOgu7Z6sT+2df6aye+t/40B6xjPoYCkRCbl0YOZ4Wh5ZURMujTaP1aU2NqsppopIfeMLGqlrTHaLjlBqBREV/kwzO+nRqC9ukJqIhKyvyUHfjFxPlFcXzz1AM8cvp9pwm2msbhuyWR1DDfa+Ipw+6t2GTO3XUNDtKqLSK/T9a2Yk1bUlz7gqIvUVWjdEn3p/dJ6qw1XQ+Y96k8Hw/9D/1M1sq/QcLRtgSfNqDzAdn29GbV5YRhEVzde7nopw+qjfIPoksuYI5vjTum1JVNVkDIHSNo8jXYP+tOhkHimTTlNQnII0W6H66gYaamhLXglVRFRF0Sv6kf6ge/tQRQlrXyQDs3l0pLBmE1m76f1lgVTcbFmiu7snk357Z/q5jIhITVc3DCVDWy+qXj2aVvTTp0E1eWmyPRKR8sQ7JLdeTKHVh4Co9BwttdYl07d+ohzNShFRRfhH1LuNKdmvCaLq1H5Pr5lJSdfWk+Kqmo8npG2mcboG1H/RScpTJtHpoDhSaG5HeYLekVvT4togdG6pNemavkU/5QgN2iZR4zlRNLMv9f3J/kYC5R6YSeOXR9a0aYHSNo8l3TY2tDqmqsX9rUXtmErp3LIBZDnvCNWmeT6ZtXmBlkVUtDAWEd3dTZP125Pzz2XNti9NTfZdIYu+dtAjw2ErKDRbTUQVdPmzQdTmmeH0ycnb1e+JMZ/RID1L8gguJ6IKCv+oN7Uxtac1QbepikrpyvevkZlUl2w946iq0bznU7bWPJRS+Ef9aNAnkdU5FHLIf902Sqpqvs8xxthf5TFf4RaRnZaBco37eKgiA7duP4I5jxJDGOpJoENVKC9v5pqPVA73vWHw97BARogfNu6OhFKsQFm5CKAEQdv3ILX/OIw3qVlfvwcsTKUPUFaTEoEHgqBnY4fqe7Jk6PtRCBSZezDNSHNdAJCgXbu2tV8Fq0JwOCgT149vgo+PD3w2+qPM0RPec2xhAEDati2MpO0wyNERPXQBGMnRq5sERYUFjd5Qpwo5jKDM6zi+yQc+Pj7Y6F8GR09vzLE10FwVkBjAQF+KjiOmwsFMBhhaw8XLDYMoAaGhdR6rpkVT2yoJ2o49qf0xrvYAo4eFKWqOcLP1rkdmBrl5Gr6cMgZzNxxCUhsnrPqgD2RNxpDAwEAXEmM7OIzuCJM+DnAc0KHBVz5SuTv2hvnDwyIDIX4bsTtSCbGiDNWplqHPfHdMUB2Gb0AmRAi4fiAKz8+wR9tmy2qSQu6+F2H+HrDICIHfxt2IVIqoKCuH2Fx7RAGOff8TMqwGwubeRGTDoXCaJsed4/sRWFizrA6JgQH0pR0xYqoDqlPrAi+3QaCEUITm3mk2nsTAALoSY9g5jEZHkz5wcByADhoHr+DY9/gpwwoDa4NgqNM0yO8cx/7GdqrRnAC/NbMv9f3J/gYVQg4HIfP6cWzy8YGPz0b4lznC03sObA1a3t9a1I5LgrB9Tyr6jxuP2jRb4H6aWxKrgabaV0NN9V1I2sLIUAe6PQbDrrMUgC7kVuaQoRsGjzSDDIDMwhxddIqgVFJNXvUh7TgCUx3MIIMhrF284DaIkBAailyxsbzrI0xrHmQwk5sj7cspGDN3Aw4ltYHTqg/QR9bSPscYY4+P5viilclgNcQWne6PqqpJnrPF0N4NJlw/hGcw2FYOmXAdiYnNzfKUQFYWi61u7vDLGoi33e1hKqn5yBQykPy/QkAq03KAmiirSVAg7045CguUjX8gN0JHp3bupVicD0WZHqynLcOKFSvu/y1fPAW9ZQDqrFtdWAqpDkBiY1sTUZyvQJmeNaYtq421YsVyLJ7SGzLN1Rsh69kXvYyAqoqKZurT1LaskJ38PxRCClnjB7j5etcl6Y75P57CDqd2CF0/A4N7j8Ciw+moajZGgxmuDUlkKIvdCjd3P2QNfBvu9qaom2qJ6Qy4v9EOwb67kFgajZ9u9MNMm5q23ExZTRJZGWK3usHdLwsD33aHvamk+hg31x6FXKTfVkGsrKzzLGkZLMzNIKkshPLug4w2ZOjZtxeMUIUKVc4DxWv66AnITb8NlViJyjpzeWUW5jCTVKJQebfRgV6DqC2t25/sbxCLka8og571NCyr02ZWLF+MKb1lLexvLWvHQkYyqtPcaJZbFKsxWttXA0313d6QQafBPHgdiU7195W1CyBBE0/RkfVE3+o3ElQQGua9yTzoovv8H3FqhxPaha7HjMG9MWLRYaQLLe9zjDH2uDT+zt6K2v5rHXYsGoJnZToAdCBtb4v3d/wH0+5d0vlTZBjk4oqx7XJxzO9QI3M2AVRex4nf4oGSE1gydSUU07/GWmdbdLr3gUUAdDrguQ4ylCdeQqzGI7tJFJsuq0n6PLqbGSA38CB+L7i3UIQi0Bf+15q/nUdi3AWmhskI2HUGtc9WEZAa+BviW/ylgATGXUxhmByAXWfqPKlFSEXgb/Fan+dMVOdAVqlQLnaCdb8ukEIKmbSRwQYRhCa3lQDj5zpAVp6ISw0PMMSW1lvIQOLtbnDZegbJScewckA6tnusxx96LYihRcmJJZi6UoHpX6+Fs22n+ycltTVui5fcXSBP2o0vvQ+gaOxbsKw5oWy+bF0lOLFkKlYqpuPrtc6wrduommuP0i7o1dMYQtJFXLo/WVVEZUUlJF0HwsZUWzcn1E9tOcRO1ujXrdtDxqtLii69esJYSMLF2iAQKytQKemKgTamD/bm09K6/cn+BokxupgaIjlgF+o320D89qCNpo6WtGOdDs+hg6wciZdiUT/NBFFsWayGmmhfDTTVd7W/TzSLqM5JVhVU5SI6WfdDF40LMEBzeahARuJtdHPZijPJSTi2cgDSt3tg/emKFvY5xhh7fB7oM++Rkphi0qZw3LgWieDgCFxLjcLWqWaPbEekVu/Cd9sMtD2+GDNW/Irrde7GFJUXsXfDEZBNP4hFN5CaW4L0azdRUp6B0GMRyBZUKMqORdQVA0yePQnPpe7CkpXHkV4JVKRdRmKeAGVmGrIyrmovm6h5++czeGXeDHTL+RHvvL4Y3wb8Av9N78MlQIYRVlIAAgSheuB078NIFERQzcATRhMxz7kHbvk6YdxMb+wMOIS9Pq74JNwIljJAFASoSawz6CUQCGJNPIm+PvRwF9lZBciPOocbI+fBucct+DqNw0zvnQg4tBc+rp8g3MhSyxVuEflpt2puahWRdfQo4vu54z17fUDaCWaddZEZeRKXc/Nw9bft2HNeAXV+Bm7eKYZ0orZtWcF08mxMei4Vu5asxPHqA4zLiXkQlJlIyymCqpl61yNkIOBzX1xWAfoW/8LKz6bDwlAP+m2bi0GAuqqJAYSIohupyC1Jx7WbJSjPCMWxiGwIqiJkx0bhXqplNvOxYLQC+w8RJk969oHLCtWJhygCEItwIzUXJenXcLOkHBmhxxCRLUBVlI3YC7lNtsecojaYtNAd/ZWHsNnvWvUTPMQcnArJwMiF72H0vSdjahLzkXarphJiFo4ejUc/9/dgr//MA8UjqFGl/eDhmUkL4d5fiUOb/XCtOghyToUgY+RCvDdar0HbjFehkZw82L7U+pP9DUaYOM8ZPW75wmncTHjvDMChvT5w/SQcRpayFve3eJ3m2mAtScfJmD3pOaTuWoKVx9NRiQqkXU5EnqBEZloOiloQCwAgCBBq9q3J9hWVqFkSRlr7riVkECCKNSd791D1gPr+wJYIBBFi3Rs+89NQ29yO4mh8P7i/Z1/zOEbNvDeVBx1kBHwO3+oOj3+t/AzTLQyhp09N97m7CpzycsK/1wXXOWFhjLHHRHNS99NBTbnnt9PCKS+SvFd/Gjb+FXrtrbnk9vF2Op9Xc5eVkEmHFw6hzu3aU88xrrQ9+AdyMTchy0mfU0QhEQlKiv7GhYaZtycTCzua/IEnzR/Wg4Y7f0q7z8c0XbaBUrri70H28o7U7hkzsnPeRGfzBCIqo+Tjq8mxs5Sk5tNo/ZFEKrlyjNa80oWkMguatv43ulZORKVXaJ+HPVm11yNd4+40csEeSiwlosJ4OrTSgTpJ25D8rU10IukanfVbSCNMJGRo40rfn8skUqfQ7n/Lqf2zcpq2KZKKiaj0yj7ysLei9nq6ZNx9JC3Yk0ilmrtMRFQVQ58N1CXTYTPI9f0l9OH7s+g1p0/pWJr6/ip3z62jid2NydjMhqZ/HkwnltlSr7FzyXPfBbojNLUtgZTR35DLMHNqb2JBdpM/IM/5w6jHcGf6dHcEZQtN1FtTxXlaOaInDZrgQh97etPyBQvI50xO9Q2QjcYQSHH5AK2YYEpSqRk5rjpAF+80uPuOiIiEzMO0cEhnate+J41x3U7BP7iQuYklTfo8guqmWvnLfJrkHVfvBrSmyuYkH6fVjp1JKjWnaeuPUOJdgTIPL6QhndtR+55jyHV7MP3gYk4mlpPo84jCpttjRDYRVdGto6toiq0NjXvLjd59eza5fxlKuY1Xi6piPqOBuqY0bIYrvb/kQ3p/1mvk9Okxqk2t9niC4jIdWDGBTKVSMnNcRQcu3mlws+k9VbeO0qoptmQz7i1ye/dtmu3+JYXe26l6bTOc0rTmRPu+NO5P9jcqpSv7PMjeqj3p6RpT95ELaE9i6UP3t8bboOY+VxOU0fSNyzAyb29CFnaT6QPP+TSsx3By/nQ3RWQLDx6rLJmOr3akzlIpmU9bT0cSC5tuX41ovO+W0JWja+gVMynJLN+gjccSKC32F1o7pTtJZZb0ms+vFHfzIgWs/heZSWXU4zUfCkwppZjPBpKu6TCa4fo+LfnwfZr1mhN9eiyN1NRUX9SSB6qg8ytHUM9BE8jlY0/yXr6AFvicqb6Zt4k+V6hOoW9eeZ46T9pBqbVvYYwx9ljoEPFPkTEt1LFYbTccRyaH49JaGy1XwNmTSB27GnbDj2By+CWsteHMstakRuxqOww/Mhnhl9aCmxtj7J/oUc3kYE+1xibDs6cCp5Y9RtzcGGP/VDzgZtqpC1BwV0CRQvlAv+zHnhzqggLcFYqgUHJmWWtTo6DgLoQiBbi5Mcb+qaSenp6emgsZQ0UKTu09ibyug9G3bQHSqQsGWLavfU42e2JVpJzC3pN56Dq4L9oWpIO6DIBle84saw0VSDm1FyfzumJw37YoSCd0GWAJbm6MsX8ansPNGGOMMcZYK+IpJYwxxhhjjLUiHnAzxhhjjDHWinjAzRhjjDHGWCviATdjjDHGGGOtiAfcjDHGGGOMtaL/B4o+onTeJLL1AAAAAElFTkSuQmCC;" vertex="1" parent="1">
          <mxGeometry x="-30" y="-80" width="520" height="197" as="geometry" />
        </mxCell>
        <mxCell id="voNVv0d4LPMG87MhzOCo-2" value="cliente" style="whiteSpace=wrap;html=1;align=center;fillColor=#f0a30a;strokeColor=#BD7000;fontColor=#000000;" vertex="1" parent="1">
          <mxGeometry x="-50" y="220" width="100" height="40" as="geometry" />
        </mxCell>
        <mxCell id="voNVv0d4LPMG87MhzOCo-3" value="coche" style="whiteSpace=wrap;html=1;align=center;fillColor=#f0a30a;strokeColor=#BD7000;fontColor=#000000;" vertex="1" parent="1">
          <mxGeometry x="290" y="220" width="100" height="40" as="geometry" />
        </mxCell>
        <mxCell id="voNVv0d4LPMG87MhzOCo-4" value="reserva" style="shape=rhombus;perimeter=rhombusPerimeter;whiteSpace=wrap;html=1;align=center;fillColor=#76608a;fontColor=#ffffff;strokeColor=#432D57;" vertex="1" parent="1">
          <mxGeometry x="130" y="220" width="90" height="40" as="geometry" />
        </mxCell>
        <mxCell id="voNVv0d4LPMG87MhzOCo-5" value="" style="endArrow=none;html=1;rounded=0;exitX=0;exitY=0.5;exitDx=0;exitDy=0;entryX=1;entryY=0.5;entryDx=0;entryDy=0;" edge="1" source="voNVv0d4LPMG87MhzOCo-4" parent="1" target="voNVv0d4LPMG87MhzOCo-2">
          <mxGeometry relative="1" as="geometry">
            <mxPoint x="107" y="210" as="sourcePoint" />
            <mxPoint x="60" y="240" as="targetPoint" />
          </mxGeometry>
        </mxCell>
        <mxCell id="voNVv0d4LPMG87MhzOCo-6" value="(1,N)" style="resizable=0;html=1;whiteSpace=wrap;align=right;verticalAlign=bottom;" connectable="0" vertex="1" parent="voNVv0d4LPMG87MhzOCo-5">
          <mxGeometry x="1" relative="1" as="geometry">
            <mxPoint x="34" as="offset" />
          </mxGeometry>
        </mxCell>
        <mxCell id="voNVv0d4LPMG87MhzOCo-7" value="" style="endArrow=none;html=1;rounded=0;exitX=1;exitY=0.5;exitDx=0;exitDy=0;entryX=0;entryY=0.5;entryDx=0;entryDy=0;" edge="1" source="voNVv0d4LPMG87MhzOCo-4" parent="1" target="voNVv0d4LPMG87MhzOCo-3">
          <mxGeometry relative="1" as="geometry">
            <mxPoint x="107" y="210" as="sourcePoint" />
            <mxPoint x="280" y="240" as="targetPoint" />
          </mxGeometry>
        </mxCell>
        <mxCell id="voNVv0d4LPMG87MhzOCo-8" value="(1,N)" style="resizable=0;html=1;whiteSpace=wrap;align=right;verticalAlign=bottom;" connectable="0" vertex="1" parent="voNVv0d4LPMG87MhzOCo-7">
          <mxGeometry x="1" relative="1" as="geometry">
            <mxPoint as="offset" />
          </mxGeometry>
        </mxCell>
        <mxCell id="voNVv0d4LPMG87MhzOCo-9" value="" style="endArrow=none;html=1;rounded=0;exitX=0.5;exitY=0;exitDx=0;exitDy=0;" edge="1" target="voNVv0d4LPMG87MhzOCo-10" parent="1" source="voNVv0d4LPMG87MhzOCo-3">
          <mxGeometry relative="1" as="geometry">
            <mxPoint x="340" y="185" as="sourcePoint" />
            <mxPoint x="400" y="185" as="targetPoint" />
          </mxGeometry>
        </mxCell>
        <mxCell id="voNVv0d4LPMG87MhzOCo-10" value="&lt;u&gt;matricula&lt;/u&gt;" style="ellipse;whiteSpace=wrap;html=1;align=center;" vertex="1" parent="1">
          <mxGeometry x="310" y="150" width="55" height="30" as="geometry" />
        </mxCell>
        <mxCell id="voNVv0d4LPMG87MhzOCo-11" value="" style="endArrow=none;html=1;rounded=0;exitX=0.5;exitY=0;exitDx=0;exitDy=0;" edge="1" target="voNVv0d4LPMG87MhzOCo-12" parent="1" source="voNVv0d4LPMG87MhzOCo-4">
          <mxGeometry relative="1" as="geometry">
            <mxPoint x="150" y="165" as="sourcePoint" />
            <mxPoint x="210" y="165" as="targetPoint" />
          </mxGeometry>
        </mxCell>
        <mxCell id="voNVv0d4LPMG87MhzOCo-12" value="&lt;u&gt;nIdent&lt;/u&gt;" style="ellipse;whiteSpace=wrap;html=1;align=center;" vertex="1" parent="1">
          <mxGeometry x="150" y="150" width="50" height="20" as="geometry" />
        </mxCell>
        <mxCell id="voNVv0d4LPMG87MhzOCo-13" value="" style="endArrow=none;html=1;rounded=0;" edge="1" target="voNVv0d4LPMG87MhzOCo-14" parent="1" source="voNVv0d4LPMG87MhzOCo-4">
          <mxGeometry relative="1" as="geometry">
            <mxPoint x="200" y="185" as="sourcePoint" />
            <mxPoint x="260" y="185" as="targetPoint" />
          </mxGeometry>
        </mxCell>
        <mxCell id="voNVv0d4LPMG87MhzOCo-14" value="fechaFinal" style="ellipse;whiteSpace=wrap;html=1;align=center;" vertex="1" parent="1">
          <mxGeometry x="190" y="180" width="70" height="20" as="geometry" />
        </mxCell>
        <mxCell id="voNVv0d4LPMG87MhzOCo-15" value="" style="endArrow=none;html=1;rounded=0;exitX=0;exitY=0;exitDx=0;exitDy=0;" edge="1" target="voNVv0d4LPMG87MhzOCo-16" parent="1" source="voNVv0d4LPMG87MhzOCo-4">
          <mxGeometry relative="1" as="geometry">
            <mxPoint x="65" y="185" as="sourcePoint" />
            <mxPoint x="125" y="185" as="targetPoint" />
          </mxGeometry>
        </mxCell>
        <mxCell id="voNVv0d4LPMG87MhzOCo-16" value="fechaInicio" style="ellipse;whiteSpace=wrap;html=1;align=center;" vertex="1" parent="1">
          <mxGeometry x="90" y="180" width="70" height="20" as="geometry" />
        </mxCell>
        <mxCell id="voNVv0d4LPMG87MhzOCo-17" value="" style="endArrow=none;html=1;rounded=0;exitX=0.5;exitY=1;exitDx=0;exitDy=0;" edge="1" target="voNVv0d4LPMG87MhzOCo-18" parent="1" source="voNVv0d4LPMG87MhzOCo-4">
          <mxGeometry relative="1" as="geometry">
            <mxPoint x="135" y="295" as="sourcePoint" />
            <mxPoint x="195" y="295" as="targetPoint" />
          </mxGeometry>
        </mxCell>
        <mxCell id="voNVv0d4LPMG87MhzOCo-18" value="precio" style="ellipse;whiteSpace=wrap;html=1;align=center;" vertex="1" parent="1">
          <mxGeometry x="150" y="280" width="50" height="30" as="geometry" />
        </mxCell>
        <mxCell id="voNVv0d4LPMG87MhzOCo-19" value="" style="endArrow=none;html=1;rounded=0;exitX=0.75;exitY=0;exitDx=0;exitDy=0;" edge="1" target="voNVv0d4LPMG87MhzOCo-20" parent="1" source="voNVv0d4LPMG87MhzOCo-3">
          <mxGeometry relative="1" as="geometry">
            <mxPoint x="380" y="190" as="sourcePoint" />
            <mxPoint x="440" y="190" as="targetPoint" />
          </mxGeometry>
        </mxCell>
        <mxCell id="voNVv0d4LPMG87MhzOCo-20" value="precioXHora" style="ellipse;whiteSpace=wrap;html=1;align=center;" vertex="1" parent="1">
          <mxGeometry x="365" y="177.5" width="85" height="25" as="geometry" />
        </mxCell>
        <mxCell id="voNVv0d4LPMG87MhzOCo-21" value="" style="endArrow=none;html=1;rounded=0;exitX=0.5;exitY=0;exitDx=0;exitDy=0;" edge="1" target="voNVv0d4LPMG87MhzOCo-22" parent="1" source="voNVv0d4LPMG87MhzOCo-2">
          <mxGeometry relative="1" as="geometry">
            <mxPoint x="-60" y="185" as="sourcePoint" />
            <mxPoint y="185" as="targetPoint" />
          </mxGeometry>
        </mxCell>
        <mxCell id="voNVv0d4LPMG87MhzOCo-22" value="&lt;u&gt;DNI&lt;/u&gt;" style="ellipse;whiteSpace=wrap;html=1;align=center;" vertex="1" parent="1">
          <mxGeometry x="-17.5" y="170" width="35" height="20" as="geometry" />
        </mxCell>
        <mxCell id="voNVv0d4LPMG87MhzOCo-23" value="" style="endArrow=none;html=1;rounded=0;" edge="1" target="voNVv0d4LPMG87MhzOCo-24" parent="1" source="voNVv0d4LPMG87MhzOCo-4">
          <mxGeometry relative="1" as="geometry">
            <mxPoint x="205" y="285" as="sourcePoint" />
            <mxPoint x="265" y="285" as="targetPoint" />
          </mxGeometry>
        </mxCell>
        <mxCell id="voNVv0d4LPMG87MhzOCo-24" value="coche" style="ellipse;whiteSpace=wrap;html=1;align=center;" vertex="1" parent="1">
          <mxGeometry x="210" y="270" width="50" height="20" as="geometry" />
        </mxCell>
        <mxCell id="voNVv0d4LPMG87MhzOCo-25" value="" style="endArrow=none;html=1;rounded=0;exitX=0;exitY=1;exitDx=0;exitDy=0;" edge="1" target="voNVv0d4LPMG87MhzOCo-26" parent="1" source="voNVv0d4LPMG87MhzOCo-4">
          <mxGeometry relative="1" as="geometry">
            <mxPoint x="50" y="285" as="sourcePoint" />
            <mxPoint x="110" y="285" as="targetPoint" />
          </mxGeometry>
        </mxCell>
        <mxCell id="voNVv0d4LPMG87MhzOCo-26" value="gasolina" style="ellipse;whiteSpace=wrap;html=1;align=center;" vertex="1" parent="1">
          <mxGeometry x="80" y="270" width="55" height="20" as="geometry" />
        </mxCell>
        <mxCell id="voNVv0d4LPMG87MhzOCo-27" value="" style="endArrow=none;html=1;rounded=0;exitX=1;exitY=0.5;exitDx=0;exitDy=0;" edge="1" target="voNVv0d4LPMG87MhzOCo-28" parent="1" source="voNVv0d4LPMG87MhzOCo-3">
          <mxGeometry relative="1" as="geometry">
            <mxPoint x="400" y="245" as="sourcePoint" />
            <mxPoint x="460" y="245" as="targetPoint" />
          </mxGeometry>
        </mxCell>
        <mxCell id="voNVv0d4LPMG87MhzOCo-28" value="modelo" style="ellipse;whiteSpace=wrap;html=1;align=center;" vertex="1" parent="1">
          <mxGeometry x="413" y="230" width="50" height="20" as="geometry" />
        </mxCell>
        <mxCell id="voNVv0d4LPMG87MhzOCo-29" value="" style="endArrow=none;html=1;rounded=0;exitX=1;exitY=1;exitDx=0;exitDy=0;" edge="1" target="voNVv0d4LPMG87MhzOCo-30" parent="1" source="voNVv0d4LPMG87MhzOCo-3">
          <mxGeometry relative="1" as="geometry">
            <mxPoint x="405" y="305" as="sourcePoint" />
            <mxPoint x="465" y="305" as="targetPoint" />
          </mxGeometry>
        </mxCell>
        <mxCell id="voNVv0d4LPMG87MhzOCo-30" value="color" style="ellipse;whiteSpace=wrap;html=1;align=center;" vertex="1" parent="1">
          <mxGeometry x="413" y="270" width="50" height="20" as="geometry" />
        </mxCell>
        <mxCell id="voNVv0d4LPMG87MhzOCo-31" value="" style="endArrow=none;html=1;rounded=0;exitX=0.5;exitY=1;exitDx=0;exitDy=0;" edge="1" target="voNVv0d4LPMG87MhzOCo-32" parent="1" source="voNVv0d4LPMG87MhzOCo-3">
          <mxGeometry relative="1" as="geometry">
            <mxPoint x="310" y="305" as="sourcePoint" />
            <mxPoint x="370" y="305" as="targetPoint" />
          </mxGeometry>
        </mxCell>
        <mxCell id="voNVv0d4LPMG87MhzOCo-32" value="marca" style="ellipse;whiteSpace=wrap;html=1;align=center;" vertex="1" parent="1">
          <mxGeometry x="345" y="285" width="50" height="20" as="geometry" />
        </mxCell>
      </root>
    </mxGraphModel>
  </diagram>
</mxfile>
